<?xml version="1.0" encoding="UTF-8"?>
<!DOCTYPE svg PUBLIC "-//W3C//DTD SVG 1.1//EN" "http://www.w3.org/Graphics/SVG/1.1/DTD/svg11.dtd">
<svg xmlns="http://www.w3.org/2000/svg" version="1.1" width="500px" height="500px" style="shape-rendering:geometricPrecision; text-rendering:geometricPrecision; image-rendering:optimizeQuality; fill-rule:evenodd; clip-rule:evenodd" xmlns:xlink="http://www.w3.org/1999/xlink">
<g><path style="opacity:0.463" fill="#2bc39f" d="M 262.5,67.5 C 258.865,66.8857 255.198,66.5524 251.5,66.5C 246.299,66.1883 241.299,67.0216 236.5,69C 221.616,78.0553 206.616,86.8887 191.5,95.5C 206.098,85.5249 221.098,76.0249 236.5,67C 245.374,63.5211 254.04,63.6878 262.5,67.5 Z"/></g>
<g><path style="opacity:1" fill="#02e6a2" d="M 251.5,66.5 C 255.198,66.5524 258.865,66.8857 262.5,67.5C 265.632,71.2405 269.632,73.7405 274.5,75C 276.167,77.3333 277.833,79.6667 279.5,82C 289.821,84.6617 299.154,89.1617 307.5,95.5C 307.238,96.9778 307.571,98.3112 308.5,99.5C 309.833,99.8333 311.167,100.167 312.5,100.5C 313.567,102.559 314.9,104.392 316.5,106C 316.167,106.333 315.833,106.667 315.5,107C 319.485,106.987 322.485,108.654 324.5,112C 326.5,112.333 328.5,112.667 330.5,113C 329.333,113.5 328.5,114.333 328,115.5C 327.692,114.692 327.192,114.025 326.5,113.5C 323.647,117.155 324.481,118.488 329,117.5C 329.833,118.5 330.667,119.5 331.5,120.5C 333.424,120.894 335.257,120.227 337,118.5C 337.315,121.147 338.482,121.813 340.5,120.5C 341.167,121.5 341.833,122.5 342.5,123.5C 344.736,123.583 347.07,123.25 349.5,122.5C 354.956,126.816 354.623,127.816 348.5,125.5C 343.739,130.069 338.406,130.735 332.5,127.5C 333.46,126.188 333.294,124.854 332,123.5C 331.692,124.308 331.192,124.975 330.5,125.5C 328.827,123.914 326.827,123.247 324.5,123.5C 324.67,122.178 324.337,121.011 323.5,120C 321.19,119.503 318.857,119.337 316.5,119.5C 316.5,118.167 316.5,116.833 316.5,115.5C 314.571,115.769 312.905,115.269 311.5,114C 314.035,113.383 316.368,113.883 318.5,115.5C 318.94,114.302 319.273,113.135 319.5,112C 316.068,111.884 313.068,110.717 310.5,108.5C 309.549,109.326 308.549,109.492 307.5,109C 308.43,107.806 309.097,106.473 309.5,105C 307.647,102.815 305.48,100.982 303,99.5C 302.5,100 302,100.5 301.5,101C 304.402,102.94 305.402,105.44 304.5,108.5C 303.407,106.23 301.907,105.897 300,107.5C 296.574,104.13 292.408,102.297 287.5,102C 286.687,100.197 285.52,98.697 284,97.5C 279.932,95.8049 275.765,94.4715 271.5,93.5C 270.524,92.1851 269.524,90.8518 268.5,89.5C 266.1,88.9146 264.1,87.7479 262.5,86C 262.645,85.228 262.978,84.5613 263.5,84C 266.874,83.479 269.874,82.1457 272.5,80C 271.975,79.3076 271.308,78.8076 270.5,78.5C 266.964,79.381 263.63,80.7143 260.5,82.5C 252.627,83.2136 244.794,84.2136 237,85.5C 234.244,85.5765 233.077,84.2431 233.5,81.5C 231.5,81.5 229.5,81.5 227.5,81.5C 227.343,80.1266 227.51,78.7932 228,77.5C 228.414,77.9574 228.914,78.2907 229.5,78.5C 231.535,77.9588 233.535,77.2922 235.5,76.5C 234.098,75.1575 234.431,74.3242 236.5,74C 234.355,73.2569 234.189,72.4235 236,71.5C 241.315,69.0711 246.482,67.4044 251.5,66.5 Z"/></g>
<g><path style="opacity:1" fill="#23d2a2" d="M 262.5,67.5 C 278.694,76.0451 294.361,85.3784 309.5,95.5C 308.833,95.5 308.167,95.5 307.5,95.5C 299.154,89.1617 289.821,84.6617 279.5,82C 277.833,79.6667 276.167,77.3333 274.5,75C 269.632,73.7405 265.632,71.2405 262.5,67.5 Z"/></g>
<g><path style="opacity:1" fill="#03e5a1" d="M 231.5,92.5 C 229.062,94.2672 226.395,95.6006 223.5,96.5C 222.167,96.5 220.833,96.5 219.5,96.5C 219.5,95.5 219.5,94.5 219.5,93.5C 217.801,93.3398 216.134,93.5065 214.5,94C 216.439,94.9078 217.439,96.4078 217.5,98.5C 213.529,98.4849 210.529,100.152 208.5,103.5C 207.355,99.9615 205.522,99.6282 203,102.5C 201.5,101 200,99.5 198.5,98C 199.167,97 199.833,96 200.5,95C 204.646,93.001 208.646,90.8343 212.5,88.5C 213.251,87.624 213.751,86.624 214,85.5C 214.414,85.9574 214.914,86.2907 215.5,86.5C 217.833,84.8333 220.167,83.1667 222.5,81.5C 223.647,81.8178 224.481,82.4844 225,83.5C 225.333,83.1667 225.667,82.8333 226,82.5C 227.081,84.622 227.748,86.622 228,88.5C 229.816,86.5586 231.816,85.8919 234,86.5C 233.926,88.7648 233.093,90.7648 231.5,92.5 Z"/></g>
<g><path style="opacity:0.788" fill="#0e414a" d="M 255.5,86.5 C 261.221,88.0691 266.554,90.4024 271.5,93.5C 275.622,96.734 279.955,99.734 284.5,102.5C 284.672,103.492 284.338,104.158 283.5,104.5C 274.726,99.9444 266.06,95.1111 257.5,90C 253.428,89.0029 249.428,88.8362 245.5,89.5C 245.414,88.5041 245.748,87.6708 246.5,87C 249.482,86.502 252.482,86.3354 255.5,86.5 Z"/></g>
<g><path style="opacity:1" fill="#0bdba6" d="M 271.5,93.5 C 275.765,94.4715 279.932,95.8049 284,97.5C 285.52,98.697 286.687,100.197 287.5,102C 292.408,102.297 296.574,104.13 300,107.5C 301.907,105.897 303.407,106.23 304.5,108.5C 305.402,105.44 304.402,102.94 301.5,101C 302,100.5 302.5,100 303,99.5C 305.48,100.982 307.647,102.815 309.5,105C 309.097,106.473 308.43,107.806 307.5,109C 308.549,109.492 309.549,109.326 310.5,108.5C 313.068,110.717 316.068,111.884 319.5,112C 319.273,113.135 318.94,114.302 318.5,115.5C 316.368,113.883 314.035,113.383 311.5,114C 312.905,115.269 314.571,115.769 316.5,115.5C 316.5,116.833 316.5,118.167 316.5,119.5C 318.857,119.337 321.19,119.503 323.5,120C 324.337,121.011 324.67,122.178 324.5,123.5C 329.102,127.558 334.435,130.558 340.5,132.5C 343.08,134.732 345.413,137.065 347.5,139.5C 326.336,127.419 305.336,115.086 284.5,102.5C 279.955,99.734 275.622,96.734 271.5,93.5 Z"/></g>
<g><path style="opacity:0.455" fill="#115154" d="M 255.5,86.5 C 252.482,86.3354 249.482,86.502 246.5,87C 245.748,87.6708 245.414,88.5041 245.5,89.5C 242.309,90.0922 239.309,91.2589 236.5,93C 217.777,105.025 198.777,116.525 179.5,127.5C 178.957,127.44 178.624,127.107 178.5,126.5C 179.193,125.482 179.859,124.482 180.5,123.5C 183.047,122.066 185.381,120.4 187.5,118.5C 200.171,112.169 212.171,104.836 223.5,96.5C 226.395,95.6006 229.062,94.2672 231.5,92.5C 235.515,90.4332 239.515,88.2665 243.5,86C 247.689,85.1881 251.689,85.3547 255.5,86.5 Z"/></g>
<g><path style="opacity:1" fill="#06e2a5" d="M 251.5,66.5 C 246.482,67.4044 241.315,69.0711 236,71.5C 234.189,72.4235 234.355,73.2569 236.5,74C 234.431,74.3242 234.098,75.1575 235.5,76.5C 233.535,77.2922 231.535,77.9588 229.5,78.5C 228.914,78.2907 228.414,77.9574 228,77.5C 227.51,78.7932 227.343,80.1266 227.5,81.5C 229.5,81.5 231.5,81.5 233.5,81.5C 233.077,84.2431 234.244,85.5765 237,85.5C 244.794,84.2136 252.627,83.2136 260.5,82.5C 263.63,80.7143 266.964,79.381 270.5,78.5C 271.308,78.8076 271.975,79.3076 272.5,80C 269.874,82.1457 266.874,83.479 263.5,84C 262.978,84.5613 262.645,85.228 262.5,86C 264.1,87.7479 266.1,88.9146 268.5,89.5C 269.524,90.8518 270.524,92.1851 271.5,93.5C 266.554,90.4024 261.221,88.0691 255.5,86.5C 251.689,85.3547 247.689,85.1881 243.5,86C 239.515,88.2665 235.515,90.4332 231.5,92.5C 233.093,90.7648 233.926,88.7648 234,86.5C 231.816,85.8919 229.816,86.5586 228,88.5C 227.748,86.622 227.081,84.622 226,82.5C 225.667,82.8333 225.333,83.1667 225,83.5C 224.481,82.4844 223.647,81.8178 222.5,81.5C 220.167,83.1667 217.833,84.8333 215.5,86.5C 214.914,86.2907 214.414,85.9574 214,85.5C 213.751,86.624 213.251,87.624 212.5,88.5C 208.646,90.8343 204.646,93.001 200.5,95C 199.833,96 199.167,97 198.5,98C 200,99.5 201.5,101 203,102.5C 205.522,99.6282 207.355,99.9615 208.5,103.5C 210.529,100.152 213.529,98.4849 217.5,98.5C 217.439,96.4078 216.439,94.9078 214.5,94C 216.134,93.5065 217.801,93.3398 219.5,93.5C 219.5,94.5 219.5,95.5 219.5,96.5C 220.833,96.5 222.167,96.5 223.5,96.5C 212.171,104.836 200.171,112.169 187.5,118.5C 187.33,117.178 187.663,116.011 188.5,115C 185.279,114.203 182.279,114.703 179.5,116.5C 180.641,117.425 180.641,118.259 179.5,119C 177.421,119.808 175.421,119.641 173.5,118.5C 174.391,117.41 175.391,117.41 176.5,118.5C 177.95,117.345 178.95,115.845 179.5,114C 180.793,113.51 182.127,113.343 183.5,113.5C 183.83,110.891 185.33,109.224 188,108.5C 192.472,107.862 197.639,107.862 203.5,108.5C 203.034,106.799 203.034,105.299 203.5,104C 197.926,104.621 192.593,104.454 187.5,103.5C 185.5,104 183.5,104.5 181.5,105C 183.878,105.974 183.544,106.641 180.5,107C 181.38,108.356 181.714,109.856 181.5,111.5C 179.857,111.48 178.524,112.147 177.5,113.5C 174.815,110.695 173.148,111.362 172.5,115.5C 171.914,115.291 171.414,114.957 171,114.5C 168.696,117.141 166.362,119.808 164,122.5C 163.599,120.479 162.432,119.145 160.5,118.5C 153.928,121.73 147.594,125.397 141.5,129.5C 139.955,130.452 138.288,130.785 136.5,130.5C 140.787,126.682 145.787,123.849 151.5,122C 154.473,119.706 157.14,117.206 159.5,114.5C 159.5,113.833 159.833,113.5 160.5,113.5C 160.735,114.097 161.235,114.43 162,114.5C 170.661,109.088 179.494,103.755 188.5,98.5C 189.298,98.0431 189.631,97.3764 189.5,96.5C 189.842,95.6618 190.508,95.3284 191.5,95.5C 206.616,86.8887 221.616,78.0553 236.5,69C 241.299,67.0216 246.299,66.1883 251.5,66.5 Z"/></g>
<g><path style="opacity:1" fill="#27cba0" d="M 189.5,96.5 C 189.631,97.3764 189.298,98.0431 188.5,98.5C 179.494,103.755 170.661,109.088 162,114.5C 161.235,114.43 160.735,114.097 160.5,113.5C 170.03,107.57 179.697,101.903 189.5,96.5 Z"/></g>
<g><path style="opacity:1" fill="#03e4a4" d="M 307.5,95.5 C 308.167,95.5 308.833,95.5 309.5,95.5C 316.963,101.07 324.63,106.403 332.5,111.5C 345.734,118.726 358.734,126.393 371.5,134.5C 371.5,135.5 371.5,136.5 371.5,137.5C 369.42,138.044 367.42,138.878 365.5,140C 367.192,141.401 367.859,143.234 367.5,145.5C 362.777,147.57 359.11,146.404 356.5,142C 353.526,141.007 350.526,140.174 347.5,139.5C 345.413,137.065 343.08,134.732 340.5,132.5C 334.435,130.558 329.102,127.558 324.5,123.5C 326.827,123.247 328.827,123.914 330.5,125.5C 331.192,124.975 331.692,124.308 332,123.5C 333.294,124.854 333.46,126.188 332.5,127.5C 338.406,130.735 343.739,130.069 348.5,125.5C 354.623,127.816 354.956,126.816 349.5,122.5C 347.07,123.25 344.736,123.583 342.5,123.5C 341.833,122.5 341.167,121.5 340.5,120.5C 338.482,121.813 337.315,121.147 337,118.5C 335.257,120.227 333.424,120.894 331.5,120.5C 330.667,119.5 329.833,118.5 329,117.5C 324.481,118.488 323.647,117.155 326.5,113.5C 327.192,114.025 327.692,114.692 328,115.5C 328.5,114.333 329.333,113.5 330.5,113C 328.5,112.667 326.5,112.333 324.5,112C 322.485,108.654 319.485,106.987 315.5,107C 315.833,106.667 316.167,106.333 316.5,106C 314.9,104.392 313.567,102.559 312.5,100.5C 311.167,100.167 309.833,99.8333 308.5,99.5C 307.571,98.3112 307.238,96.9778 307.5,95.5 Z"/></g>
<g><path style="opacity:1" fill="#f3f1ef" d="M 263.5,120.5 C 279.079,129.409 294.413,138.743 309.5,148.5C 309.774,150.981 311.107,152.647 313.5,153.5C 313.5,155.5 313.5,157.5 313.5,159.5C 311.797,164.187 308.463,166.02 303.5,165C 287.5,155.333 271.5,145.667 255.5,136C 250.794,134.237 246.127,134.403 241.5,136.5C 239.042,134.116 236.376,132.616 233.5,132C 236.194,130.512 238.528,130.679 240.5,132.5C 242.225,131.985 243.892,131.318 245.5,130.5C 242.103,129.828 238.77,128.995 235.5,128C 237.658,126.688 237.991,125.022 236.5,123C 238.939,122.226 240.773,120.726 242,118.5C 246.618,119.527 251.451,119.527 256.5,118.5C 258.51,120.171 260.843,120.838 263.5,120.5 Z"/></g>
<g><path style="opacity:1" fill="#03e5a1" d="M 187.5,118.5 C 185.381,120.4 183.047,122.066 180.5,123.5C 173.547,127.424 166.547,131.424 159.5,135.5C 152.614,138.277 145.947,141.61 139.5,145.5C 136.572,148.798 132.905,150.798 128.5,151.5C 128.5,152.833 128.5,154.167 128.5,155.5C 125.306,157.739 122.639,160.406 120.5,163.5C 119.624,163.631 118.957,163.298 118.5,162.5C 119.59,161.391 119.59,160.391 118.5,159.5C 117.167,160.833 115.833,162.167 114.5,163.5C 114.167,162.833 113.833,162.167 113.5,161.5C 114.685,159.289 115.685,156.955 116.5,154.5C 115.332,152.783 113.665,152.116 111.5,152.5C 111.5,150.833 111.5,149.167 111.5,147.5C 113.527,147.662 115.527,147.495 117.5,147C 116.359,146.259 116.359,145.425 117.5,144.5C 123.539,142.181 129.206,139.347 134.5,136C 133.419,134.289 133.752,132.789 135.5,131.5C 135.5,130.833 135.833,130.5 136.5,130.5C 138.288,130.785 139.955,130.452 141.5,129.5C 147.594,125.397 153.928,121.73 160.5,118.5C 162.432,119.145 163.599,120.479 164,122.5C 166.362,119.808 168.696,117.141 171,114.5C 171.414,114.957 171.914,115.291 172.5,115.5C 173.148,111.362 174.815,110.695 177.5,113.5C 178.524,112.147 179.857,111.48 181.5,111.5C 181.714,109.856 181.38,108.356 180.5,107C 183.544,106.641 183.878,105.974 181.5,105C 183.5,104.5 185.5,104 187.5,103.5C 192.593,104.454 197.926,104.621 203.5,104C 203.034,105.299 203.034,106.799 203.5,108.5C 197.639,107.862 192.472,107.862 188,108.5C 185.33,109.224 183.83,110.891 183.5,113.5C 182.127,113.343 180.793,113.51 179.5,114C 178.95,115.845 177.95,117.345 176.5,118.5C 175.391,117.41 174.391,117.41 173.5,118.5C 175.421,119.641 177.421,119.808 179.5,119C 180.641,118.259 180.641,117.425 179.5,116.5C 182.279,114.703 185.279,114.203 188.5,115C 187.663,116.011 187.33,117.178 187.5,118.5 Z"/></g>
<g><path style="opacity:0.51" fill="#2cc29c" d="M 309.5,95.5 C 334.508,110.001 359.174,125.001 383.5,140.5C 379.259,139.046 375.259,137.046 371.5,134.5C 358.734,126.393 345.734,118.726 332.5,111.5C 324.63,106.403 316.963,101.07 309.5,95.5 Z"/></g>
<g><path style="opacity:1" fill="#18d3ab" d="M 99.5,131.5 C 101.164,137.89 98.8311,140.89 92.5,140.5C 83.8915,137.171 83.5581,133.337 91.5,129C 93.9554,127.369 96.4554,127.203 99,128.5C 99.4828,129.448 99.6495,130.448 99.5,131.5 Z"/></g>
<g><path style="opacity:1" fill="#2ca79a" d="M 99.5,131.5 C 102.135,132.837 104.802,133.17 107.5,132.5C 109.002,133.083 110.335,133.916 111.5,135C 108.042,136.415 104.375,136.915 100.5,136.5C 100.579,137.93 100.246,139.264 99.5,140.5C 97.0268,141.797 94.6934,141.797 92.5,140.5C 98.8311,140.89 101.164,137.89 99.5,131.5 Z"/></g>
<g><path style="opacity:1" fill="#f1f0ee" d="M 263.5,120.5 C 260.843,120.838 258.51,120.171 256.5,118.5C 251.451,119.527 246.618,119.527 242,118.5C 240.773,120.726 238.939,122.226 236.5,123C 237.991,125.022 237.658,126.688 235.5,128C 238.77,128.995 242.103,129.828 245.5,130.5C 243.892,131.318 242.225,131.985 240.5,132.5C 238.528,130.679 236.194,130.512 233.5,132C 236.376,132.616 239.042,134.116 241.5,136.5C 226.564,145.975 211.564,155.475 196.5,165C 191.879,165.552 188.545,163.718 186.5,159.5C 186.5,157.5 186.5,155.5 186.5,153.5C 189.343,152.079 190.676,150.079 190.5,147.5C 191.552,147.649 192.552,147.483 193.5,147C 208.496,136.833 223.829,127.167 239.5,118C 248.056,114.238 256.056,115.071 263.5,120.5 Z"/></g>
<g><path style="opacity:1" fill="#239890" d="M 402.5,132.5 C 402.5,133.833 402.5,135.167 402.5,136.5C 398.785,136.577 395.119,136.244 391.5,135.5C 391.5,134.5 391.5,133.5 391.5,132.5C 395.167,132.5 398.833,132.5 402.5,132.5 Z"/></g>
<g><path style="opacity:0.408" fill="#2cc2a4" d="M 402.5,136.5 C 402.5,135.167 402.5,133.833 402.5,132.5C 401.938,128.901 403.438,126.901 407,126.5C 419.606,129.905 420.44,134.738 409.5,141C 404.801,142.713 402.468,141.213 402.5,136.5 Z"/></g>
<g><path style="opacity:1" fill="#06e6a4" d="M 404.5,129.5 C 409.41,128.372 413.076,129.872 415.5,134C 412.919,138.713 408.919,140.547 403.5,139.5C 403.833,136.167 404.167,132.833 404.5,129.5 Z"/></g>
<g><path style="opacity:1" fill="#11d3a7" d="M 159.5,135.5 C 149.21,142.102 138.877,148.769 128.5,155.5C 128.5,154.167 128.5,152.833 128.5,151.5C 132.905,150.798 136.572,148.798 139.5,145.5C 145.947,141.61 152.614,138.277 159.5,135.5 Z"/></g>
<g><path style="opacity:0.341" fill="#156b6b" d="M 180.5,123.5 C 179.859,124.482 179.193,125.482 178.5,126.5C 178.624,127.107 178.957,127.44 179.5,127.5C 163.005,137.803 146.338,147.97 129.5,158C 125.352,161.642 122.686,166.142 121.5,171.5C 120.833,170.833 120.167,170.167 119.5,169.5C 119.5,168.833 119.5,168.167 119.5,167.5C 119.433,166.041 119.766,164.708 120.5,163.5C 122.639,160.406 125.306,157.739 128.5,155.5C 138.877,148.769 149.21,142.102 159.5,135.5C 166.547,131.424 173.547,127.424 180.5,123.5 Z"/></g>
<g><path style="opacity:1" fill="#2bdab4" d="M 190.5,147.5 C 190.676,150.079 189.343,152.079 186.5,153.5C 184.62,153.229 183.287,153.896 182.5,155.5C 173.669,161.417 164.669,167.083 155.5,172.5C 155.937,170.926 156.937,169.759 158.5,169C 163.175,166.664 167.508,163.831 171.5,160.5C 172.833,159.5 172.833,158.5 171.5,157.5C 165.366,161.136 159.366,164.969 153.5,169C 152.552,169.483 151.552,169.649 150.5,169.5C 160.322,162.53 170.322,155.696 180.5,149C 183.726,147.801 187.059,147.301 190.5,147.5 Z"/></g>
<g><path style="opacity:0.325" fill="#115f5f" d="M 284.5,102.5 C 305.336,115.086 326.336,127.419 347.5,139.5C 358.418,146.41 369.085,153.743 379.5,161.5C 380.167,163.167 380.833,164.833 381.5,166.5C 381.672,167.492 381.338,168.158 380.5,168.5C 379.833,168.5 379.167,168.5 378.5,168.5C 377.147,164.968 375.147,161.801 372.5,159C 342.737,140.795 313.07,122.628 283.5,104.5C 284.338,104.158 284.672,103.492 284.5,102.5 Z"/></g>
<g><path style="opacity:0.333" fill="#4a8791" d="M 313.5,153.5 C 315.099,153.232 316.432,153.566 317.5,154.5C 316.566,155.568 316.232,156.901 316.5,158.5C 315.778,158.082 315.278,157.416 315,156.5C 314.768,157.737 314.268,158.737 313.5,159.5C 313.5,157.5 313.5,155.5 313.5,153.5 Z"/></g>
<g><path style="opacity:1" fill="#03e3a5" d="M 371.5,134.5 C 375.259,137.046 379.259,139.046 383.5,140.5C 390.053,143.054 395.053,147.387 398.5,153.5C 398.67,154.822 398.337,155.989 397.5,157C 401.153,159.627 402.153,162.96 400.5,167C 402.278,169.135 402.945,171.635 402.5,174.5C 401.669,187.994 401.169,201.661 401,215.5C 399.457,216.285 397.79,216.285 396,215.5C 392.557,218.194 390.724,217.194 390.5,212.5C 389.325,212.719 388.325,212.386 387.5,211.5C 386.917,209.998 386.084,208.665 385,207.5C 384.667,193.167 384.333,178.833 384,164.5C 383.505,161.259 382.005,160.259 379.5,161.5C 369.085,153.743 358.418,146.41 347.5,139.5C 350.526,140.174 353.526,141.007 356.5,142C 359.11,146.404 362.777,147.57 367.5,145.5C 367.859,143.234 367.192,141.401 365.5,140C 367.42,138.878 369.42,138.044 371.5,137.5C 371.5,136.5 371.5,135.5 371.5,134.5 Z"/></g>
<g><path style="opacity:0.722" fill="#29bfa1" d="M 159.5,114.5 C 157.14,117.206 154.473,119.706 151.5,122C 145.787,123.849 140.787,126.682 136.5,130.5C 135.833,130.5 135.5,130.833 135.5,131.5C 123.868,136.892 113.368,143.892 104,152.5C 103.153,154.854 102.32,157.188 101.5,159.5C 100.59,161.019 99.7568,162.685 99,164.5C 98.5,184.164 98.3334,203.831 98.5,223.5C 98.5,228.833 98.5,234.167 98.5,239.5C 98.1667,239.5 97.8333,239.5 97.5,239.5C 97.3334,213.831 97.5,188.165 98,162.5C 99.9442,155.45 103.778,149.617 109.5,145C 126.313,135.009 142.98,124.843 159.5,114.5 Z"/></g>
<g><path style="opacity:0.443" fill="#549494" d="M 186.5,153.5 C 186.5,155.5 186.5,157.5 186.5,159.5C 185.833,159.833 185.167,160.167 184.5,160.5C 183.463,159.07 182.796,157.403 182.5,155.5C 183.287,153.896 184.62,153.229 186.5,153.5 Z"/></g>
<g><path style="opacity:1" fill="#02e4a5" d="M 135.5,131.5 C 133.752,132.789 133.419,134.289 134.5,136C 129.206,139.347 123.539,142.181 117.5,144.5C 116.359,145.425 116.359,146.259 117.5,147C 115.527,147.495 113.527,147.662 111.5,147.5C 111.5,149.167 111.5,150.833 111.5,152.5C 113.665,152.116 115.332,152.783 116.5,154.5C 115.685,156.955 114.685,159.289 113.5,161.5C 113.833,162.167 114.167,162.833 114.5,163.5C 115.833,162.167 117.167,160.833 118.5,159.5C 119.59,160.391 119.59,161.391 118.5,162.5C 118.957,163.298 119.624,163.631 120.5,163.5C 119.766,164.708 119.433,166.041 119.5,167.5C 118.326,168.514 117.66,169.847 117.5,171.5C 116.669,183.66 116.169,195.993 116,208.5C 113.919,209.333 111.752,209.333 109.5,208.5C 108.42,212.198 107.42,211.865 106.5,207.5C 107.031,204.265 107.698,201.098 108.5,198C 106.951,192.995 106.118,187.829 106,182.5C 105.8,186.753 105.3,190.92 104.5,195C 104.229,198.513 104.563,202.18 105.5,206C 104.667,208.5 103.833,211 103,213.5C 102.667,212.167 102.333,210.833 102,209.5C 101.5,192.837 101.333,176.17 101.5,159.5C 102.32,157.188 103.153,154.854 104,152.5C 113.368,143.892 123.868,136.892 135.5,131.5 Z"/></g>
<g><path style="opacity:1" fill="#1bdcb9" d="M 357.5,174.5 C 357.833,174.5 358.167,174.5 358.5,174.5C 358.709,175.922 359.209,177.255 360,178.5C 360.333,178.167 360.667,177.833 361,177.5C 364.619,179.863 366.453,183.196 366.5,187.5C 365.18,186.058 363.514,185.392 361.5,185.5C 361.67,184.178 361.337,183.011 360.5,182C 347.719,174.363 335.386,166.196 323.5,157.5C 321.908,154.546 322.575,153.546 325.5,154.5C 335.886,161.689 346.553,168.356 357.5,174.5 Z"/></g>
<g><path style="opacity:1" fill="#0bedbc" d="M 155.5,172.5 C 152.445,173.524 149.445,174.857 146.5,176.5C 145.817,176.137 145.15,175.804 144.5,175.5C 146.5,173.5 148.5,171.5 150.5,169.5C 151.552,169.649 152.552,169.483 153.5,169C 159.366,164.969 165.366,161.136 171.5,157.5C 172.833,158.5 172.833,159.5 171.5,160.5C 167.508,163.831 163.175,166.664 158.5,169C 156.937,169.759 155.937,170.926 155.5,172.5 Z"/></g>
<g><path style="opacity:0.624" fill="#29cdb6" d="M 357.5,174.5 C 346.553,168.356 335.886,161.689 325.5,154.5C 322.575,153.546 321.908,154.546 323.5,157.5C 321.517,156.529 319.517,155.529 317.5,154.5C 316.432,153.566 315.099,153.232 313.5,153.5C 311.107,152.647 309.774,150.981 309.5,148.5C 313.595,147.011 317.595,147.511 321.5,150C 333.705,157.931 345.705,166.097 357.5,174.5 Z"/></g>
<g><path style="opacity:0.816" fill="#173543" d="M 313.5,159.5 C 314.268,158.737 314.768,157.737 315,156.5C 315.278,157.416 315.778,158.082 316.5,158.5C 315.149,166.354 310.482,169.52 302.5,168C 288.165,159.835 274.165,151.168 260.5,142C 254.809,138.372 248.809,137.705 242.5,140C 228.335,149.25 214.002,158.25 199.5,167C 192.034,170.263 187.034,168.097 184.5,160.5C 185.167,160.167 185.833,159.833 186.5,159.5C 188.545,163.718 191.879,165.552 196.5,165C 211.564,155.475 226.564,145.975 241.5,136.5C 246.127,134.403 250.794,134.237 255.5,136C 271.5,145.667 287.5,155.333 303.5,165C 308.463,166.02 311.797,164.187 313.5,159.5 Z"/></g>
<g><path style="opacity:0.796" fill="#a0bdbb" d="M 119.5,169.5 C 120.167,170.167 120.833,170.833 121.5,171.5C 121.3,183.505 120.966,195.505 120.5,207.5C 119.171,201.872 118.504,195.872 118.5,189.5C 118.538,182.787 118.871,176.12 119.5,169.5 Z"/></g>
<g><path style="opacity:0.529" fill="#2ec3a1" d="M 277.5,191.5 C 277.103,192.525 276.437,192.692 275.5,192C 268.443,187.479 261.443,182.979 254.5,178.5C 253.504,177.335 252.171,176.668 250.5,176.5C 248.218,177.223 245.884,177.557 243.5,177.5C 246.519,175.663 249.852,175.163 253.5,176C 261.921,180.602 269.921,185.769 277.5,191.5 Z"/></g>
<g><path style="opacity:1" fill="#13ddac" d="M 254.5,178.5 C 250.966,179.717 247.466,179.717 244,178.5C 244.5,183.333 242.333,185.5 237.5,185C 236.569,189.786 233.903,191.286 229.5,189.5C 227.929,191.415 225.929,192.415 223.5,192.5C 223.711,195.616 224.045,198.45 224.5,201C 223.572,201.388 222.905,202.055 222.5,203C 223.608,204.677 223.608,206.177 222.5,207.5C 220.935,204.087 219.935,200.42 219.5,196.5C 219.744,193.737 221.077,191.571 223.5,190C 230.055,185.561 236.721,181.395 243.5,177.5C 245.884,177.557 248.218,177.223 250.5,176.5C 252.171,176.668 253.504,177.335 254.5,178.5 Z"/></g>
<g><path style="opacity:1" fill="#04e6a7" d="M 254.5,178.5 C 261.443,182.979 268.443,187.479 275.5,192C 276.437,192.692 277.103,192.525 277.5,191.5C 278.338,191.842 278.672,192.508 278.5,193.5C 278.062,193.435 277.728,193.601 277.5,194C 281.824,203.719 278.824,208.053 268.5,207C 267.167,206 267.167,205 268.5,204C 267.328,203.581 266.328,202.915 265.5,202C 267.256,201.798 268.922,201.298 270.5,200.5C 267.27,200.713 263.936,200.213 260.5,199C 259.845,197.513 258.845,196.347 257.5,195.5C 256.212,197.475 254.545,197.475 252.5,195.5C 249.284,197.661 246.284,199.994 243.5,202.5C 241.371,204.95 238.704,206.617 235.5,207.5C 232.9,208.365 230.233,209.032 227.5,209.5C 225.443,209.564 223.777,208.898 222.5,207.5C 223.608,206.177 223.608,204.677 222.5,203C 222.905,202.055 223.572,201.388 224.5,201C 224.045,198.45 223.711,195.616 223.5,192.5C 225.929,192.415 227.929,191.415 229.5,189.5C 233.903,191.286 236.569,189.786 237.5,185C 242.333,185.5 244.5,183.333 244,178.5C 247.466,179.717 250.966,179.717 254.5,178.5 Z"/></g>
<g><path style="opacity:0.855" fill="#2ab097" d="M 443.5,192.5 C 444.5,192.5 445.5,192.5 446.5,192.5C 447.136,198.964 444.47,200.964 438.5,198.5C 438.5,197.5 438.5,196.5 438.5,195.5C 440.933,195.727 442.599,194.727 443.5,192.5 Z"/></g>
<g><path style="opacity:0.573" fill="#84c8b9" d="M 378.5,168.5 C 379.167,168.5 379.833,168.5 380.5,168.5C 381.744,174.331 382.411,180.331 382.5,186.5C 382.495,192.211 381.828,197.544 380.5,202.5C 379.792,191.296 379.126,179.962 378.5,168.5 Z"/></g>
<g><path style="opacity:0.929" fill="#27af92" d="M 57.5,192.5 C 60.5536,193.196 63.2202,194.696 65.5,197C 59.2039,202.677 56.5373,201.177 57.5,192.5 Z"/></g>
<g><path style="opacity:1" fill="#1bd5a4" d="M 278.5,193.5 C 282.981,200.111 281.981,205.944 275.5,211C 273.167,211.667 270.833,211.667 268.5,211C 262.569,206.785 256.402,202.951 250,199.5C 247.721,200.391 245.554,201.391 243.5,202.5C 246.284,199.994 249.284,197.661 252.5,195.5C 254.545,197.475 256.212,197.475 257.5,195.5C 258.845,196.347 259.845,197.513 260.5,199C 263.936,200.213 267.27,200.713 270.5,200.5C 268.922,201.298 267.256,201.798 265.5,202C 266.328,202.915 267.328,203.581 268.5,204C 267.167,205 267.167,206 268.5,207C 278.824,208.053 281.824,203.719 277.5,194C 277.728,193.601 278.062,193.435 278.5,193.5 Z"/></g>
<g><path style="opacity:1" fill="#07e6b7" d="M 155.5,172.5 C 150.903,176.142 145.903,179.308 140.5,182C 139.833,183 139.167,184 138.5,185C 142.867,188.942 147.367,192.775 152,196.5C 153.252,199.014 153.752,201.68 153.5,204.5C 152.602,212.124 152.269,219.791 152.5,227.5C 151.257,230.272 149.924,233.772 148.5,238C 148.585,239.107 148.919,240.107 149.5,241C 147.405,240.681 145.405,240.848 143.5,241.5C 141.833,240.5 140.167,239.5 138.5,238.5C 137.833,238.833 137.167,239.167 136.5,239.5C 135.833,225.673 135.167,212.006 134.5,198.5C 134.149,192.738 134.649,187.072 136,181.5C 138.153,178.51 140.987,176.51 144.5,175.5C 145.15,175.804 145.817,176.137 146.5,176.5C 149.445,174.857 152.445,173.524 155.5,172.5 Z"/></g>
<g><path style="opacity:0.537" fill="#3fbca8" d="M 153.5,204.5 C 154.493,213.318 154.827,222.318 154.5,231.5C 153.833,230.167 153.167,228.833 152.5,227.5C 152.269,219.791 152.602,212.124 153.5,204.5 Z"/></g>
<g><path style="opacity:1" fill="#01e7b4" d="M 360.5,186.5 C 360.5,185.833 360.833,185.5 361.5,185.5C 363.514,185.392 365.18,186.058 366.5,187.5C 366.5,188.167 366.5,188.833 366.5,189.5C 365.063,203.274 363.897,216.941 363,230.5C 362.667,230.167 362.333,229.833 362,229.5C 360.956,230.623 360.29,231.956 360,233.5C 357.381,231.779 354.881,229.946 352.5,228C 351.187,222.154 351.187,216.321 352.5,210.5C 351.306,209.201 350.306,207.868 349.5,206.5C 349.89,203.161 350.39,199.827 351,196.5C 354.809,193.363 358.642,190.197 362.5,187C 361.906,186.536 361.239,186.369 360.5,186.5 Z"/></g>
<g><path style="opacity:1" fill="#2bc09a" d="M 219.5,196.5 C 219.935,200.42 220.935,204.087 222.5,207.5C 223.777,208.898 225.443,209.564 227.5,209.5C 230.233,209.032 232.9,208.365 235.5,207.5C 229.248,213.32 223.748,212.653 219,205.5C 218.195,202.304 218.362,199.304 219.5,196.5 Z"/></g>
<g><path style="opacity:1" fill="#06ddb4" d="M 402.5,174.5 C 402.5,196.167 402.5,217.833 402.5,239.5C 400.473,239.662 398.473,239.495 396.5,239C 395.914,236.72 395.08,234.553 394,232.5C 393.02,235.332 391.02,236.998 388,237.5C 387.667,236.5 387.333,235.5 387,234.5C 386.333,235.833 385.667,235.833 385,234.5C 384.823,230.644 384.323,226.977 383.5,223.5C 383.667,204.83 383.5,186.164 383,167.5C 382.617,166.944 382.117,166.611 381.5,166.5C 380.833,164.833 380.167,163.167 379.5,161.5C 382.005,160.259 383.505,161.259 384,164.5C 384.333,178.833 384.667,193.167 385,207.5C 386.084,208.665 386.917,209.998 387.5,211.5C 388.325,212.386 389.325,212.719 390.5,212.5C 390.724,217.194 392.557,218.194 396,215.5C 397.79,216.285 399.457,216.285 401,215.5C 401.169,201.661 401.669,187.994 402.5,174.5 Z"/></g>
<g><path style="opacity:0.716" fill="#3bb09c" d="M 381.5,166.5 C 382.117,166.611 382.617,166.944 383,167.5C 383.5,186.164 383.667,204.83 383.5,223.5C 382.082,220.98 381.082,218.313 380.5,215.5C 380.5,211.167 380.5,206.833 380.5,202.5C 381.828,197.544 382.495,192.211 382.5,186.5C 382.411,180.331 381.744,174.331 380.5,168.5C 381.338,168.158 381.672,167.492 381.5,166.5 Z"/></g>
<g><path style="opacity:1" fill="#3da69d" d="M 119.5,167.5 C 119.5,168.167 119.5,168.833 119.5,169.5C 118.871,176.12 118.538,182.787 118.5,189.5C 118.504,195.872 119.171,201.872 120.5,207.5C 120.5,212.833 120.5,218.167 120.5,223.5C 118.853,229.265 117.853,235.265 117.5,241.5C 117.5,240.833 117.5,240.167 117.5,239.5C 117.5,229.833 117.5,220.167 117.5,210.5C 117.5,197.5 117.5,184.5 117.5,171.5C 117.66,169.847 118.326,168.514 119.5,167.5 Z"/></g>
<g><path style="opacity:1" fill="#05deb0" d="M 101.5,159.5 C 101.333,176.17 101.5,192.837 102,209.5C 102.333,210.833 102.667,212.167 103,213.5C 103.833,211 104.667,208.5 105.5,206C 104.563,202.18 104.229,198.513 104.5,195C 105.3,190.92 105.8,186.753 106,182.5C 106.118,187.829 106.951,192.995 108.5,198C 107.698,201.098 107.031,204.265 106.5,207.5C 107.42,211.865 108.42,212.198 109.5,208.5C 111.752,209.333 113.919,209.333 116,208.5C 116.169,195.993 116.669,183.66 117.5,171.5C 117.5,184.5 117.5,197.5 117.5,210.5C 116.833,217.012 116.167,223.679 115.5,230.5C 113.995,227.869 113.329,228.203 113.5,231.5C 111.097,231.393 109.264,232.393 108,234.5C 106.757,232.167 105.091,231.5 103,232.5C 100.472,229.902 98.9723,226.902 98.5,223.5C 98.3334,203.831 98.5,184.164 99,164.5C 99.7568,162.685 100.59,161.019 101.5,159.5 Z"/></g>
<g><path style="opacity:0.659" fill="#22b8a1" d="M 398.5,153.5 C 402.167,158.664 404.167,164.497 404.5,171C 404.165,193.465 404.165,215.965 404.5,238.5C 403.833,238.5 403.5,238.833 403.5,239.5C 403.167,239.5 402.833,239.5 402.5,239.5C 402.5,217.833 402.5,196.167 402.5,174.5C 402.945,171.635 402.278,169.135 400.5,167C 402.153,162.96 401.153,159.627 397.5,157C 398.337,155.989 398.67,154.822 398.5,153.5 Z"/></g>
<g><path style="opacity:0.664" fill="#21c1b3" d="M 419.5,218.5 C 425.509,218.334 431.509,218.501 437.5,219C 439.335,219.928 439.668,221.094 438.5,222.5C 431.945,223.184 425.445,223.851 419,224.5C 416.947,222.287 417.113,220.287 419.5,218.5 Z"/></g>
<g><path style="opacity:0.231" fill="#21baa8" d="M 62.5,219.5 C 68.8421,219.334 75.1754,219.5 81.5,220C 82.8333,221 82.8333,222 81.5,223C 75.1667,223.667 68.8333,223.667 62.5,223C 61.3157,221.855 61.3157,220.688 62.5,219.5 Z"/></g>
<g><path style="opacity:1" fill="#16cfb8" d="M 74.5,228.5 C 76.3691,229.165 78.3691,229.831 80.5,230.5C 70.5,231.833 60.5,231.833 50.5,230.5C 50.8627,229.817 51.1961,229.15 51.5,228.5C 59.0101,227.664 66.6767,227.664 74.5,228.5 Z"/></g>
<g><path style="opacity:0.758" fill="#1bafaa" d="M 418.5,226.5 C 428.454,227.285 438.454,227.785 448.5,228C 449.833,229.333 449.833,230.667 448.5,232C 438.172,232.5 427.839,232.666 417.5,232.5C 417.517,230.435 417.85,228.435 418.5,226.5 Z"/></g>
<g><path style="opacity:0.186" fill="#34a99f" d="M 51.5,228.5 C 51.1961,229.15 50.8627,229.817 50.5,230.5C 60.5,231.833 70.5,231.833 80.5,230.5C 78.3691,229.831 76.3691,229.165 74.5,228.5C 76.8194,227.833 79.1527,227.666 81.5,228C 82.3802,229.356 82.7135,230.856 82.5,232.5C 71.5,232.5 60.5,232.5 49.5,232.5C 49.1568,230.517 49.8235,229.183 51.5,228.5 Z"/></g>
<g><path style="opacity:1" fill="#03d1c6" d="M 383.5,223.5 C 384.323,226.977 384.823,230.644 385,234.5C 385.667,235.833 386.333,235.833 387,234.5C 387.333,235.5 387.667,236.5 388,237.5C 391.02,236.998 393.02,235.332 394,232.5C 395.08,234.553 395.914,236.72 396.5,239C 398.473,239.495 400.473,239.662 402.5,239.5C 402.833,239.5 403.167,239.5 403.5,239.5C 403.98,243.306 402.98,246.639 400.5,249.5C 396.575,249.998 392.575,249.998 388.5,249.5C 388.762,248.022 388.429,246.689 387.5,245.5C 386.139,245.212 384.806,244.879 383.5,244.5C 383.5,237.5 383.5,230.5 383.5,223.5 Z"/></g>
<g><path style="opacity:0.98" fill="#ececee" d="M 302.5,244.5 C 301.532,246.607 301.198,248.941 301.5,251.5C 293.501,254.204 287.001,252.204 282,245.5C 274.672,254.979 267.672,254.645 261,244.5C 259.386,247.237 257.219,249.403 254.5,251C 250.514,251.499 246.514,251.666 242.5,251.5C 242.773,249.549 242.107,248.049 240.5,247C 242.014,242.23 242.68,237.23 242.5,232C 250.007,230.333 256.007,232.5 260.5,238.5C 267.233,229.646 274.233,229.313 281.5,237.5C 288.774,229.376 295.774,229.542 302.5,238C 302,238.5 301.5,239 301,239.5C 298.468,238.994 296.302,237.827 294.5,236C 288.925,235.923 286.758,238.757 288,244.5C 289.334,248.104 291.834,249.271 295.5,248C 294.695,246.028 293.361,244.528 291.5,243.5C 292.145,242.354 292.978,241.354 294,240.5C 296.473,241.12 298.973,241.786 301.5,242.5C 301.863,243.183 302.196,243.85 302.5,244.5 Z M 269.5,235.5 C 275.849,236.027 278.016,239.361 276,245.5C 270.637,250.185 267.47,248.851 266.5,241.5C 266.628,239.045 267.628,237.045 269.5,235.5 Z M 246.5,236.5 C 254.482,236.304 256.815,239.804 253.5,247C 251.899,247.273 250.399,247.773 249,248.5C 248.586,248.043 248.086,247.709 247.5,247.5C 246.511,243.893 246.177,240.226 246.5,236.5 Z"/></g>
<g><path style="opacity:0.909" fill="#1b7281" d="M 120.5,223.5 C 120.5,236.833 120.5,250.167 120.5,263.5C 119.022,262.552 118.022,261.219 117.5,259.5C 117.5,258.5 117.5,257.5 117.5,256.5C 117.5,253.167 117.5,249.833 117.5,246.5C 117.5,244.833 117.5,243.167 117.5,241.5C 117.853,235.265 118.853,229.265 120.5,223.5 Z"/></g>
<g><path style="opacity:0.871" fill="#e5e7e8" d="M 164.5,231.5 C 167.85,231.335 171.183,231.502 174.5,232C 180.252,235.181 180.919,239.181 176.5,244C 173.986,245.252 171.32,245.752 168.5,245.5C 168.007,247.806 167.674,250.139 167.5,252.5C 166.178,252.67 165.011,252.337 164,251.5C 163.208,244.753 163.374,238.086 164.5,231.5 Z M 168.5,236.5 C 170.5,236.5 172.5,236.5 174.5,236.5C 174.938,240.908 172.938,242.575 168.5,241.5C 168.5,239.833 168.5,238.167 168.5,236.5 Z"/></g>
<g><path style="opacity:1" fill="#1cbaaf" d="M 418.5,235.5 C 431.409,235.956 444.409,236.456 457.5,237C 458.337,238.011 458.67,239.178 458.5,240.5C 445.251,241.087 432.251,241.42 419.5,241.5C 417.261,239.867 416.928,237.867 418.5,235.5 Z"/></g>
<g><path style="opacity:0.573" fill="#27adab" d="M 43.5,236.5 C 56.5,236.5 69.5,236.5 82.5,236.5C 82.9899,238.948 82.1566,240.615 80,241.5C 67.535,240.988 55.035,240.655 42.5,240.5C 42.4326,239.041 42.7659,237.708 43.5,236.5 Z"/></g>
<g><path style="opacity:1" fill="#14cfbb" d="M 44.5,237.5 C 56.5185,237.168 68.5185,237.501 80.5,238.5C 74.5,238.833 68.5,239.167 62.5,239.5C 56.1275,239.496 50.1275,238.829 44.5,237.5 Z"/></g>
<g><path style="opacity:1" fill="#03d3c1" d="M 117.5,210.5 C 117.5,220.167 117.5,229.833 117.5,239.5C 116.167,239.5 114.833,239.5 113.5,239.5C 112.992,244.902 111.159,245.902 108,242.5C 103.77,244.393 100.604,243.393 98.5,239.5C 98.5,234.167 98.5,228.833 98.5,223.5C 98.9723,226.902 100.472,229.902 103,232.5C 105.091,231.5 106.757,232.167 108,234.5C 109.264,232.393 111.097,231.393 113.5,231.5C 113.329,228.203 113.995,227.869 115.5,230.5C 116.167,223.679 116.833,217.012 117.5,210.5 Z"/></g>
<g><path style="opacity:0.876" fill="#e9eef0" d="M 202.5,231.5 C 207.167,231.5 211.833,231.5 216.5,231.5C 216.5,232.833 216.5,234.167 216.5,235.5C 213.126,235.674 209.793,236.174 206.5,237C 208.709,239.021 211.376,240.188 214.5,240.5C 215.386,241.325 215.719,242.325 215.5,243.5C 212.833,243.5 210.167,243.5 207.5,243.5C 207.5,245.167 207.5,246.833 207.5,248.5C 210.5,248.5 213.5,248.5 216.5,248.5C 216.5,249.833 216.5,251.167 216.5,252.5C 211.797,252.563 207.13,252.229 202.5,251.5C 202.5,244.833 202.5,238.167 202.5,231.5 Z"/></g>
<g><path style="opacity:1" fill="#03dbb4" d="M 366.5,189.5 C 366.667,206.17 366.5,222.837 366,239.5C 366.007,243.814 365.007,247.814 363,251.5C 361.424,252.013 360.091,251.346 359,249.5C 357.003,251.379 354.836,251.712 352.5,250.5C 353.609,249.035 353.109,248.035 351,247.5C 350.802,245.618 350.302,243.952 349.5,242.5C 349.5,230.5 349.5,218.5 349.5,206.5C 350.306,207.868 351.306,209.201 352.5,210.5C 351.187,216.321 351.187,222.154 352.5,228C 354.881,229.946 357.381,231.779 360,233.5C 360.29,231.956 360.956,230.623 362,229.5C 362.333,229.833 362.667,230.167 363,230.5C 363.897,216.941 365.063,203.274 366.5,189.5 Z"/></g>
<g><path style="opacity:1" fill="#06c7ca" d="M 97.5,239.5 C 97.8333,239.5 98.1667,239.5 98.5,239.5C 100.604,243.393 103.77,244.393 108,242.5C 111.159,245.902 112.992,244.902 113.5,239.5C 114.833,239.5 116.167,239.5 117.5,239.5C 117.5,240.167 117.5,240.833 117.5,241.5C 117.5,243.167 117.5,244.833 117.5,246.5C 115.801,248.016 113.801,249.016 111.5,249.5C 107.014,247.689 102.347,246.689 97.5,246.5C 97.5,244.167 97.5,241.833 97.5,239.5 Z"/></g>
<g><path style="opacity:0.945" fill="#eeeff2" d="M 185.5,231.5 C 190.535,230.502 194.702,231.835 198,235.5C 198.538,237.473 197.704,238.473 195.5,238.5C 194.018,236.885 192.184,235.885 190,235.5C 188.338,235.388 187.171,236.054 186.5,237.5C 190.337,239.089 194.17,240.756 198,242.5C 199.901,249.102 197.401,252.435 190.5,252.5C 184.316,252.486 181.482,249.486 182,243.5C 183.131,244.604 183.965,244.271 184.5,242.5C 181.663,238.526 181.997,234.859 185.5,231.5 Z M 185.5,243.5 C 185.56,242.957 185.893,242.624 186.5,242.5C 189.539,243.278 192.206,244.612 194.5,246.5C 192.004,248.953 189.338,249.12 186.5,247C 187.8,245.421 187.466,244.255 185.5,243.5 Z"/></g>
<g><path style="opacity:1" fill="#03d7b7" d="M 134.5,198.5 C 135.167,212.006 135.833,225.673 136.5,239.5C 137.167,239.167 137.833,238.833 138.5,238.5C 140.167,239.5 141.833,240.5 143.5,241.5C 145.405,240.848 147.405,240.681 149.5,241C 148.919,240.107 148.585,239.107 148.5,238C 149.924,233.772 151.257,230.272 152.5,227.5C 153.167,228.833 153.833,230.167 154.5,231.5C 154.5,232.5 154.5,233.5 154.5,234.5C 152.698,241.095 151.865,248.095 152,255.5C 150.165,258.937 149.665,262.437 150.5,266C 149.975,266.692 149.308,267.192 148.5,267.5C 147.167,266.5 145.833,265.5 144.5,264.5C 143.575,265.641 142.741,265.641 142,264.5C 141.692,265.308 141.192,265.975 140.5,266.5C 139.833,265.5 139.167,264.5 138.5,263.5C 137.325,264.855 136.325,264.688 135.5,263C 135.833,262.667 136.167,262.333 136.5,262C 135.693,256.917 135.193,251.75 135,246.5C 134.5,230.503 134.333,214.503 134.5,198.5 Z"/></g>
<g><path style="opacity:1" fill="#e7e9eb" d="M 323.5,231.5 C 327.165,234.333 330.332,237.666 333,241.5C 333.374,240.584 333.874,239.75 334.5,239C 334.108,236.646 334.108,234.146 334.5,231.5C 335.822,231.33 336.989,231.663 338,232.5C 338.956,239.337 338.622,246.004 337,252.5C 332.985,249.484 329.652,245.817 327,241.5C 326.667,244.833 326.333,248.167 326,251.5C 325,252.833 324,252.833 323,251.5C 322.208,244.753 322.374,238.086 323.5,231.5 Z"/></g>
<g><path style="opacity:1" fill="#16cdc2" d="M 458.5,249.5 C 445.489,248.959 432.489,248.126 419.5,247C 433.339,246.831 447.006,246.331 460.5,245.5C 464.051,244.13 465.718,245.464 465.5,249.5C 463.167,249.5 460.833,249.5 458.5,249.5 Z"/></g>
<g><path style="opacity:0.999" fill="#eceeef" d="M 220.5,231.5 C 221.833,231.5 223.167,231.5 224.5,231.5C 224.334,236.179 224.501,240.845 225,245.5C 227.667,249.5 230.333,249.5 233,245.5C 233.499,240.845 233.666,236.179 233.5,231.5C 234.833,231.5 236.167,231.5 237.5,231.5C 237.666,237.176 237.499,242.843 237,248.5C 231.194,254.063 225.86,253.73 221,247.5C 220.501,242.177 220.334,236.844 220.5,231.5 Z"/></g>
<g><path style="opacity:0.391" fill="#28ada8" d="M 37.5,244.5 C 52.5,244.5 67.5,244.5 82.5,244.5C 82.7394,246.467 82.4061,248.301 81.5,250C 74.6667,250.167 67.8333,250.333 61,250.5C 52.7742,250.601 44.6076,250.101 36.5,249C 35.4186,247.289 35.752,245.789 37.5,244.5 Z"/></g>
<g><path style="opacity:1" fill="#0fcec2" d="M 37.5,246.5 C 51.8488,246.167 66.1821,246.501 80.5,247.5C 73.3333,247.833 66.1667,248.167 59,248.5C 51.4675,248.497 44.3008,247.831 37.5,246.5 Z"/></g>
<g><path style="opacity:0.565" fill="#e4e7ec" d="M 302.5,244.5 C 303.289,244.217 303.956,243.717 304.5,243C 304.039,240.553 303.706,238.053 303.5,235.5C 304.04,234.252 304.707,233.085 305.5,232C 309.833,231.333 314.167,231.333 318.5,232C 319.731,233.183 319.731,234.349 318.5,235.5C 316.885,236.154 315.218,236.654 313.5,237C 314.308,238.706 315.641,239.539 317.5,239.5C 317.66,241.199 317.494,242.866 317,244.5C 315.951,243.483 314.784,243.316 313.5,244C 314.167,244.333 314.833,244.667 315.5,245C 314.167,246 314.167,247 315.5,248C 316.793,248.49 318.127,248.657 319.5,248.5C 319.5,249.5 319.5,250.5 319.5,251.5C 315.429,251.234 311.429,251.567 307.5,252.5C 304.831,250.502 303.164,247.836 302.5,244.5 Z M 309.5,243.5 C 310.552,243.351 311.552,243.517 312.5,244C 311.853,245.609 311.02,247.109 310,248.5C 310.771,246.82 310.605,245.153 309.5,243.5 Z M 309.5,235.5 C 312.401,236.178 312.901,237.512 311,239.5C 309.812,238.437 309.312,237.103 309.5,235.5 Z"/></g>
<g><path style="opacity:0.339" fill="#19717c" d="M 380.5,215.5 C 381.082,218.313 382.082,220.98 383.5,223.5C 383.5,230.5 383.5,237.5 383.5,244.5C 383.5,246.5 383.5,248.5 383.5,250.5C 383.5,252.833 383.5,255.167 383.5,257.5C 383.5,258.5 383.5,259.5 383.5,260.5C 382.679,263.641 382.179,266.975 382,270.5C 381.79,268.942 381.29,267.609 380.5,266.5C 380.5,249.5 380.5,232.5 380.5,215.5 Z"/></g>
<g><path style="opacity:0.263" fill="#27a7a3" d="M 460.5,245.5 C 447.006,246.331 433.339,246.831 419.5,247C 432.489,248.126 445.489,248.959 458.5,249.5C 445.327,250.825 431.994,250.825 418.5,249.5C 417.572,248.232 417.405,246.899 418,245.5C 432.265,244.17 446.431,244.17 460.5,245.5 Z"/></g>
<g><path style="opacity:1" fill="#15bcca" d="M 404.5,238.5 C 404.826,247.349 404.493,256.016 403.5,264.5C 403.737,263.209 403.404,262.209 402.5,261.5C 402.496,259.158 401.663,257.158 400,255.5C 399.667,255.833 399.333,256.167 399,256.5C 395.7,255.374 392.366,254.374 389,253.5C 388.586,253.957 388.086,254.291 387.5,254.5C 386.119,253.119 384.785,251.785 383.5,250.5C 383.5,248.5 383.5,246.5 383.5,244.5C 384.806,244.879 386.139,245.212 387.5,245.5C 388.429,246.689 388.762,248.022 388.5,249.5C 392.575,249.998 396.575,249.998 400.5,249.5C 402.98,246.639 403.98,243.306 403.5,239.5C 403.5,238.833 403.833,238.5 404.5,238.5 Z"/></g>
<g><path style="opacity:1" fill="#05b8d7" d="M 97.5,246.5 C 102.347,246.689 107.014,247.689 111.5,249.5C 113.801,249.016 115.801,248.016 117.5,246.5C 117.5,249.833 117.5,253.167 117.5,256.5C 114.519,255.3 111.519,254.3 108.5,253.5C 106.5,254.167 104.5,254.833 102.5,255.5C 101.522,255.023 100.689,254.357 100,253.5C 99.5831,254.756 98.7498,255.423 97.5,255.5C 97.5,252.5 97.5,249.5 97.5,246.5 Z"/></g>
<g><path style="opacity:1" fill="#02b5d8" d="M 383.5,250.5 C 384.785,251.785 386.119,253.119 387.5,254.5C 388.086,254.291 388.586,253.957 389,253.5C 392.366,254.374 395.7,255.374 399,256.5C 399.333,256.167 399.667,255.833 400,255.5C 401.663,257.158 402.496,259.158 402.5,261.5C 398.334,260.664 394.167,259.664 390,258.5C 387.391,260.035 385.225,259.702 383.5,257.5C 383.5,255.167 383.5,252.833 383.5,250.5 Z"/></g>
<g><path style="opacity:0.341" fill="#28a8a2" d="M 418.5,253.5 C 431.504,253.333 444.504,253.5 457.5,254C 458.833,255.333 458.833,256.667 457.5,258C 444.544,258.492 431.711,258.992 419,259.5C 417.2,257.635 417.034,255.635 418.5,253.5 Z"/></g>
<g><path style="opacity:1" fill="#0ec6ac" d="M 419.5,255.5 C 431.851,255.168 444.185,255.501 456.5,256.5C 450.333,256.833 444.167,257.167 438,257.5C 431.462,257.496 425.295,256.83 419.5,255.5 Z"/></g>
<g><path style="opacity:0.278" fill="#2ea8a3" d="M 42.5,253.5 C 55.8333,253.5 69.1667,253.5 82.5,253.5C 82.5,255.167 82.5,256.833 82.5,258.5C 69.4957,258.667 56.4957,258.5 43.5,258C 42.6198,256.644 42.2865,255.144 42.5,253.5 Z"/></g>
<g><path style="opacity:1" fill="#11c7af" d="M 44.5,255.5 C 56.5185,255.168 68.5185,255.501 80.5,256.5C 74.5,256.833 68.5,257.167 62.5,257.5C 56.1275,257.496 50.1275,256.829 44.5,255.5 Z"/></g>
<g><path style="opacity:1" fill="#06a5de" d="M 117.5,256.5 C 117.5,257.5 117.5,258.5 117.5,259.5C 117.5,261.5 117.5,263.5 117.5,265.5C 117.5,265.833 117.5,266.167 117.5,266.5C 116.359,264.771 114.693,263.771 112.5,263.5C 108.183,264.132 103.85,264.632 99.5,265C 98.5939,266.699 98.2606,268.533 98.5,270.5C 98.5,271.167 98.1667,271.5 97.5,271.5C 97.5,266.167 97.5,260.833 97.5,255.5C 98.7498,255.423 99.5831,254.756 100,253.5C 100.689,254.357 101.522,255.023 102.5,255.5C 104.5,254.833 106.5,254.167 108.5,253.5C 111.519,254.3 114.519,255.3 117.5,256.5 Z"/></g>
<g><path style="opacity:1" fill="#11c6a8" d="M 358.5,174.5 C 363.301,176.798 366.468,180.465 368,185.5C 367.754,200.478 367.921,215.478 368.5,230.5C 367.513,235.305 367.179,240.305 367.5,245.5C 366.674,250.316 366.174,255.316 366,260.5C 364.538,262.988 363.538,265.655 363,268.5C 362.667,267.833 362.333,267.167 362,266.5C 361.505,268.473 361.338,270.473 361.5,272.5C 357.655,270.869 353.988,271.202 350.5,273.5C 349.501,263.188 349.168,252.855 349.5,242.5C 350.302,243.952 350.802,245.618 351,247.5C 353.109,248.035 353.609,249.035 352.5,250.5C 354.836,251.712 357.003,251.379 359,249.5C 360.091,251.346 361.424,252.013 363,251.5C 365.007,247.814 366.007,243.814 366,239.5C 366.5,222.837 366.667,206.17 366.5,189.5C 366.5,188.833 366.5,188.167 366.5,187.5C 366.453,183.196 364.619,179.863 361,177.5C 360.667,177.833 360.333,178.167 360,178.5C 359.209,177.255 358.709,175.922 358.5,174.5 Z"/></g>
<g><path style="opacity:1" fill="#04a2de" d="M 383.5,257.5 C 385.225,259.702 387.391,260.035 390,258.5C 394.167,259.664 398.334,260.664 402.5,261.5C 403.404,262.209 403.737,263.209 403.5,264.5C 403.5,266.833 403.5,269.167 403.5,271.5C 402.778,271.082 402.278,270.416 402,269.5C 401.667,269.833 401.333,270.167 401,270.5C 400.517,269.552 400.351,268.552 400.5,267.5C 399.178,267.33 398.011,267.663 397,268.5C 392.538,265.257 388.038,264.923 383.5,267.5C 383.5,265.167 383.5,262.833 383.5,260.5C 383.5,259.5 383.5,258.5 383.5,257.5 Z"/></g>
<g><path style="opacity:0.722" fill="#289e9c" d="M 447.5,262.5 C 438.676,263.33 429.676,263.83 420.5,264C 420.043,264.414 419.709,264.914 419.5,265.5C 426.655,266.167 433.655,266.833 440.5,267.5C 433.159,267.666 425.826,267.5 418.5,267C 417.167,265.667 417.167,264.333 418.5,263C 428.161,262.5 437.828,262.334 447.5,262.5 Z"/></g>
<g><path style="opacity:1" fill="#0193e8" d="M 117.5,266.5 C 117.5,268.833 117.5,271.167 117.5,273.5C 116.069,272.22 115.402,270.553 115.5,268.5C 110.188,269.18 105.354,269.18 101,268.5C 100.292,269.381 99.4584,270.047 98.5,270.5C 98.2606,268.533 98.5939,266.699 99.5,265C 103.85,264.632 108.183,264.132 112.5,263.5C 114.693,263.771 116.359,264.771 117.5,266.5 Z"/></g>
<g><path style="opacity:1" fill="#12bea3" d="M 150.5,169.5 C 148.5,171.5 146.5,173.5 144.5,175.5C 140.987,176.51 138.153,178.51 136,181.5C 134.649,187.072 134.149,192.738 134.5,198.5C 134.333,214.503 134.5,230.503 135,246.5C 135.193,251.75 135.693,256.917 136.5,262C 136.167,262.333 135.833,262.667 135.5,263C 136.325,264.688 137.325,264.855 138.5,263.5C 139.167,264.5 139.833,265.5 140.5,266.5C 141.192,265.975 141.692,265.308 142,264.5C 142.741,265.641 143.575,265.641 144.5,264.5C 145.833,265.5 147.167,266.5 148.5,267.5C 149.308,267.192 149.975,266.692 150.5,266C 149.665,262.437 150.165,258.937 152,255.5C 151.865,248.095 152.698,241.095 154.5,234.5C 154.5,242.5 154.5,250.5 154.5,258.5C 153.252,259.334 152.585,260.667 152.5,262.5C 151.978,270.524 150.811,278.191 149,285.5C 143.646,291.488 140.479,290.488 139.5,282.5C 138.5,282.5 137.5,282.5 136.5,282.5C 135.14,270.726 134.14,259.06 133.5,247.5C 133.333,225.831 133.5,204.164 134,182.5C 138.444,176.857 143.944,172.524 150.5,169.5 Z"/></g>
<g><path style="opacity:0.797" fill="#12baaf" d="M 447.5,262.5 C 451.109,263.182 451.775,264.682 449.5,267C 446.518,267.498 443.518,267.665 440.5,267.5C 433.655,266.833 426.655,266.167 419.5,265.5C 419.709,264.914 420.043,264.414 420.5,264C 429.676,263.83 438.676,263.33 447.5,262.5 Z"/></g>
<g><path style="opacity:0.143" fill="#26b2a8" d="M 51.5,262.5 C 61.015,263.692 70.515,263.692 80,262.5C 82.1566,263.385 82.9899,265.052 82.5,267.5C 72.1613,267.666 61.828,267.5 51.5,267C 50.2721,265.51 50.2721,264.01 51.5,262.5 Z"/></g>
<g><path style="opacity:0.584" fill="#2ac29f" d="M 263.5,269.5 C 259.948,273.864 255.448,276.864 250,278.5C 244.3,275.827 238.8,272.661 233.5,269C 228.552,266.35 224.385,267.184 221,271.5C 220.371,275.871 220.537,280.204 221.5,284.5C 218.166,280.297 217.666,275.63 220,270.5C 223.527,265.528 228.027,264.362 233.5,267C 239.01,270.515 244.51,274.015 250,277.5C 254.457,274.691 258.957,272.024 263.5,269.5 Z"/></g>
<g><path style="opacity:1" fill="#0885e6" d="M 117.5,273.5 C 117.5,275.5 117.5,277.5 117.5,279.5C 117.167,279.5 116.833,279.5 116.5,279.5C 116.896,273.306 115.063,271.973 111,275.5C 107.843,270.315 104.843,270.315 102,275.5C 101.333,274.167 100.667,274.167 100,275.5C 99.6667,274.833 99.3333,274.167 99,273.5C 98.5045,275.473 98.3379,277.473 98.5,279.5C 98.8064,282.385 98.4731,285.052 97.5,287.5C 97.5,282.167 97.5,276.833 97.5,271.5C 98.1667,271.5 98.5,271.167 98.5,270.5C 99.4584,270.047 100.292,269.381 101,268.5C 105.354,269.18 110.188,269.18 115.5,268.5C 115.402,270.553 116.069,272.22 117.5,273.5 Z"/></g>
<g><path style="opacity:1" fill="#088cde" d="M 403.5,271.5 C 403.5,278.833 403.5,286.167 403.5,293.5C 402.549,292.081 402.216,290.415 402.5,288.5C 402.5,286.833 402.5,285.167 402.5,283.5C 402.664,280.813 402.497,278.146 402,275.5C 401.586,275.957 401.086,276.291 400.5,276.5C 399.571,275.311 399.238,273.978 399.5,272.5C 397.856,272.286 396.356,272.62 395,273.5C 392.577,272.288 390.244,270.954 388,269.5C 386.989,270.337 385.822,270.67 384.5,270.5C 384.795,272.735 384.461,274.735 383.5,276.5C 383.5,273.5 383.5,270.5 383.5,267.5C 388.038,264.923 392.538,265.257 397,268.5C 398.011,267.663 399.178,267.33 400.5,267.5C 400.351,268.552 400.517,269.552 401,270.5C 401.333,270.167 401.667,269.833 402,269.5C 402.278,270.416 402.778,271.082 403.5,271.5 Z"/></g>
<g><path style="opacity:1" fill="#02e5a9" d="M 263.5,269.5 C 275.619,265.446 280.452,269.78 278,282.5C 275.157,285.593 271.657,287.593 267.5,288.5C 268.444,290.137 267.777,291.137 265.5,291.5C 260.725,293.561 255.725,294.894 250.5,295.5C 250.5,296.5 250.5,297.5 250.5,298.5C 249.167,298.5 247.833,298.5 246.5,298.5C 245.801,296.005 244.801,293.672 243.5,291.5C 241.278,291.822 239.444,291.155 238,289.5C 236.771,291.947 235.271,292.113 233.5,290C 233.957,289.586 234.291,289.086 234.5,288.5C 229.879,287.897 225.546,286.564 221.5,284.5C 220.537,280.204 220.371,275.871 221,271.5C 224.385,267.184 228.552,266.35 233.5,269C 238.8,272.661 244.3,275.827 250,278.5C 255.448,276.864 259.948,273.864 263.5,269.5 Z"/></g>
<g><path style="opacity:0.753" fill="#1fb1a7" d="M 418.5,271.5 C 424.509,271.334 430.509,271.501 436.5,272C 437.833,273.333 437.833,274.667 436.5,276C 430.5,276.667 424.5,276.667 418.5,276C 417.272,274.51 417.272,273.01 418.5,271.5 Z"/></g>
<g><path style="opacity:0.906" fill="#26b19e" d="M 79.5,271.5 C 82.128,272.255 82.7946,273.755 81.5,276C 76.1667,276.667 70.8333,276.667 65.5,276C 64.8333,275.333 64.1667,274.667 63.5,274C 68.841,272.882 74.1743,272.048 79.5,271.5 Z"/></g>
<g><path style="opacity:1" fill="#0181ef" d="M 116.5,279.5 C 115.406,278.418 114.073,277.752 112.5,277.5C 107.697,277.587 103.03,278.254 98.5,279.5C 98.3379,277.473 98.5045,275.473 99,273.5C 99.3333,274.167 99.6667,274.833 100,275.5C 100.667,274.167 101.333,274.167 102,275.5C 104.843,270.315 107.843,270.315 111,275.5C 115.063,271.973 116.896,273.306 116.5,279.5 Z"/></g>
<g><path style="opacity:1" fill="#29c59e" d="M 263.5,294.5 C 263.782,293.222 264.449,292.222 265.5,291.5C 267.777,291.137 268.444,290.137 267.5,288.5C 271.657,287.593 275.157,285.593 278,282.5C 280.452,269.78 275.619,265.446 263.5,269.5C 268.507,264.349 273.673,264.349 279,269.5C 281.185,274.987 280.851,280.32 278,285.5C 273.362,288.898 268.529,291.898 263.5,294.5 Z"/></g>
<g><path style="opacity:1" fill="#0eb79e" d="M 360.5,186.5 C 361.239,186.369 361.906,186.536 362.5,187C 358.642,190.197 354.809,193.363 351,196.5C 350.39,199.827 349.89,203.161 349.5,206.5C 349.5,218.5 349.5,230.5 349.5,242.5C 349.168,252.855 349.501,263.188 350.5,273.5C 353.988,271.202 357.655,270.869 361.5,272.5C 361.338,270.473 361.505,268.473 362,266.5C 362.333,267.167 362.667,267.833 363,268.5C 363.538,265.655 364.538,262.988 366,260.5C 366.174,255.316 366.674,250.316 367.5,245.5C 367.374,255.849 366.874,266.182 366,276.5C 364.242,277.469 363.742,278.636 364.5,280C 363.874,280.75 363.374,281.584 363,282.5C 362.667,282.167 362.333,281.833 362,281.5C 361.581,285.852 360.914,286.185 360,282.5C 359.282,283.451 358.449,283.617 357.5,283C 357.07,282.08 356.736,281.247 356.5,280.5C 354.164,282.118 354.164,283.952 356.5,286C 355.207,286.49 353.873,286.657 352.5,286.5C 350.848,282.704 349.681,278.704 349,274.5C 348.83,265.324 348.33,256.324 347.5,247.5C 347.073,230.452 347.573,213.452 349,196.5C 349.465,195.069 350.299,193.903 351.5,193C 354.938,191.389 357.938,189.223 360.5,186.5 Z"/></g>
<g><path style="opacity:1" fill="#0285ea" d="M 402.5,283.5 C 400.822,281.332 398.822,280.998 396.5,282.5C 394.167,281.833 391.833,281.167 389.5,280.5C 385.667,281.23 384,283.563 384.5,287.5C 384.167,287.5 383.833,287.5 383.5,287.5C 383.5,283.833 383.5,280.167 383.5,276.5C 384.461,274.735 384.795,272.735 384.5,270.5C 385.822,270.67 386.989,270.337 388,269.5C 390.244,270.954 392.577,272.288 395,273.5C 396.356,272.62 397.856,272.286 399.5,272.5C 399.238,273.978 399.571,275.311 400.5,276.5C 401.086,276.291 401.586,275.957 402,275.5C 402.497,278.146 402.664,280.813 402.5,283.5 Z"/></g>
<g><path style="opacity:1" fill="#1aa591" d="M 368.5,230.5 C 368.667,253.169 368.5,275.836 368,298.5C 367.055,303.278 364.222,306.278 359.5,307.5C 361.604,305.901 363.604,304.068 365.5,302C 364.975,301.308 364.308,300.808 363.5,300.5C 356.626,305.728 349.293,310.062 341.5,313.5C 347.928,308.775 354.595,304.275 361.5,300C 362.554,298.612 362.72,297.112 362,295.5C 356.638,291.836 351.971,287.502 348,282.5C 347.5,270.838 347.333,259.171 347.5,247.5C 348.33,256.324 348.83,265.324 349,274.5C 349.681,278.704 350.848,282.704 352.5,286.5C 353.873,286.657 355.207,286.49 356.5,286C 354.164,283.952 354.164,282.118 356.5,280.5C 356.736,281.247 357.07,282.08 357.5,283C 358.449,283.617 359.282,283.451 360,282.5C 360.914,286.185 361.581,285.852 362,281.5C 362.333,281.833 362.667,282.167 363,282.5C 363.374,281.584 363.874,280.75 364.5,280C 363.742,278.636 364.242,277.469 366,276.5C 366.874,266.182 367.374,255.849 367.5,245.5C 367.179,240.305 367.513,235.305 368.5,230.5 Z"/></g>
<g><path style="opacity:1" fill="#0176f1" d="M 402.5,283.5 C 402.5,285.167 402.5,286.833 402.5,288.5C 396.591,287.545 390.591,287.211 384.5,287.5C 384,283.563 385.667,281.23 389.5,280.5C 391.833,281.167 394.167,281.833 396.5,282.5C 398.822,280.998 400.822,281.332 402.5,283.5 Z"/></g>
<g><path style="opacity:1" fill="#076cee" d="M 116.5,279.5 C 116.833,279.5 117.167,279.5 117.5,279.5C 117.5,282.167 117.5,284.833 117.5,287.5C 115.278,287.178 113.444,287.845 112,289.5C 110.225,286.956 108.392,286.956 106.5,289.5C 105.086,288.376 103.586,287.376 102,286.5C 101,288.167 100,289.833 99,291.5C 98.5003,298.826 98.3337,306.159 98.5,313.5C 97.507,305.016 97.1736,296.349 97.5,287.5C 98.4731,285.052 98.8064,282.385 98.5,279.5C 103.03,278.254 107.697,277.587 112.5,277.5C 114.073,277.752 115.406,278.418 116.5,279.5 Z"/></g>
<g><path style="opacity:0.763" fill="#29629b" d="M 117.5,265.5 C 119.008,280.64 119.841,295.973 120,311.5C 120.383,310.944 120.883,310.611 121.5,310.5C 121.433,311.959 121.766,313.292 122.5,314.5C 120.744,315.552 120.077,317.219 120.5,319.5C 119.131,317.309 118.131,314.975 117.5,312.5C 117.5,304.167 117.5,295.833 117.5,287.5C 117.5,284.833 117.5,282.167 117.5,279.5C 117.5,277.5 117.5,275.5 117.5,273.5C 117.5,271.167 117.5,268.833 117.5,266.5C 117.5,266.167 117.5,265.833 117.5,265.5 Z"/></g>
<g><path style="opacity:0.345" fill="#1c5674" d="M 117.5,259.5 C 118.022,261.219 119.022,262.552 120.5,263.5C 120.247,279.191 120.58,294.858 121.5,310.5C 120.883,310.611 120.383,310.944 120,311.5C 119.841,295.973 119.008,280.64 117.5,265.5C 117.5,263.5 117.5,261.5 117.5,259.5 Z"/></g>
<g><path style="opacity:1" fill="#0566eb" d="M 383.5,287.5 C 383.833,287.5 384.167,287.5 384.5,287.5C 390.591,287.211 396.591,287.545 402.5,288.5C 402.216,290.415 402.549,292.081 403.5,293.5C 403.5,301.5 403.5,309.5 403.5,317.5C 402.549,316.081 402.216,314.415 402.5,312.5C 402.717,306.768 402.217,301.101 401,295.5C 398.841,294.803 396.674,295.137 394.5,296.5C 392.969,293.635 390.803,291.302 388,289.5C 387.51,290.793 387.343,292.127 387.5,293.5C 386.5,293.5 385.5,293.5 384.5,293.5C 384.5,298.167 384.5,302.833 384.5,307.5C 384.784,309.415 384.451,311.081 383.5,312.5C 383.5,304.167 383.5,295.833 383.5,287.5 Z"/></g>
<g><path style="opacity:1" fill="#17a693" d="M 133.5,247.5 C 134.14,259.06 135.14,270.726 136.5,282.5C 137.5,282.5 138.5,282.5 139.5,282.5C 140.479,290.488 143.646,291.488 149,285.5C 150.811,278.191 151.978,270.524 152.5,262.5C 152.585,260.667 153.252,259.334 154.5,258.5C 154.684,266.875 154.184,275.208 153,283.5C 152.215,285.286 151.049,286.786 149.5,288C 145.385,290.448 141.552,293.281 138,296.5C 137.333,297.833 137.333,299.167 138,300.5C 139.667,301.733 141.167,303.067 142.5,304.5C 140.243,304.038 138.243,303.038 136.5,301.5C 136.24,302.905 135.907,304.238 135.5,305.5C 134.229,303.891 133.229,302.058 132.5,300C 133.459,282.853 133.793,265.353 133.5,247.5 Z"/></g>
<g><path style="opacity:1" fill="#055ef2" d="M 117.5,287.5 C 117.5,295.833 117.5,304.167 117.5,312.5C 116.566,311.432 116.232,310.099 116.5,308.5C 116.5,303.833 116.5,299.167 116.5,294.5C 111.595,296.414 106.595,297.414 101.5,297.5C 100.322,300.391 99.6553,303.391 99.5,306.5C 100.084,311.499 100.251,316.499 100,321.5C 99.6174,322.056 99.1174,322.389 98.5,322.5C 98.5,319.5 98.5,316.5 98.5,313.5C 98.3337,306.159 98.5003,298.826 99,291.5C 100,289.833 101,288.167 102,286.5C 103.586,287.376 105.086,288.376 106.5,289.5C 108.392,286.956 110.225,286.956 112,289.5C 113.444,287.845 115.278,287.178 117.5,287.5 Z"/></g>
<g><path style="opacity:1" fill="#145b7f" d="M 383.5,260.5 C 383.5,262.833 383.5,265.167 383.5,267.5C 383.5,270.5 383.5,273.5 383.5,276.5C 383.5,280.167 383.5,283.833 383.5,287.5C 383.5,295.833 383.5,304.167 383.5,312.5C 383.672,313.492 383.338,314.158 382.5,314.5C 381.833,314.5 381.167,314.5 380.5,314.5C 380.158,313.662 379.492,313.328 378.5,313.5C 380.215,297.938 380.881,282.271 380.5,266.5C 381.29,267.609 381.79,268.942 382,270.5C 382.179,266.975 382.679,263.641 383.5,260.5 Z"/></g>
<g><path style="opacity:1" fill="#17d9a6" d="M 221.5,284.5 C 225.546,286.564 229.879,287.897 234.5,288.5C 234.291,289.086 233.957,289.586 233.5,290C 235.271,292.113 236.771,291.947 238,289.5C 239.444,291.155 241.278,291.822 243.5,291.5C 244.801,293.672 245.801,296.005 246.5,298.5C 247.833,298.5 249.167,298.5 250.5,298.5C 250.5,297.5 250.5,296.5 250.5,295.5C 255.725,294.894 260.725,293.561 265.5,291.5C 264.449,292.222 263.782,293.222 263.5,294.5C 258.919,299.455 253.253,301.622 246.5,301C 239.833,297 233.167,293 226.5,289C 224.382,287.951 222.716,286.451 221.5,284.5 Z"/></g>
<g><path style="opacity:0.91" fill="#28ab95" d="M 60.5,296.5 C 63.2723,296.595 65.2723,297.929 66.5,300.5C 64.472,302.641 61.972,303.974 59,304.5C 58.3076,303.975 57.8076,303.308 57.5,302.5C 58.5133,300.473 59.5133,298.473 60.5,296.5 Z"/></g>
<g><path style="opacity:1" fill="#0155fb" d="M 116.5,308.5 C 115.21,307.942 114.377,306.942 114,305.5C 113.957,308.217 112.957,308.884 111,307.5C 110.055,307.905 109.388,308.572 109,309.5C 107.103,307.984 104.936,307.317 102.5,307.5C 102.81,302.548 101.81,302.214 99.5,306.5C 99.6553,303.391 100.322,300.391 101.5,297.5C 106.595,297.414 111.595,296.414 116.5,294.5C 116.5,299.167 116.5,303.833 116.5,308.5 Z"/></g>
<g><path style="opacity:0.788" fill="#26a796" d="M 442.5,296.5 C 443.496,296.414 444.329,296.748 445,297.5C 446.632,299.96 446.632,302.293 445,304.5C 442.398,303.523 439.898,302.356 437.5,301C 439.24,299.483 440.906,297.983 442.5,296.5 Z"/></g>
<g><path style="opacity:1" fill="#025ef5" d="M 402.5,312.5 C 401.539,310.735 401.205,308.735 401.5,306.5C 401.196,303.478 400.696,300.478 400,297.5C 396.241,298.49 392.407,299.323 388.5,300C 387.887,302.147 387.221,304.314 386.5,306.5C 385.817,306.863 385.15,307.196 384.5,307.5C 384.5,302.833 384.5,298.167 384.5,293.5C 385.5,293.5 386.5,293.5 387.5,293.5C 387.343,292.127 387.51,290.793 388,289.5C 390.803,291.302 392.969,293.635 394.5,296.5C 396.674,295.137 398.841,294.803 401,295.5C 402.217,301.101 402.717,306.768 402.5,312.5 Z"/></g>
<g><path style="opacity:1" fill="#0155fb" d="M 401.5,306.5 C 398.684,308.68 395.518,310.346 392,311.5C 390.395,310.899 389.062,309.899 388,308.5C 386.368,311.473 384.535,314.14 382.5,316.5C 382.5,315.833 382.5,315.167 382.5,314.5C 383.338,314.158 383.672,313.492 383.5,312.5C 384.451,311.081 384.784,309.415 384.5,307.5C 385.15,307.196 385.817,306.863 386.5,306.5C 387.221,304.314 387.887,302.147 388.5,300C 392.407,299.323 396.241,298.49 400,297.5C 400.696,300.478 401.196,303.478 401.5,306.5 Z"/></g>
<g><path style="opacity:1" fill="#1bccac" d="M 142.5,304.5 C 155.278,312.061 167.945,319.894 180.5,328C 181.448,328.483 182.448,328.649 183.5,328.5C 184.933,330.558 185.6,332.892 185.5,335.5C 183.436,335.313 181.436,334.813 179.5,334C 164.598,324.725 149.931,315.225 135.5,305.5C 135.907,304.238 136.24,302.905 136.5,301.5C 138.243,303.038 140.243,304.038 142.5,304.5 Z"/></g>
<g><path style="opacity:1" fill="#16dfb7" d="M 359.5,307.5 C 355.024,311.575 350.024,314.908 344.5,317.5C 342.243,317.962 340.243,318.962 338.5,320.5C 337.417,319.635 337.251,318.635 338,317.5C 339.376,316.295 340.542,314.962 341.5,313.5C 349.293,310.062 356.626,305.728 363.5,300.5C 364.308,300.808 364.975,301.308 365.5,302C 363.604,304.068 361.604,305.901 359.5,307.5 Z"/></g>
<g><path style="opacity:1" fill="#97a6d9" d="M 380.5,314.5 C 381.167,314.5 381.833,314.5 382.5,314.5C 382.5,315.167 382.5,315.833 382.5,316.5C 381.396,319.81 379.729,322.81 377.5,325.5C 378.223,321.732 379.223,318.065 380.5,314.5 Z"/></g>
<g><path style="opacity:1" fill="#26bea6" d="M 341.5,313.5 C 340.542,314.962 339.376,316.295 338,317.5C 337.251,318.635 337.417,319.635 338.5,320.5C 340.243,318.962 342.243,317.962 344.5,317.5C 340.465,320.857 336.132,323.857 331.5,326.5C 332.932,324.562 334.599,322.729 336.5,321C 336.167,320.5 335.833,320 335.5,319.5C 328.456,323.349 321.789,327.682 315.5,332.5C 317.045,333.452 318.712,333.785 320.5,333.5C 318.786,334.738 316.786,335.405 314.5,335.5C 314.325,333.379 314.659,331.379 315.5,329.5C 324.431,324.563 333.098,319.23 341.5,313.5 Z"/></g>
<g><path style="opacity:0.365" fill="#d5dae2" d="M 378.5,313.5 C 379.492,313.328 380.158,313.662 380.5,314.5C 379.223,318.065 378.223,321.732 377.5,325.5C 374.833,327.833 372.167,330.167 369.5,332.5C 362.967,335.381 356.967,339.047 351.5,343.5C 348.55,344.308 345.883,345.642 343.5,347.5C 341.309,348.291 339.309,348.291 337.5,347.5C 349.149,340.193 360.816,332.86 372.5,325.5C 376.107,322.287 378.107,318.287 378.5,313.5 Z"/></g>
<g><path style="opacity:1" fill="#0343f8" d="M 116.5,308.5 C 116.232,310.099 116.566,311.432 117.5,312.5C 117.336,315.187 117.503,317.854 118,320.5C 119.61,322.597 120.777,324.93 121.5,327.5C 123.302,328.986 125.302,329.986 127.5,330.5C 127.5,331.833 127.5,333.167 127.5,334.5C 130.206,334.575 132.873,334.908 135.5,335.5C 141.17,338.838 146.836,342.171 152.5,345.5C 154.259,347.478 155.925,349.644 157.5,352C 155.74,352.965 155.406,354.132 156.5,355.5C 159.795,354.551 163.128,354.551 166.5,355.5C 165.835,358.888 166.835,359.888 169.5,358.5C 173.821,358.83 176.154,361.163 176.5,365.5C 177.216,364.689 178.05,364.022 179,363.5C 180.44,364.148 181.94,364.481 183.5,364.5C 191.369,368.93 199.036,373.597 206.5,378.5C 203.538,377.939 200.705,376.939 198,375.5C 195.775,377.278 193.275,377.778 190.5,377C 191.833,376.333 192.833,375.333 193.5,374C 192.027,373.29 191.36,372.124 191.5,370.5C 188.91,369.748 186.41,368.748 184,367.5C 181.175,367.973 180.842,369.306 183,371.5C 183.333,371.167 183.667,370.833 184,370.5C 186.258,372.43 188.758,373.93 191.5,375C 189.833,375.667 188.167,375.667 186.5,375C 184.933,373.924 183.266,373.091 181.5,372.5C 179.675,373.651 177.675,374.318 175.5,374.5C 175.719,373.325 175.386,372.325 174.5,371.5C 173.571,372.689 173.238,374.022 173.5,375.5C 178.683,375.408 182.016,377.742 183.5,382.5C 181.167,381.833 178.833,381.167 176.5,380.5C 174.87,378.339 173.203,376.172 171.5,374C 168.326,373.161 165.659,371.495 163.5,369C 159.253,367.028 154.919,365.528 150.5,364.5C 150.179,362.952 149.179,362.285 147.5,362.5C 147.5,361.5 147.5,360.5 147.5,359.5C 143.92,356.555 139.92,354.055 135.5,352C 132.883,351.178 130.216,350.678 127.5,350.5C 127.22,346.887 125.22,344.887 121.5,344.5C 119.727,341.94 117.727,339.607 115.5,337.5C 114.5,338.167 113.5,338.833 112.5,339.5C 111.707,336.874 110.04,335.04 107.5,334C 107.833,333.667 108.167,333.333 108.5,333C 106.655,331.577 104.655,330.41 102.5,329.5C 101.864,327.22 100.864,325.22 99.5,323.5C 98.8333,323.5 98.5,323.167 98.5,322.5C 99.1174,322.389 99.6174,322.056 100,321.5C 100.251,316.499 100.084,311.499 99.5,306.5C 101.81,302.214 102.81,302.548 102.5,307.5C 104.936,307.317 107.103,307.984 109,309.5C 109.388,308.572 110.055,307.905 111,307.5C 112.957,308.884 113.957,308.217 114,305.5C 114.377,306.942 115.21,307.942 116.5,308.5 Z"/></g>
<g><path style="opacity:1" fill="#2a4cdb" d="M 117.5,312.5 C 118.131,314.975 119.131,317.309 120.5,319.5C 121.128,322.09 122.295,324.423 124,326.5C 127.733,329.745 131.566,332.745 135.5,335.5C 132.873,334.908 130.206,334.575 127.5,334.5C 127.5,333.167 127.5,331.833 127.5,330.5C 125.302,329.986 123.302,328.986 121.5,327.5C 120.777,324.93 119.61,322.597 118,320.5C 117.503,317.854 117.336,315.187 117.5,312.5 Z"/></g>
<g><path style="opacity:0.918" fill="#173eba" d="M 403.5,319.5 C 402.564,323.309 401.23,326.975 399.5,330.5C 398.876,330.083 398.543,329.416 398.5,328.5C 400.064,325.694 400.73,322.694 400.5,319.5C 401.5,319.5 402.5,319.5 403.5,319.5 Z"/></g>
<g><path style="opacity:1" fill="#1bd6b3" d="M 331.5,326.5 C 328.093,329.24 324.426,331.574 320.5,333.5C 318.712,333.785 317.045,333.452 315.5,332.5C 321.789,327.682 328.456,323.349 335.5,319.5C 335.833,320 336.167,320.5 336.5,321C 334.599,322.729 332.932,324.562 331.5,326.5 Z"/></g>
<g><path style="opacity:1" fill="#0c3dd1" d="M 99.5,323.5 C 100.864,325.22 101.864,327.22 102.5,329.5C 104.655,330.41 106.655,331.577 108.5,333C 108.167,333.333 107.833,333.667 107.5,334C 110.04,335.04 111.707,336.874 112.5,339.5C 113.5,338.833 114.5,338.167 115.5,337.5C 117.727,339.607 119.727,341.94 121.5,344.5C 125.22,344.887 127.22,346.887 127.5,350.5C 117.465,346.232 108.965,339.899 102,331.5C 100.659,328.978 99.8257,326.311 99.5,323.5 Z"/></g>
<g><path style="opacity:1" fill="#254add" d="M 382.5,316.5 C 382.001,320.49 381.501,324.49 381,328.5C 377.789,327.345 375.289,328.345 373.5,331.5C 372.311,332.429 370.978,332.762 369.5,332.5C 372.167,330.167 374.833,327.833 377.5,325.5C 379.729,322.81 381.396,319.81 382.5,316.5 Z"/></g>
<g><path style="opacity:0.631" fill="#cdcedc" d="M 122.5,314.5 C 123.312,318.957 125.312,322.79 128.5,326C 144.006,335.363 159.339,344.863 174.5,354.5C 172.549,355.641 170.549,355.641 168.5,354.5C 167.432,352.26 165.766,350.426 163.5,349C 160.423,347.086 157.089,345.919 153.5,345.5C 153.167,345.5 152.833,345.5 152.5,345.5C 146.836,342.171 141.17,338.838 135.5,335.5C 131.566,332.745 127.733,329.745 124,326.5C 122.295,324.423 121.128,322.09 120.5,319.5C 120.077,317.219 120.744,315.552 122.5,314.5 Z"/></g>
<g><path style="opacity:1" fill="#0f6171" d="M 233.5,345.5 C 232.261,346.212 231.761,347.212 232,348.5C 233.699,349.406 235.533,349.739 237.5,349.5C 237.806,353.354 236.306,354.687 233,353.5C 231.049,353.888 229.549,354.888 228.5,356.5C 231.709,357.787 234.875,357.787 238,356.5C 238.87,357.108 239.37,357.941 239.5,359C 238.491,360.168 237.491,361.335 236.5,362.5C 237.403,364.62 238.737,364.954 240.5,363.5C 241.806,362.088 242.64,360.421 243,358.5C 244.716,359.552 245.716,358.886 246,356.5C 246.388,357.428 247.055,358.095 248,358.5C 251.157,357.798 254.157,356.798 257,355.5C 260.106,355.915 260.272,356.915 257.5,358.5C 259.851,360.759 259.185,362.259 255.5,363C 256.966,363.635 258.3,364.469 259.5,365.5C 260.696,365.154 260.696,364.654 259.5,364C 261.55,362.668 263.55,362.502 265.5,363.5C 259.26,369.043 251.927,370.877 243.5,369C 236.167,365 228.833,361 221.5,357C 210.75,350.207 200.25,343.041 190,335.5C 189.517,336.448 189.351,337.448 189.5,338.5C 188.363,337.211 187.03,336.211 185.5,335.5C 185.6,332.892 184.933,330.558 183.5,328.5C 184.471,326.517 185.471,324.517 186.5,322.5C 187.265,322.923 188.098,323.257 189,323.5C 190.895,321.818 193.062,321.318 195.5,322C 208.362,329.594 221.029,337.427 233.5,345.5 Z"/></g>
<g><path style="opacity:0.149" fill="#1835a7" d="M 397.5,333.5 C 395.761,336.243 393.427,338.243 390.5,339.5C 391.974,336.751 393.974,334.418 396.5,332.5C 397.107,332.624 397.44,332.957 397.5,333.5 Z"/></g>
<g><path style="opacity:1" fill="#2144e3" d="M 369.5,332.5 C 369.096,333.756 368.429,334.923 367.5,336C 368.167,337 368.833,338 369.5,339C 369.167,339.5 368.833,340 368.5,340.5C 367.532,339.511 366.365,338.844 365,338.5C 360.545,340.312 356.045,341.978 351.5,343.5C 356.967,339.047 362.967,335.381 369.5,332.5 Z"/></g>
<g><path style="opacity:1" fill="#e1e7ec" d="M 313.5,323.5 C 312.778,323.918 312.278,324.584 312,325.5C 309.091,322.606 305.591,321.773 301.5,323C 286.467,332.849 271.134,342.182 255.5,351C 251.5,351.667 247.5,351.667 243.5,351C 240.011,349.423 236.677,347.589 233.5,345.5C 221.029,337.427 208.362,329.594 195.5,322C 193.062,321.318 190.895,321.818 189,323.5C 188.098,323.257 187.265,322.923 186.5,322.5C 189.599,318.76 193.599,317.593 198.5,319C 213.167,328.333 227.833,337.667 242.5,347C 248.015,349.238 253.349,348.905 258.5,346C 272.902,336.603 287.569,327.603 302.5,319C 307.227,318.072 310.894,319.572 313.5,323.5 Z"/></g>
<g><path style="opacity:1" fill="#0d36ba" d="M 390.5,339.5 C 384.524,344.826 377.857,349.159 370.5,352.5C 370.937,350.926 371.937,349.759 373.5,349C 378.028,347.636 381.028,344.802 382.5,340.5C 385.237,340.599 387.904,340.265 390.5,339.5 Z"/></g>
<g><path style="opacity:1" fill="#116470" d="M 313.5,323.5 C 314.73,325.297 315.396,327.297 315.5,329.5C 314.659,331.379 314.325,333.379 314.5,335.5C 313.833,335.5 313.167,335.5 312.5,335.5C 312.649,334.448 312.483,333.448 312,332.5C 311.215,334.286 310.049,335.786 308.5,337C 294.478,346.344 280.145,355.177 265.5,363.5C 263.55,362.502 261.55,362.668 259.5,364C 260.696,364.654 260.696,365.154 259.5,365.5C 258.3,364.469 256.966,363.635 255.5,363C 259.185,362.259 259.851,360.759 257.5,358.5C 260.272,356.915 260.106,355.915 257,355.5C 254.157,356.798 251.157,357.798 248,358.5C 247.055,358.095 246.388,357.428 246,356.5C 245.716,358.886 244.716,359.552 243,358.5C 242.64,360.421 241.806,362.088 240.5,363.5C 238.737,364.954 237.403,364.62 236.5,362.5C 237.491,361.335 238.491,360.168 239.5,359C 239.37,357.941 238.87,357.108 238,356.5C 234.875,357.787 231.709,357.787 228.5,356.5C 229.549,354.888 231.049,353.888 233,353.5C 236.306,354.687 237.806,353.354 237.5,349.5C 235.533,349.739 233.699,349.406 232,348.5C 231.761,347.212 232.261,346.212 233.5,345.5C 236.677,347.589 240.011,349.423 243.5,351C 247.5,351.667 251.5,351.667 255.5,351C 271.134,342.182 286.467,332.849 301.5,323C 305.591,321.773 309.091,322.606 312,325.5C 312.278,324.584 312.778,323.918 313.5,323.5 Z"/></g>
<g><path style="opacity:0.843" fill="#0b3444" d="M 312.5,335.5 C 311.375,337.129 310.041,338.629 308.5,340C 291.667,350.585 274.667,360.918 257.5,371C 251.412,372.878 245.412,372.545 239.5,370C 222.416,360.066 205.749,349.566 189.5,338.5C 189.351,337.448 189.517,336.448 190,335.5C 200.25,343.041 210.75,350.207 221.5,357C 228.833,361 236.167,365 243.5,369C 251.927,370.877 259.26,369.043 265.5,363.5C 280.145,355.177 294.478,346.344 308.5,337C 310.049,335.786 311.215,334.286 312,332.5C 312.483,333.448 312.649,334.448 312.5,335.5 Z"/></g>
<g><path style="opacity:1" fill="#0544f7" d="M 401.5,306.5 C 401.205,308.735 401.539,310.735 402.5,312.5C 402.216,314.415 402.549,316.081 403.5,317.5C 403.5,318.167 403.5,318.833 403.5,319.5C 402.5,319.5 401.5,319.5 400.5,319.5C 400.73,322.694 400.064,325.694 398.5,328.5C 398.543,329.416 398.876,330.083 399.5,330.5C 399.068,331.71 398.401,332.71 397.5,333.5C 397.44,332.957 397.107,332.624 396.5,332.5C 393.974,334.418 391.974,336.751 390.5,339.5C 387.904,340.265 385.237,340.599 382.5,340.5C 381.028,344.802 378.028,347.636 373.5,349C 371.937,349.759 370.937,350.926 370.5,352.5C 369.71,353.401 368.71,354.068 367.5,354.5C 362.988,355.046 358.655,356.046 354.5,357.5C 352.609,363.043 348.609,365.877 342.5,366C 340.963,367.11 340.297,368.61 340.5,370.5C 338.821,370.285 337.821,370.952 337.5,372.5C 335.236,373.219 332.903,373.552 330.5,373.5C 330.5,374.5 330.5,375.5 330.5,376.5C 327.406,376.597 324.74,377.597 322.5,379.5C 322.5,378.5 322.5,377.5 322.5,376.5C 319.873,377.092 317.206,377.425 314.5,377.5C 314.5,376.167 314.5,374.833 314.5,373.5C 315.822,373.33 316.989,373.663 318,374.5C 320.071,370.875 323.238,368.875 327.5,368.5C 325.807,367.772 324.307,366.772 323,365.5C 322.481,366.516 321.647,367.182 320.5,367.5C 319.151,367.154 317.817,366.821 316.5,366.5C 317.167,365.5 317.833,364.5 318.5,363.5C 327.039,358.402 335.373,353.069 343.5,347.5C 345.883,345.642 348.55,344.308 351.5,343.5C 356.045,341.978 360.545,340.312 365,338.5C 366.365,338.844 367.532,339.511 368.5,340.5C 368.833,340 369.167,339.5 369.5,339C 368.833,338 368.167,337 367.5,336C 368.429,334.923 369.096,333.756 369.5,332.5C 370.978,332.762 372.311,332.429 373.5,331.5C 375.289,328.345 377.789,327.345 381,328.5C 381.501,324.49 382.001,320.49 382.5,316.5C 384.535,314.14 386.368,311.473 388,308.5C 389.062,309.899 390.395,310.899 392,311.5C 395.518,310.346 398.684,308.68 401.5,306.5 Z"/></g>
<g><path style="opacity:1" fill="#b9bce6" d="M 153.5,345.5 C 157.089,345.919 160.423,347.086 163.5,349C 165.766,350.426 167.432,352.26 168.5,354.5C 163.233,351.89 158.233,348.89 153.5,345.5 Z"/></g>
<g><path style="opacity:1" fill="#c4c1d4" d="M 337.5,347.5 C 339.309,348.291 341.309,348.291 343.5,347.5C 335.373,353.069 327.039,358.402 318.5,363.5C 316.278,364.688 313.945,365.688 311.5,366.5C 306.032,369.115 300.698,372.115 295.5,375.5C 294.893,375.376 294.56,375.043 294.5,374.5C 308.565,365.108 322.898,356.108 337.5,347.5 Z"/></g>
<g><path style="opacity:1" fill="#093bcb" d="M 127.5,350.5 C 130.216,350.678 132.883,351.178 135.5,352C 139.92,354.055 143.92,356.555 147.5,359.5C 147.5,360.5 147.5,361.5 147.5,362.5C 149.179,362.285 150.179,362.952 150.5,364.5C 142.325,360.583 134.659,355.917 127.5,350.5 Z"/></g>
<g><path style="opacity:0.867" fill="#a9aed7" d="M 168.5,354.5 C 170.549,355.641 172.549,355.641 174.5,354.5C 175.167,354.5 175.5,354.833 175.5,355.5C 175.5,356.5 175.5,357.5 175.5,358.5C 177.619,358.468 178.952,359.468 179.5,361.5C 175.317,359.913 171.65,357.579 168.5,354.5 Z"/></g>
<g><path style="opacity:1" fill="#1647e4" d="M 152.5,345.5 C 152.833,345.5 153.167,345.5 153.5,345.5C 158.233,348.89 163.233,351.89 168.5,354.5C 171.65,357.579 175.317,359.913 179.5,361.5C 180.833,362.5 182.167,363.5 183.5,364.5C 181.94,364.481 180.44,364.148 179,363.5C 178.05,364.022 177.216,364.689 176.5,365.5C 176.154,361.163 173.821,358.83 169.5,358.5C 166.835,359.888 165.835,358.888 166.5,355.5C 163.128,354.551 159.795,354.551 156.5,355.5C 155.406,354.132 155.74,352.965 157.5,352C 155.925,349.644 154.259,347.478 152.5,345.5 Z"/></g>
<g><path style="opacity:0.922" fill="#0b3bc3" d="M 367.5,354.5 C 357.839,361 347.839,367 337.5,372.5C 337.821,370.952 338.821,370.285 340.5,370.5C 340.297,368.61 340.963,367.11 342.5,366C 348.609,365.877 352.609,363.043 354.5,357.5C 358.655,356.046 362.988,355.046 367.5,354.5 Z"/></g>
<g><path style="opacity:1" fill="#083dc7" d="M 150.5,364.5 C 154.919,365.528 159.253,367.028 163.5,369C 165.659,371.495 168.326,373.161 171.5,374C 173.203,376.172 174.87,378.339 176.5,380.5C 167.491,375.665 158.824,370.332 150.5,364.5 Z"/></g>
<g><path style="opacity:1" fill="#0242f9" d="M 206.5,378.5 C 207.167,378.833 207.833,379.167 208.5,379.5C 209.979,382.377 211.312,385.377 212.5,388.5C 214.865,389.085 216.865,390.252 218.5,392C 215.18,393.261 214.846,394.928 217.5,397C 219.473,397.495 221.473,397.662 223.5,397.5C 224.378,393.375 226.045,392.875 228.5,396C 232.168,396.948 235.835,397.781 239.5,398.5C 239.833,399.167 240.167,399.833 240.5,400.5C 237.66,400.102 234.993,399.269 232.5,398C 228.495,396.902 224.995,397.735 222,400.5C 221.51,401.793 221.343,403.127 221.5,404.5C 223.613,403.744 225.613,403.577 227.5,404C 227.133,402.243 227.966,400.743 230,399.5C 234.99,402.996 240.49,405.163 246.5,406C 241.531,408.439 237.197,407.606 233.5,403.5C 228.697,403.338 227.031,405.338 228.5,409.5C 226.436,409.238 225.103,408.071 224.5,406C 220.373,403.984 216.039,402.484 211.5,401.5C 209.165,396.655 205.165,394.322 199.5,394.5C 195.93,390.246 191.93,386.412 187.5,383C 186.207,382.51 184.873,382.343 183.5,382.5C 182.016,377.742 178.683,375.408 173.5,375.5C 173.238,374.022 173.571,372.689 174.5,371.5C 175.386,372.325 175.719,373.325 175.5,374.5C 177.675,374.318 179.675,373.651 181.5,372.5C 183.266,373.091 184.933,373.924 186.5,375C 188.167,375.667 189.833,375.667 191.5,375C 188.758,373.93 186.258,372.43 184,370.5C 183.667,370.833 183.333,371.167 183,371.5C 180.842,369.306 181.175,367.973 184,367.5C 186.41,368.748 188.91,369.748 191.5,370.5C 191.36,372.124 192.027,373.29 193.5,374C 192.833,375.333 191.833,376.333 190.5,377C 193.275,377.778 195.775,377.278 198,375.5C 200.705,376.939 203.538,377.939 206.5,378.5 Z"/></g>
<g><path style="opacity:1" fill="#a1abdb" d="M 311.5,366.5 C 305.321,371.983 298.321,376.316 290.5,379.5C 291.241,377.646 292.241,375.979 293.5,374.5C 293.833,374.5 294.167,374.5 294.5,374.5C 294.56,375.043 294.893,375.376 295.5,375.5C 300.698,372.115 306.032,369.115 311.5,366.5 Z"/></g>
<g><path style="opacity:1" fill="#1039b9" d="M 337.5,372.5 C 329.873,377.987 321.873,382.987 313.5,387.5C 314.993,384.506 317.327,382.506 320.5,381.5C 320.833,380.5 321.5,379.833 322.5,379.5C 324.74,377.597 327.406,376.597 330.5,376.5C 330.5,375.5 330.5,374.5 330.5,373.5C 332.903,373.552 335.236,373.219 337.5,372.5 Z"/></g>
<g><path style="opacity:1" fill="#1e48e6" d="M 318.5,363.5 C 317.833,364.5 317.167,365.5 316.5,366.5C 316.804,367.15 317.137,367.817 317.5,368.5C 315.157,370.344 312.99,372.344 311,374.5C 310.781,373.062 310.281,371.729 309.5,370.5C 307.549,372.622 305.215,374.122 302.5,375C 300.367,378.39 297.534,381.223 294,383.5C 294.077,382.262 293.911,381.262 293.5,380.5C 291.026,381.32 288.693,382.32 286.5,383.5C 287.167,382.5 287.833,381.5 288.5,380.5C 289.167,380.167 289.833,379.833 290.5,379.5C 298.321,376.316 305.321,371.983 311.5,366.5C 313.945,365.688 316.278,364.688 318.5,363.5 Z"/></g>
<g><path style="opacity:1" fill="#a0a4d9" d="M 288.5,380.5 C 287.833,381.5 287.167,382.5 286.5,383.5C 284.5,384.167 282.5,384.833 280.5,385.5C 282.843,383.328 285.51,381.661 288.5,380.5 Z"/></g>
<g><path style="opacity:1" fill="#0a3bc1" d="M 176.5,380.5 C 178.833,381.167 181.167,381.833 183.5,382.5C 184.873,382.343 186.207,382.51 187.5,383C 191.93,386.412 195.93,390.246 199.5,394.5C 191.659,390.081 183.992,385.415 176.5,380.5 Z"/></g>
<g><path style="opacity:0.631" fill="#b6b5c6" d="M 175.5,355.5 C 195.443,366.808 215.11,378.641 234.5,391C 241.896,396.185 249.896,397.519 258.5,395C 270.523,388.66 282.189,381.826 293.5,374.5C 292.241,375.979 291.241,377.646 290.5,379.5C 289.833,379.833 289.167,380.167 288.5,380.5C 285.51,381.661 282.843,383.328 280.5,385.5C 280.167,386.5 279.5,387.167 278.5,387.5C 273.632,389.382 269.299,392.048 265.5,395.5C 257.244,399.445 248.577,400.445 239.5,398.5C 229.036,392.432 218.702,386.099 208.5,379.5C 207.833,379.167 207.167,378.833 206.5,378.5C 199.036,373.597 191.369,368.93 183.5,364.5C 182.167,363.5 180.833,362.5 179.5,361.5C 178.952,359.468 177.619,358.468 175.5,358.5C 175.5,357.5 175.5,356.5 175.5,355.5 Z"/></g>
<g><path style="opacity:1" fill="#0f45f0" d="M 208.5,379.5 C 218.702,386.099 229.036,392.432 239.5,398.5C 235.835,397.781 232.168,396.948 228.5,396C 226.045,392.875 224.378,393.375 223.5,397.5C 221.473,397.662 219.473,397.495 217.5,397C 214.846,394.928 215.18,393.261 218.5,392C 216.865,390.252 214.865,389.085 212.5,388.5C 211.312,385.377 209.979,382.377 208.5,379.5 Z"/></g>
<g><path style="opacity:1" fill="#4b63d0" d="M 278.5,387.5 C 277.71,388.794 276.71,389.961 275.5,391C 272.184,392.602 268.851,394.102 265.5,395.5C 269.299,392.048 273.632,389.382 278.5,387.5 Z"/></g>
<g><path style="opacity:1" fill="#1b47e3" d="M 286.5,383.5 C 284.851,385.752 282.685,387.419 280,388.5C 279.727,390.329 278.893,391.829 277.5,393C 272.982,393.796 268.649,395.129 264.5,397C 265.902,398.342 265.569,399.176 263.5,399.5C 255.886,401.552 248.219,401.885 240.5,400.5C 240.167,399.833 239.833,399.167 239.5,398.5C 248.577,400.445 257.244,399.445 265.5,395.5C 268.851,394.102 272.184,392.602 275.5,391C 276.71,389.961 277.71,388.794 278.5,387.5C 279.5,387.167 280.167,386.5 280.5,385.5C 282.5,384.833 284.5,384.167 286.5,383.5 Z"/></g>
<g><path style="opacity:0.988" fill="#0c3bbb" d="M 199.5,394.5 C 205.165,394.322 209.165,396.655 211.5,401.5C 207.164,399.668 203.164,397.335 199.5,394.5 Z"/></g>
<g><path style="opacity:1" fill="#0142fa" d="M 322.5,379.5 C 321.5,379.833 320.833,380.5 320.5,381.5C 317.167,382.167 313.833,382.833 310.5,383.5C 309.969,386.779 307.969,388.113 304.5,387.5C 304.5,388.5 304.5,389.5 304.5,390.5C 302.833,390.5 301.167,390.5 299.5,390.5C 299.762,391.978 299.429,393.311 298.5,394.5C 292.285,394.784 287.285,397.284 283.5,402C 281.965,402.496 280.465,402.33 279,401.5C 278.5,401.833 278,402.167 277.5,402.5C 278.921,405.428 277.921,406.762 274.5,406.5C 274.5,407.5 274.5,408.5 274.5,409.5C 270.274,410.617 266.607,412.784 263.5,416C 254.313,418.278 245.313,417.944 236.5,415C 234.274,412.398 231.608,410.565 228.5,409.5C 227.031,405.338 228.697,403.338 233.5,403.5C 237.197,407.606 241.531,408.439 246.5,406C 240.49,405.163 234.99,402.996 230,399.5C 227.966,400.743 227.133,402.243 227.5,404C 225.613,403.577 223.613,403.744 221.5,404.5C 221.343,403.127 221.51,401.793 222,400.5C 224.995,397.735 228.495,396.902 232.5,398C 234.993,399.269 237.66,400.102 240.5,400.5C 248.219,401.885 255.886,401.552 263.5,399.5C 265.569,399.176 265.902,398.342 264.5,397C 268.649,395.129 272.982,393.796 277.5,393C 278.893,391.829 279.727,390.329 280,388.5C 282.685,387.419 284.851,385.752 286.5,383.5C 288.693,382.32 291.026,381.32 293.5,380.5C 293.911,381.262 294.077,382.262 294,383.5C 297.534,381.223 300.367,378.39 302.5,375C 305.215,374.122 307.549,372.622 309.5,370.5C 310.281,371.729 310.781,373.062 311,374.5C 312.99,372.344 315.157,370.344 317.5,368.5C 317.137,367.817 316.804,367.15 316.5,366.5C 317.817,366.821 319.151,367.154 320.5,367.5C 321.647,367.182 322.481,366.516 323,365.5C 324.307,366.772 325.807,367.772 327.5,368.5C 323.238,368.875 320.071,370.875 318,374.5C 316.989,373.663 315.822,373.33 314.5,373.5C 314.5,374.833 314.5,376.167 314.5,377.5C 317.206,377.425 319.873,377.092 322.5,376.5C 322.5,377.5 322.5,378.5 322.5,379.5 Z"/></g>
<g><path style="opacity:1" fill="#0641e3" d="M 320.5,381.5 C 317.327,382.506 314.993,384.506 313.5,387.5C 308.767,390.89 303.767,393.89 298.5,396.5C 294.557,397.568 290.89,399.402 287.5,402C 285.564,402.813 283.564,403.313 281.5,403.5C 281.5,404.5 281.5,405.5 281.5,406.5C 278.679,406.545 276.346,407.545 274.5,409.5C 274.5,408.5 274.5,407.5 274.5,406.5C 277.921,406.762 278.921,405.428 277.5,402.5C 278,402.167 278.5,401.833 279,401.5C 280.465,402.33 281.965,402.496 283.5,402C 287.285,397.284 292.285,394.784 298.5,394.5C 299.429,393.311 299.762,391.978 299.5,390.5C 301.167,390.5 302.833,390.5 304.5,390.5C 304.5,389.5 304.5,388.5 304.5,387.5C 307.969,388.113 309.969,386.779 310.5,383.5C 313.833,382.833 317.167,382.167 320.5,381.5 Z"/></g>
<g><path style="opacity:0.753" fill="#0a35b4" d="M 298.5,396.5 C 287.728,404.062 276.395,410.895 264.5,417C 255.141,420.297 245.807,420.297 236.5,417C 227.767,412.309 219.434,407.143 211.5,401.5C 216.039,402.484 220.373,403.984 224.5,406C 225.103,408.071 226.436,409.238 228.5,409.5C 231.608,410.565 234.274,412.398 236.5,415C 245.313,417.944 254.313,418.278 263.5,416C 266.607,412.784 270.274,410.617 274.5,409.5C 276.346,407.545 278.679,406.545 281.5,406.5C 281.5,405.5 281.5,404.5 281.5,403.5C 283.564,403.313 285.564,402.813 287.5,402C 290.89,399.402 294.557,397.568 298.5,396.5 Z"/></g>
</svg>
