<?xml version="1.0" encoding="UTF-8"?>
<!DOCTYPE svg PUBLIC "-//W3C//DTD SVG 1.1//EN" "http://www.w3.org/Graphics/SVG/1.1/DTD/svg11.dtd">
<svg xmlns="http://www.w3.org/2000/svg" version="1.1" width="500px" height="500px" style="shape-rendering:geometricPrecision; text-rendering:geometricPrecision; image-rendering:optimizeQuality; fill-rule:evenodd; clip-rule:evenodd" xmlns:xlink="http://www.w3.org/1999/xlink">
<g><path style="opacity:1" fill="#0d171b" d="M -0.5,-0.5 C 166.167,-0.5 332.833,-0.5 499.5,-0.5C 499.5,166.167 499.5,332.833 499.5,499.5C 332.833,499.5 166.167,499.5 -0.5,499.5C -0.5,332.833 -0.5,166.167 -0.5,-0.5 Z"/></g>
<g><path style="opacity:1" fill="#02e3a3" d="M 402.5,165.5 C 402.5,182.833 402.5,200.167 402.5,217.5C 401.883,217.611 401.383,217.944 401,218.5C 400.667,213.5 400.333,208.5 400,203.5C 399.828,208.202 399.328,212.868 398.5,217.5C 394.344,216.495 390.511,214.828 387,212.5C 386.667,206.167 386.333,199.833 386,193.5C 384.885,198.507 384.052,203.507 383.5,208.5C 383.5,207.167 383.5,205.833 383.5,204.5C 383.296,194.148 383.629,183.814 384.5,173.5C 384.454,169.829 383.121,166.829 380.5,164.5C 377.662,159.496 373.662,155.663 368.5,153C 331.498,130.163 294.164,107.83 256.5,86C 249.388,84.6441 242.721,85.6441 236.5,89C 200.167,111.333 163.833,133.667 127.5,156C 124.152,158.501 121.818,161.668 120.5,165.5C 118.138,167.919 117.138,170.919 117.5,174.5C 116.936,186.36 115.936,198.027 114.5,209.5C 111.551,208.943 108.717,209.609 106,211.5C 104.043,210.116 103.043,210.783 103,213.5C 102.17,208.857 101.503,204.19 101,199.5C 100.722,198.584 100.222,197.918 99.5,197.5C 99.5242,182.667 100.858,168 103.5,153.5C 106.349,148.556 110.349,144.722 115.5,142C 156.5,117 197.5,92 238.5,67C 249.15,64.1048 259.15,65.4381 268.5,71C 308.467,95.3202 348.467,119.654 388.5,144C 396.331,149.176 400.998,156.342 402.5,165.5 Z"/></g>
<g><path style="opacity:1" fill="#090a0a" d="M 379.5,169.5 C 379.5,171.167 379.5,172.833 379.5,174.5C 378.711,174.217 378.044,173.717 377.5,173C 377.854,171.374 377.854,169.541 377.5,167.5C 375.206,165.763 372.54,164.596 369.5,164C 351.855,151.487 333.188,139.821 313.5,129C 313.833,128.667 314.167,128.333 314.5,128C 310.231,126.532 306.231,124.532 302.5,122C 302.833,121.667 303.167,121.333 303.5,121C 292.644,116.323 282.477,110.49 273,103.5C 272.667,103.833 272.333,104.167 272,104.5C 267.307,101.815 262.807,98.8155 258.5,95.5C 257.188,96.4604 255.854,96.2937 254.5,95C 248.485,93.9653 242.818,94.9653 237.5,98C 231.429,101.514 225.429,105.348 219.5,109.5C 218.914,109.291 218.414,108.957 218,108.5C 216.469,112.423 213.635,114.589 209.5,115C 208.531,116.758 207.364,117.258 206,116.5C 205.626,117.416 205.126,118.25 204.5,119C 196.332,122.999 189.332,127.166 183.5,131.5C 182.808,130.975 182.308,130.308 182,129.5C 181.751,130.624 181.251,131.624 180.5,132.5C 178.502,134.334 176.168,135.334 173.5,135.5C 173.5,136.5 173.5,137.5 173.5,138.5C 162.727,143.388 152.727,149.554 143.5,157C 139.507,157.322 136.174,158.988 133.5,162C 132.167,162.333 130.833,162.667 129.5,163C 129.833,163.333 130.167,163.667 130.5,164C 128.451,165.992 125.951,167.826 123,169.5C 122.536,168.906 122.369,168.239 122.5,167.5C 124.876,162.285 128.543,158.118 133.5,155C 170.167,133 206.833,111 243.5,89C 248.904,88.2282 254.238,88.5615 259.5,90C 295,111.918 330.667,133.585 366.5,155C 372.802,158.132 377.136,162.966 379.5,169.5 Z"/></g>
<g><path style="opacity:1" fill="#0e0f10" d="M 379.5,174.5 C 379.667,189.837 379.5,205.17 379,220.5C 377.489,212.975 377.323,205.642 378.5,198.5C 378.363,196.04 377.363,194.04 375.5,192.5C 378.015,188.01 378.181,182.677 376,176.5C 372.794,172.992 369.294,169.825 365.5,167C 361.15,165.812 357.817,163.312 355.5,159.5C 352.373,158.815 349.373,157.815 346.5,156.5C 346.833,155.833 347.167,155.167 347.5,154.5C 346.052,153.646 344.719,152.646 343.5,151.5C 341.678,152.429 340.345,151.762 339.5,149.5C 337.988,148.138 336.488,147.804 335,148.5C 334.024,146.113 332.191,144.946 329.5,145C 326.875,142.008 323.542,140.342 319.5,140C 317.254,138.743 315.921,136.91 315.5,134.5C 306.132,131.972 298.132,127.139 291.5,120C 286.414,118.906 282.414,116.239 279.5,112C 278.101,111.405 276.768,111.572 275.5,112.5C 273.684,111.185 272.017,109.685 270.5,108C 265.426,105.716 260.259,103.549 255,101.5C 249.335,101.632 244.168,103.132 239.5,106C 234.446,106.371 230.28,108.537 227,112.5C 224.766,111.295 223.099,111.961 222,114.5C 221.667,114.167 221.333,113.833 221,113.5C 219.595,116.164 217.261,118.497 214,120.5C 212.667,120.5 211.333,120.5 210,120.5C 208.001,121.831 206.167,123.665 204.5,126C 193.536,130.5 183.203,136 173.5,142.5C 173.5,143.5 173.5,144.5 173.5,145.5C 171.345,145.372 169.345,145.872 167.5,147C 167.833,147.333 168.167,147.667 168.5,148C 166.975,149.009 165.308,149.509 163.5,149.5C 163.5,150.5 163.5,151.5 163.5,152.5C 160.525,152.307 158.025,153.307 156,155.5C 155.586,155.043 155.086,154.709 154.5,154.5C 151.053,158.871 146.887,161.538 142,162.5C 140.084,164.806 137.584,166.139 134.5,166.5C 133.571,167.689 133.238,169.022 133.5,170.5C 132.022,170.238 130.689,170.571 129.5,171.5C 127.6,173.619 125.934,175.953 124.5,178.5C 124.709,179.086 125.043,179.586 125.5,180C 124.333,180.5 123.5,181.333 123,182.5C 122.667,182.167 122.333,181.833 122,181.5C 121.333,197.167 121.333,212.833 122,228.5C 122.333,228.167 122.667,227.833 123,227.5C 123.667,230.833 123.667,234.167 123,237.5C 122.667,237.167 122.333,236.833 122,236.5C 121.728,246.315 121.562,255.982 121.5,265.5C 122.5,265.5 123.5,265.5 124.5,265.5C 124.663,267.857 124.497,270.19 124,272.5C 123.751,271.376 123.251,270.376 122.5,269.5C 121.833,279.325 121.167,288.992 120.5,298.5C 120.5,266.5 120.5,234.5 120.5,202.5C 120.5,191.833 120.5,181.167 120.5,170.5C 121.167,169.5 121.833,168.5 122.5,167.5C 122.369,168.239 122.536,168.906 123,169.5C 125.951,167.826 128.451,165.992 130.5,164C 130.167,163.667 129.833,163.333 129.5,163C 130.833,162.667 132.167,162.333 133.5,162C 136.174,158.988 139.507,157.322 143.5,157C 152.727,149.554 162.727,143.388 173.5,138.5C 173.5,137.5 173.5,136.5 173.5,135.5C 176.168,135.334 178.502,134.334 180.5,132.5C 181.251,131.624 181.751,130.624 182,129.5C 182.308,130.308 182.808,130.975 183.5,131.5C 189.332,127.166 196.332,122.999 204.5,119C 205.126,118.25 205.626,117.416 206,116.5C 207.364,117.258 208.531,116.758 209.5,115C 213.635,114.589 216.469,112.423 218,108.5C 218.414,108.957 218.914,109.291 219.5,109.5C 225.429,105.348 231.429,101.514 237.5,98C 242.818,94.9653 248.485,93.9653 254.5,95C 255.854,96.2937 257.188,96.4604 258.5,95.5C 262.807,98.8155 267.307,101.815 272,104.5C 272.333,104.167 272.667,103.833 273,103.5C 282.477,110.49 292.644,116.323 303.5,121C 303.167,121.333 302.833,121.667 302.5,122C 306.231,124.532 310.231,126.532 314.5,128C 314.167,128.333 313.833,128.667 313.5,129C 333.188,139.821 351.855,151.487 369.5,164C 372.54,164.596 375.206,165.763 377.5,167.5C 377.854,169.541 377.854,171.374 377.5,173C 378.044,173.717 378.711,174.217 379.5,174.5 Z"/></g>
<g><path style="opacity:1" fill="#0f1618" d="M 379.5,174.5 C 379.5,172.833 379.5,171.167 379.5,169.5C 379.833,169.5 380.167,169.5 380.5,169.5C 380.5,169.833 380.5,170.167 380.5,170.5C 380.5,178.5 380.5,186.5 380.5,194.5C 380.822,234.209 380.488,273.876 379.5,313.5C 379.567,314.959 379.234,316.292 378.5,317.5C 377.157,321.351 374.823,324.517 371.5,327C 360.599,333.608 349.932,340.442 339.5,347.5C 315.389,361.726 291.389,376.226 267.5,391C 256.675,397.9 245.675,398.234 234.5,392C 210.261,376.91 185.927,362.076 161.5,347.5C 150.564,340.692 139.564,333.858 128.5,327C 125.115,323.787 122.782,319.954 121.5,315.5C 120.593,309.894 120.26,304.227 120.5,298.5C 121.167,288.992 121.833,279.325 122.5,269.5C 123.251,270.376 123.751,271.376 124,272.5C 124.497,270.19 124.663,267.857 124.5,265.5C 123.5,265.5 122.5,265.5 121.5,265.5C 121.562,255.982 121.728,246.315 122,236.5C 122.333,236.833 122.667,237.167 123,237.5C 123.667,234.167 123.667,230.833 123,227.5C 122.667,227.833 122.333,228.167 122,228.5C 121.333,212.833 121.333,197.167 122,181.5C 122.333,181.833 122.667,182.167 123,182.5C 123.5,181.333 124.333,180.5 125.5,180C 125.043,179.586 124.709,179.086 124.5,178.5C 125.934,175.953 127.6,173.619 129.5,171.5C 130.689,170.571 132.022,170.238 133.5,170.5C 133.238,169.022 133.571,167.689 134.5,166.5C 137.584,166.139 140.084,164.806 142,162.5C 146.887,161.538 151.053,158.871 154.5,154.5C 155.086,154.709 155.586,155.043 156,155.5C 158.025,153.307 160.525,152.307 163.5,152.5C 163.5,151.5 163.5,150.5 163.5,149.5C 165.308,149.509 166.975,149.009 168.5,148C 168.167,147.667 167.833,147.333 167.5,147C 169.345,145.872 171.345,145.372 173.5,145.5C 173.5,144.5 173.5,143.5 173.5,142.5C 183.203,136 193.536,130.5 204.5,126C 206.167,123.665 208.001,121.831 210,120.5C 211.333,120.5 212.667,120.5 214,120.5C 217.261,118.497 219.595,116.164 221,113.5C 221.333,113.833 221.667,114.167 222,114.5C 223.099,111.961 224.766,111.295 227,112.5C 230.28,108.537 234.446,106.371 239.5,106C 244.168,103.132 249.335,101.632 255,101.5C 260.259,103.549 265.426,105.716 270.5,108C 272.017,109.685 273.684,111.185 275.5,112.5C 276.768,111.572 278.101,111.405 279.5,112C 282.414,116.239 286.414,118.906 291.5,120C 298.132,127.139 306.132,131.972 315.5,134.5C 315.921,136.91 317.254,138.743 319.5,140C 323.542,140.342 326.875,142.008 329.5,145C 332.191,144.946 334.024,146.113 335,148.5C 336.488,147.804 337.988,148.138 339.5,149.5C 340.345,151.762 341.678,152.429 343.5,151.5C 344.719,152.646 346.052,153.646 347.5,154.5C 347.167,155.167 346.833,155.833 346.5,156.5C 349.373,157.815 352.373,158.815 355.5,159.5C 357.817,163.312 361.15,165.812 365.5,167C 369.294,169.825 372.794,172.992 376,176.5C 378.181,182.677 378.015,188.01 375.5,192.5C 377.363,194.04 378.363,196.04 378.5,198.5C 377.323,205.642 377.489,212.975 379,220.5C 379.5,205.17 379.667,189.837 379.5,174.5 Z"/></g>
<g><path style="opacity:1" fill="#053648" d="M 380.5,164.5 C 380.5,166.167 380.5,167.833 380.5,169.5C 380.167,169.5 379.833,169.5 379.5,169.5C 377.136,162.966 372.802,158.132 366.5,155C 330.667,133.585 295,111.918 259.5,90C 254.238,88.5615 248.904,88.2282 243.5,89C 206.833,111 170.167,133 133.5,155C 128.543,158.118 124.876,162.285 122.5,167.5C 121.833,168.5 121.167,169.5 120.5,170.5C 120.5,169.833 120.167,169.5 119.5,169.5C 119.833,168.167 120.167,166.833 120.5,165.5C 121.818,161.668 124.152,158.501 127.5,156C 163.833,133.667 200.167,111.333 236.5,89C 242.721,85.6441 249.388,84.6441 256.5,86C 294.164,107.83 331.498,130.163 368.5,153C 373.662,155.663 377.662,159.496 380.5,164.5 Z"/></g>
<g><path style="opacity:1" fill="#f1efec" d="M 308.5,148.5 C 309.833,150.5 311.5,152.167 313.5,153.5C 314.879,161.614 311.546,165.447 303.5,165C 289.5,156.333 275.5,147.667 261.5,139C 254.328,134.816 246.995,134.482 239.5,138C 225.335,147.25 211.002,156.25 196.5,165C 187.068,164.646 184.402,160.146 188.5,151.5C 189.906,151.027 190.573,150.027 190.5,148.5C 205.945,139.273 221.278,129.773 236.5,120C 245.972,115.192 255.305,115.526 264.5,121C 279.069,130.418 293.735,139.585 308.5,148.5 Z"/></g>
<g><path style="opacity:1" fill="#04d0a6" d="M 99.5,133.5 C 102.833,134.167 106.167,134.833 109.5,135.5C 106.167,135.5 102.833,135.5 99.5,135.5C 99.7139,141.591 97.0473,143.091 91.5,140C 89.6487,138.316 87.982,136.483 86.5,134.5C 89.5189,129.587 93.6856,127.92 99,129.5C 99.49,130.793 99.6567,132.127 99.5,133.5 Z"/></g>
<g><path style="opacity:1" fill="#05605e" d="M 99.5,133.5 C 103.226,133.177 106.893,133.511 110.5,134.5C 110.376,135.107 110.043,135.44 109.5,135.5C 106.167,134.833 102.833,134.167 99.5,133.5 Z"/></g>
<g><path style="opacity:1" fill="#04e4a3" d="M 411.5,129.5 C 416.287,130.726 417.287,133.226 414.5,137C 412.922,138.094 411.255,138.928 409.5,139.5C 407.833,139.5 406.167,139.5 404.5,139.5C 404.16,136.856 404.827,134.523 406.5,132.5C 406.167,131.833 405.833,131.167 405.5,130.5C 407.396,129.534 409.396,129.201 411.5,129.5 Z"/></g>
<g><path style="opacity:1" fill="#049082" d="M 403.5,133.5 C 403.167,134.167 402.833,134.833 402.5,135.5C 398.774,135.823 395.107,135.489 391.5,134.5C 395.445,133.509 399.445,133.176 403.5,133.5 Z"/></g>
<g><path style="opacity:1" fill="#05cca3" d="M 411.5,129.5 C 409.396,129.201 407.396,129.534 405.5,130.5C 405.833,131.167 406.167,131.833 406.5,132.5C 404.827,134.523 404.16,136.856 404.5,139.5C 406.167,139.5 407.833,139.5 409.5,139.5C 407.735,140.461 405.735,140.795 403.5,140.5C 403.784,138.585 403.451,136.919 402.5,135.5C 402.833,134.833 403.167,134.167 403.5,133.5C 402.753,127.933 405.087,126.1 410.5,128C 411.056,128.383 411.389,128.883 411.5,129.5 Z"/></g>
<g><path style="opacity:1" fill="#0e1314" d="M 315.5,162.5 C 316.806,158.737 316.806,155.404 315.5,152.5C 329.899,162.228 344.566,171.561 359.5,180.5C 363.48,183.22 363.48,185.887 359.5,188.5C 357.914,187.587 356.414,187.587 355,188.5C 353.686,187.687 352.519,186.687 351.5,185.5C 350.914,185.709 350.414,186.043 350,186.5C 347.765,184.798 345.265,183.798 342.5,183.5C 342.78,180.612 341.447,179.112 338.5,179C 337.36,177.027 336.027,175.193 334.5,173.5C 332.877,174.476 331.543,173.976 330.5,172C 327.183,171.502 323.85,171.335 320.5,171.5C 320.295,177.218 319.628,182.885 318.5,188.5C 317.663,186.495 316.163,185.495 314,185.5C 311.575,186.916 309.409,188.75 307.5,191C 305.17,192.345 302.837,192.512 300.5,191.5C 301.689,190.571 303.022,190.238 304.5,190.5C 304.5,189.5 304.5,188.5 304.5,187.5C 299.401,187.825 294.401,187.325 289.5,186C 289.167,185.667 288.833,185.333 288.5,185C 289.5,184.167 290.5,183.333 291.5,182.5C 287.618,179.465 283.285,178.465 278.5,179.5C 276.874,177.548 274.874,176.214 272.5,175.5C 272.5,174.167 272.5,172.833 272.5,171.5C 269.639,171.487 268.639,170.321 269.5,168C 268.101,167.405 266.768,167.572 265.5,168.5C 264.548,166.955 264.215,165.288 264.5,163.5C 260.613,164.055 257.613,162.721 255.5,159.5C 254.738,160.628 254.071,161.795 253.5,163C 250.191,164.456 246.857,164.789 243.5,164C 242.663,165.011 242.33,166.178 242.5,167.5C 240.08,167.708 237.747,167.374 235.5,166.5C 233.889,167.32 233.222,168.654 233.5,170.5C 231.5,170.5 229.5,170.5 227.5,170.5C 227.254,173.47 225.588,174.803 222.5,174.5C 222.808,176.924 222.474,179.257 221.5,181.5C 220.325,180.145 219.325,180.312 218.5,182C 219.167,182.333 219.833,182.667 220.5,183C 218.481,183.45 216.648,184.283 215,185.5C 215.263,186.951 215.096,188.284 214.5,189.5C 212.132,187.777 209.466,187.11 206.5,187.5C 206.5,189.167 206.5,190.833 206.5,192.5C 203.289,192.988 200.456,192.321 198,190.5C 197.439,191.022 196.772,191.355 196,191.5C 193.091,189.685 189.924,188.685 186.5,188.5C 186.5,186.167 186.5,183.833 186.5,181.5C 184.856,181.714 183.356,181.38 182,180.5C 180.26,177.091 179.26,173.424 179,169.5C 170.505,172.016 163.339,176.516 157.5,183C 155.283,184.275 152.949,185.275 150.5,186C 149.816,187.693 148.816,189.193 147.5,190.5C 148.981,191.944 148.648,192.611 146.5,192.5C 141.918,190.596 139.252,187.263 138.5,182.5C 140.816,181.194 143.15,179.861 145.5,178.5C 158.167,170.167 170.833,161.833 183.5,153.5C 184.468,155.607 184.802,157.941 184.5,160.5C 183.732,161.263 183.232,162.263 183,163.5C 181.506,162.253 180.006,162.253 178.5,163.5C 179.328,164.415 180.328,165.081 181.5,165.5C 183.243,168.885 184.243,172.218 184.5,175.5C 190.227,179.935 196.56,180.769 203.5,178C 205.867,175.92 208.533,174.42 211.5,173.5C 211.5,172.5 211.5,171.5 211.5,170.5C 214.11,171.502 216.776,171.335 219.5,170C 220.249,168.266 220.749,166.433 221,164.5C 221.718,165.451 222.551,165.617 223.5,165C 228.735,160.369 234.402,156.202 240.5,152.5C 245.355,150.737 250.188,149.737 255,149.5C 264.219,155.532 274.052,161.699 284.5,168C 283.833,168.333 283.167,168.667 282.5,169C 286.541,171.005 290.875,172.505 295.5,173.5C 295.281,174.675 295.614,175.675 296.5,176.5C 298.548,177.77 300.548,178.103 302.5,177.5C 305.395,179.702 308.228,179.369 311,176.5C 311.333,177.5 311.667,178.5 312,179.5C 313.796,173.796 315.963,168.963 318.5,165C 317.773,163.601 317.273,162.101 317,160.5C 316.722,161.416 316.222,162.082 315.5,162.5 Z"/></g>
<g><path style="opacity:1" fill="#06d7b6" d="M 308.5,148.5 C 313.121,147.993 317.454,148.826 321.5,151C 333.739,158.942 345.739,167.109 357.5,175.5C 356.624,175.369 355.957,175.702 355.5,176.5C 356.689,177.429 358.022,177.762 359.5,177.5C 359.5,178.5 359.5,179.5 359.5,180.5C 344.566,171.561 329.899,162.228 315.5,152.5C 314.377,151.243 313.711,151.576 313.5,153.5C 311.5,152.167 309.833,150.5 308.5,148.5 Z"/></g>
<g><path style="opacity:1" fill="#0a0b0c" d="M 315.5,162.5 C 316.222,162.082 316.722,161.416 317,160.5C 317.273,162.101 317.773,163.601 318.5,165C 315.963,168.963 313.796,173.796 312,179.5C 311.667,178.5 311.333,177.5 311,176.5C 308.228,179.369 305.395,179.702 302.5,177.5C 300.548,178.103 298.548,177.77 296.5,176.5C 295.614,175.675 295.281,174.675 295.5,173.5C 290.875,172.505 286.541,171.005 282.5,169C 283.167,168.667 283.833,168.333 284.5,168C 274.052,161.699 264.219,155.532 255,149.5C 250.188,149.737 245.355,150.737 240.5,152.5C 234.402,156.202 228.735,160.369 223.5,165C 222.551,165.617 221.718,165.451 221,164.5C 220.749,166.433 220.249,168.266 219.5,170C 216.776,171.335 214.11,171.502 211.5,170.5C 211.5,171.5 211.5,172.5 211.5,173.5C 208.533,174.42 205.867,175.92 203.5,178C 196.56,180.769 190.227,179.935 184.5,175.5C 184.243,172.218 183.243,168.885 181.5,165.5C 180.328,165.081 179.328,164.415 178.5,163.5C 180.006,162.253 181.506,162.253 183,163.5C 183.232,162.263 183.732,161.263 184.5,160.5C 184.84,163.675 186.507,165.841 189.5,167C 193.261,167.738 196.928,167.405 200.5,166C 214.769,157.394 228.769,148.394 242.5,139C 249.369,136.458 255.702,137.458 261.5,142C 274.567,150.729 287.901,159.062 301.5,167C 307.39,168.691 312.056,167.191 315.5,162.5 Z"/></g>
<g><path style="opacity:1" fill="#0e171a" d="M 359.5,188.5 C 355.57,190.759 352.237,193.759 349.5,197.5C 348.502,224.662 348.169,251.995 348.5,279.5C 347.668,253.337 347.168,227.003 347,200.5C 346.667,201.5 346.333,202.5 346,203.5C 344.211,200.821 343.045,200.987 342.5,204C 343.826,209.781 342.826,215.448 339.5,221C 340.946,223.493 340.279,225.327 337.5,226.5C 338.5,227.167 339.5,227.833 340.5,228.5C 338.898,236.147 337.898,243.813 337.5,251.5C 337.5,245.167 337.5,238.833 337.5,232.5C 336.5,232.5 335.5,232.5 334.5,232.5C 334.666,236.514 334.499,240.514 334,244.5C 331.147,240.765 328.313,237.098 325.5,233.5C 324.5,232.167 323.5,232.167 322.5,233.5C 320.352,233.611 320.019,232.944 321.5,231.5C 315.956,230.258 310.623,230.592 305.5,232.5C 305.5,238.833 305.5,245.167 305.5,251.5C 304.673,246.015 304.173,240.348 304,234.5C 303.683,236.301 303.016,236.634 302,235.5C 301.51,236.793 301.343,238.127 301.5,239.5C 300.209,239.737 299.209,239.404 298.5,238.5C 300.225,238.157 300.725,237.157 300,235.5C 295.863,232.171 291.363,231.671 286.5,234C 282.718,239.04 282.552,244.206 286,249.5C 288.565,251.179 291.398,251.846 294.5,251.5C 292.444,252.216 290.277,252.883 288,253.5C 286.271,250.921 284.438,250.921 282.5,253.5C 281.186,252.687 280.019,251.687 279,250.5C 278.296,252.727 277.129,253.06 275.5,251.5C 280.032,248.065 281.698,243.398 280.5,237.5C 281.278,235.336 281.612,233.17 281.5,231C 278.612,227.99 278.945,226.657 282.5,227C 284.375,224.057 285.875,220.89 287,217.5C 287.914,218.654 288.747,218.487 289.5,217C 288.941,213.656 287.607,210.656 285.5,208C 286.444,205.281 286.777,202.448 286.5,199.5C 285.315,200.771 283.315,201.771 280.5,202.5C 281.16,197.653 279.493,193.819 275.5,191C 269.5,187 263.5,183 257.5,179C 252.167,175.667 246.833,175.667 241.5,179C 234.068,183.799 226.902,188.966 220,194.5C 219.502,197.817 219.335,201.15 219.5,204.5C 218.717,201.224 217.717,197.891 216.5,194.5C 215.575,195.641 214.741,195.641 214,194.5C 213.982,196.797 214.149,199.131 214.5,201.5C 213.178,201.33 212.011,201.663 211,202.5C 210.63,205.338 210.797,208.171 211.5,211C 211.561,213.261 210.894,215.261 209.5,217C 210.5,217.833 211.5,218.667 212.5,219.5C 211.975,220.192 211.308,220.692 210.5,221C 212.649,222.164 214.815,223.33 217,224.5C 217.495,226.473 217.662,228.473 217.5,230.5C 220.32,230.248 222.986,230.748 225.5,232C 225.272,232.399 224.938,232.565 224.5,232.5C 223.167,232.5 221.833,232.5 220.5,232.5C 219.21,233.058 218.377,234.058 218,235.5C 217.768,234.263 217.268,233.263 216.5,232.5C 211.381,231.897 206.715,232.564 202.5,234.5C 201.448,234.351 200.448,234.517 199.5,235C 200.412,236.625 199.745,237.459 197.5,237.5C 195.517,232.508 191.85,230.675 186.5,232C 185.295,233.376 183.962,234.542 182.5,235.5C 181.811,234.226 180.977,234.226 180,235.5C 179.802,237.382 179.302,239.048 178.5,240.5C 179.041,237.348 178.041,234.848 175.5,233C 171.848,232.501 168.182,232.335 164.5,232.5C 163.162,230.202 161.829,227.202 160.5,223.5C 161.737,222.719 162.737,221.719 163.5,220.5C 161.969,219.387 160.969,217.887 160.5,216C 160.585,214.893 160.919,213.893 161.5,213C 159.202,208.821 157.202,204.488 155.5,200C 153.956,198.414 152.789,196.58 152,194.5C 151.536,195.094 151.369,195.761 151.5,196.5C 149.809,195.136 148.142,193.803 146.5,192.5C 148.648,192.611 148.981,191.944 147.5,190.5C 148.816,189.193 149.816,187.693 150.5,186C 152.949,185.275 155.283,184.275 157.5,183C 163.339,176.516 170.505,172.016 179,169.5C 179.26,173.424 180.26,177.091 182,180.5C 183.356,181.38 184.856,181.714 186.5,181.5C 186.5,183.833 186.5,186.167 186.5,188.5C 189.924,188.685 193.091,189.685 196,191.5C 196.772,191.355 197.439,191.022 198,190.5C 200.456,192.321 203.289,192.988 206.5,192.5C 206.5,190.833 206.5,189.167 206.5,187.5C 209.466,187.11 212.132,187.777 214.5,189.5C 215.096,188.284 215.263,186.951 215,185.5C 216.648,184.283 218.481,183.45 220.5,183C 219.833,182.667 219.167,182.333 218.5,182C 219.325,180.312 220.325,180.145 221.5,181.5C 222.474,179.257 222.808,176.924 222.5,174.5C 225.588,174.803 227.254,173.47 227.5,170.5C 229.5,170.5 231.5,170.5 233.5,170.5C 233.222,168.654 233.889,167.32 235.5,166.5C 237.747,167.374 240.08,167.708 242.5,167.5C 242.33,166.178 242.663,165.011 243.5,164C 246.857,164.789 250.191,164.456 253.5,163C 254.071,161.795 254.738,160.628 255.5,159.5C 257.613,162.721 260.613,164.055 264.5,163.5C 264.215,165.288 264.548,166.955 265.5,168.5C 266.768,167.572 268.101,167.405 269.5,168C 268.639,170.321 269.639,171.487 272.5,171.5C 272.5,172.833 272.5,174.167 272.5,175.5C 274.874,176.214 276.874,177.548 278.5,179.5C 283.285,178.465 287.618,179.465 291.5,182.5C 290.5,183.333 289.5,184.167 288.5,185C 288.833,185.333 289.167,185.667 289.5,186C 294.401,187.325 299.401,187.825 304.5,187.5C 304.5,188.5 304.5,189.5 304.5,190.5C 303.022,190.238 301.689,190.571 300.5,191.5C 302.837,192.512 305.17,192.345 307.5,191C 309.409,188.75 311.575,186.916 314,185.5C 316.163,185.495 317.663,186.495 318.5,188.5C 319.628,182.885 320.295,177.218 320.5,171.5C 323.85,171.335 327.183,171.502 330.5,172C 331.543,173.976 332.877,174.476 334.5,173.5C 336.027,175.193 337.36,177.027 338.5,179C 341.447,179.112 342.78,180.612 342.5,183.5C 345.265,183.798 347.765,184.798 350,186.5C 350.414,186.043 350.914,185.709 351.5,185.5C 352.519,186.687 353.686,187.687 355,188.5C 356.414,187.587 357.914,187.587 359.5,188.5 Z"/></g>
<g><path style="opacity:1" fill="#101518" d="M 99.5,159.5 C 98.5428,181.807 98.2094,204.14 98.5,226.5C 98.5,231.5 98.5,236.5 98.5,241.5C 98.5,243.167 98.5,244.833 98.5,246.5C 98.5,248.5 98.5,250.5 98.5,252.5C 98.5,254.833 98.5,257.167 98.5,259.5C 98.5,260.5 98.5,261.5 98.5,262.5C 98.5,263.833 98.5,265.167 98.5,266.5C 98.5,269.833 98.5,273.167 98.5,276.5C 98.5,278.5 98.5,280.5 98.5,282.5C 98.5,284.5 98.5,286.5 98.5,288.5C 98.5,290.833 98.5,293.167 98.5,295.5C 98.1746,303.352 98.508,311.018 99.5,318.5C 99.5,319.833 99.5,321.167 99.5,322.5C 99.5,323.833 99.5,325.167 99.5,326.5C 98.5,326.5 97.5,326.5 96.5,326.5C 96.5453,330.099 96.5453,333.765 96.5,337.5C 97.3751,339.773 99.0418,340.773 101.5,340.5C 100.72,345.355 102.72,348.189 107.5,349C 109.106,353.441 112.106,356.275 116.5,357.5C 116.5,358.5 116.5,359.5 116.5,360.5C 119.068,361.45 121.568,361.45 124,360.5C 128.126,364.504 132.959,367.504 138.5,369.5C 139.876,372.238 141.876,374.405 144.5,376C 147.563,378.028 150.896,379.694 154.5,381C 153.833,381.667 153.167,382.333 152.5,383C 155.311,383.911 158.144,384.744 161,385.5C 162.667,387.167 164.333,388.833 166,390.5C 167.465,389.67 168.965,389.504 170.5,390C 174.892,393.85 179.559,397.183 184.5,400C 185.448,400.483 186.448,400.649 187.5,400.5C 187.52,404.513 188.853,405.18 191.5,402.5C 192.696,402.846 192.696,403.346 191.5,404C 192.448,404.483 193.448,404.649 194.5,404.5C 194.5,405.5 194.5,406.5 194.5,407.5C 200.457,407.835 204.79,410.502 207.5,415.5C 214.848,415.231 220.681,417.565 225,422.5C 225.333,422.167 225.667,421.833 226,421.5C 226.219,422.938 226.719,424.271 227.5,425.5C 231.967,427.81 236.134,430.476 240,433.5C 240.333,432.833 240.667,432.167 241,431.5C 248.298,432.489 255.798,432.989 263.5,433C 265.624,431.379 267.624,429.546 269.5,427.5C 271.135,426.67 272.802,426.503 274.5,427C 276.333,424.5 278.167,422 280,419.5C 283.316,421.069 286.149,420.402 288.5,417.5C 289.086,417.709 289.586,418.043 290,418.5C 290.284,416.114 291.284,415.448 293,416.5C 297.397,410.316 303.23,407.149 310.5,407C 309.332,405.129 309.832,403.629 312,402.5C 314.129,403.863 314.629,403.529 313.5,401.5C 313.865,400.098 314.699,399.098 316,398.5C 319.145,397.589 322.312,396.755 325.5,396C 325.234,392.799 326.4,392.633 329,395.5C 331.096,394.285 330.929,393.451 328.5,393C 329.743,391.846 330.743,390.512 331.5,389C 339.499,387.029 346.166,383.029 351.5,377C 354.513,376.498 357.513,375.998 360.5,375.5C 360.33,374.178 360.663,373.011 361.5,372C 364.446,371.194 367.112,369.861 369.5,368C 369.167,367.667 368.833,367.333 368.5,367C 371.392,366.106 373.726,364.44 375.5,362C 377.392,361.027 379.392,360.36 381.5,360C 382.934,357.779 384.934,356.279 387.5,355.5C 388,354.5 388.5,353.5 389,352.5C 389.333,352.833 389.667,353.167 390,353.5C 391.79,350.895 394.29,349.395 397.5,349C 398.826,346.842 400.493,345.008 402.5,343.5C 400.252,342.676 400.086,341.676 402,340.5C 402.333,340.833 402.667,341.167 403,341.5C 403.808,339.421 403.641,337.421 402.5,335.5C 401.232,336.428 399.899,336.595 398.5,336C 400.211,334.867 400.711,333.367 400,331.5C 397.493,334.856 394.326,337.189 390.5,338.5C 393.851,336.146 396.518,333.146 398.5,329.5C 400.008,327.819 401.008,325.819 401.5,323.5C 401.5,322.5 401.5,321.5 401.5,320.5C 402.493,312.35 402.826,304.017 402.5,295.5C 402.5,292.167 402.5,288.833 402.5,285.5C 402.5,284.167 402.5,282.833 402.5,281.5C 402.5,278.833 402.5,276.167 402.5,273.5C 402.5,270.5 402.5,267.5 402.5,264.5C 402.5,262.167 402.5,259.833 402.5,257.5C 403.485,227.21 403.818,196.877 403.5,166.5C 406.937,169.701 409.104,173.701 410,178.5C 412.449,179.992 412.949,182.159 411.5,185C 412.911,188.899 413.911,192.899 414.5,197C 410.535,207.815 409.535,218.982 411.5,230.5C 410.907,237.863 410.24,245.197 409.5,252.5C 412.139,258.365 412.139,264.199 409.5,270C 409.978,274.469 410.978,278.802 412.5,283C 411.632,288.925 410.966,294.925 410.5,301C 411.39,315.117 411.39,329.284 410.5,343.5C 408.833,343.5 407.167,343.5 405.5,343.5C 405.674,345.861 406.007,348.194 406.5,350.5C 404.61,350.297 403.11,350.963 402,352.5C 401.667,351.833 401.333,351.167 401,350.5C 398.299,356.863 396.799,363.529 396.5,370.5C 394.142,368.976 392.309,366.976 391,364.5C 389.693,365.772 388.193,366.772 386.5,367.5C 386.977,368.478 387.643,369.311 388.5,370C 384.288,371.241 380.121,371.408 376,370.5C 373.816,372.522 371.983,374.855 370.5,377.5C 368.061,379.268 365.394,380.601 362.5,381.5C 362.709,382.086 363.043,382.586 363.5,383C 360.377,383.206 357.377,383.873 354.5,385C 353.62,386.356 353.286,387.856 353.5,389.5C 349.073,389.359 345.407,390.859 342.5,394C 342.759,395.261 343.426,396.261 344.5,397C 337.842,396.861 334.509,400.028 334.5,406.5C 332.723,406.214 331.056,405.547 329.5,404.5C 327.022,405.883 324.355,406.883 321.5,407.5C 319.845,406.612 318.178,406.112 316.5,406C 315.264,408.354 313.597,410.354 311.5,412C 313.909,413.707 316.575,414.54 319.5,414.5C 319.5,415.5 319.5,416.5 319.5,417.5C 316.821,417.673 314.487,418.673 312.5,420.5C 311.833,418.5 311.167,416.5 310.5,414.5C 309.579,416.756 307.912,417.756 305.5,417.5C 305.67,418.822 305.337,419.989 304.5,421C 302.109,421.287 299.776,421.787 297.5,422.5C 296.614,423.325 296.281,424.325 296.5,425.5C 293.833,425.5 291.167,425.5 288.5,425.5C 288.5,426.833 288.5,428.167 288.5,429.5C 287.127,429.343 285.793,429.51 284.5,430C 280.921,432.754 276.921,434.754 272.5,436C 275.099,436.769 277.599,436.602 280,435.5C 281.682,436.865 281.849,438.365 280.5,440C 277.854,440.497 275.187,440.664 272.5,440.5C 272.5,439.5 272.5,438.5 272.5,437.5C 270.409,437.318 268.409,437.652 266.5,438.5C 265.522,438.023 264.689,437.357 264,436.5C 262.283,437.988 261.116,439.821 260.5,442C 258.098,442.814 255.765,442.647 253.5,441.5C 254.376,440.749 255.376,440.249 256.5,440C 253.007,438.996 249.841,439.496 247,441.5C 241.252,439.377 235.252,437.711 229,436.5C 226.304,433.287 222.804,431.787 218.5,432C 215.032,430.03 211.699,427.864 208.5,425.5C 207.914,425.709 207.414,426.043 207,426.5C 204.456,423.596 202.623,420.263 201.5,416.5C 199.253,417.374 196.92,417.708 194.5,417.5C 194.5,416.5 194.5,415.5 194.5,414.5C 192.08,414.708 189.747,414.374 187.5,413.5C 185.438,411.099 183.771,408.433 182.5,405.5C 181.228,406.046 179.894,406.379 178.5,406.5C 176.159,405.102 173.825,403.769 171.5,402.5C 171.737,398.382 170.07,397.049 166.5,398.5C 164.135,397.97 162.135,396.803 160.5,395C 158.866,394.506 157.199,394.34 155.5,394.5C 155.5,393.167 155.5,391.833 155.5,390.5C 152.881,390.768 150.381,390.435 148,389.5C 147.667,391.167 147.333,392.833 147,394.5C 145.667,393.167 144.333,393.167 143,394.5C 141.294,393.692 140.461,392.359 140.5,390.5C 139.127,390.657 137.793,390.49 136.5,390C 139.833,389.667 143.167,389.333 146.5,389C 148.657,387.915 148.824,386.749 147,385.5C 145.817,386.731 144.651,386.731 143.5,385.5C 142.359,384.575 142.359,383.741 143.5,383C 143,382.833 142.5,382.667 142,382.5C 137.492,384.685 135.325,383.352 135.5,378.5C 134.448,378.649 133.448,378.483 132.5,378C 131.42,373.94 129.42,373.106 126.5,375.5C 125.155,374.653 124.155,373.487 123.5,372C 121.19,371.503 118.857,371.337 116.5,371.5C 116.5,369.833 116.5,368.167 116.5,366.5C 114.473,366.338 112.473,366.505 110.5,367C 109.027,367.71 108.36,368.876 108.5,370.5C 106.41,370.55 105.077,369.55 104.5,367.5C 105.689,366.571 107.022,366.238 108.5,366.5C 107.13,362.292 104.463,359.126 100.5,357C 101.167,356 101.833,355 102.5,354C 100.895,352.612 99.3948,351.112 98,349.5C 95.6194,350.435 93.1194,350.768 90.5,350.5C 88.2146,346.586 88.0479,342.586 90,338.5C 90.2022,340.256 90.7022,341.922 91.5,343.5C 92.8272,337.3 91.8272,331.466 88.5,326C 91.1495,321.914 91.1495,317.914 88.5,314C 91.0599,310.13 91.0599,306.13 88.5,302C 88.8333,301.167 89.1667,300.333 89.5,299.5C 90.1667,300.833 90.8333,302.167 91.5,303.5C 92.2058,301.234 92.0391,298.901 91,296.5C 90.6667,297.167 90.3333,297.833 90,298.5C 89.1502,296.99 88.3169,295.49 87.5,294C 89.1119,292.518 90.1119,290.685 90.5,288.5C 89.1266,288.657 87.7932,288.49 86.5,288C 87.985,283.661 88.8183,279.161 89,274.5C 91.0318,273.06 90.6984,272.393 88,272.5C 87.1667,272.833 86.3333,273.167 85.5,273.5C 86.0634,274.939 86.3968,276.439 86.5,278C 84.9387,281.62 83.272,285.12 81.5,288.5C 78.5,289.833 75.5,289.833 72.5,288.5C 72.6495,287.448 72.4828,286.448 72,285.5C 71.196,286.804 70.0293,287.471 68.5,287.5C 64.9972,285.999 61.3305,285.166 57.5,285C 59.8333,284.667 62.1667,284.333 64.5,284C 62.1141,282.156 60.9474,279.656 61,276.5C 58.3348,276.297 55.5015,275.63 52.5,274.5C 51.914,274.709 51.414,275.043 51,275.5C 50.1005,273.484 48.7672,271.817 47,270.5C 46.3486,268.765 46.5153,267.098 47.5,265.5C 46.675,264.614 45.675,264.281 44.5,264.5C 44.8134,267.247 44.48,269.914 43.5,272.5C 42.276,270.172 42.276,267.839 43.5,265.5C 42.1667,263.5 40.5,261.833 38.5,260.5C 37.5589,258.228 36.2255,256.228 34.5,254.5C 35.9023,253.158 35.5689,252.324 33.5,252C 34.2489,250.266 34.7489,248.433 35,246.5C 35.2784,247.416 35.7784,248.082 36.5,248.5C 51.8706,249.15 66.8706,248.484 81.5,246.5C 67.6609,245.833 53.6609,245.167 39.5,244.5C 39.2907,243.914 38.9574,243.414 38.5,243C 40.6526,242.901 42.3192,242.067 43.5,240.5C 56.1667,240.5 68.8333,240.5 81.5,240.5C 81.5,239.5 81.5,238.5 81.5,237.5C 70.0072,236.669 58.3405,236.169 46.5,236C 47.91,235.632 48.91,234.799 49.5,233.5C 60.3258,232.833 70.9924,232.167 81.5,231.5C 81.5,230.5 81.5,229.5 81.5,228.5C 75.8333,228.5 70.1667,228.5 64.5,228.5C 62.9812,227.59 61.3146,226.757 59.5,226C 60.1667,225.333 60.8333,224.667 61.5,224C 68.346,223.828 75.0126,223.328 81.5,222.5C 82.4508,219.955 83.4508,219.955 84.5,222.5C 83.9747,223.192 83.3081,223.692 82.5,224C 84.3797,229.694 85.3797,229.194 85.5,222.5C 87.1667,222.5 88.8333,222.5 90.5,222.5C 90.3338,228.509 90.5005,234.509 91,240.5C 91.1871,233.919 91.6871,227.419 92.5,221C 91.8742,220.25 91.3742,219.416 91,218.5C 90.7918,212.449 90.2918,206.449 89.5,200.5C 90.3482,198.591 90.6816,196.591 90.5,194.5C 87.5203,194.241 85.687,195.574 85,198.5C 84.8253,195.843 84.9919,193.176 85.5,190.5C 88.7705,190.321 90.4371,188.488 90.5,185C 89.8333,182.333 89.1667,179.667 88.5,177C 89.8482,171.741 91.5149,166.574 93.5,161.5C 95.323,160.253 97.323,159.586 99.5,159.5 Z"/></g>
<g><path style="opacity:1" fill="#0f3443" d="M 313.5,153.5 C 313.711,151.576 314.377,151.243 315.5,152.5C 316.806,155.404 316.806,158.737 315.5,162.5C 312.056,167.191 307.39,168.691 301.5,167C 287.901,159.062 274.567,150.729 261.5,142C 255.702,137.458 249.369,136.458 242.5,139C 228.769,148.394 214.769,157.394 200.5,166C 196.928,167.405 193.261,167.738 189.5,167C 186.507,165.841 184.84,163.675 184.5,160.5C 184.802,157.941 184.468,155.607 183.5,153.5C 184.78,152.069 186.447,151.402 188.5,151.5C 184.402,160.146 187.068,164.646 196.5,165C 211.002,156.25 225.335,147.25 239.5,138C 246.995,134.482 254.328,134.816 261.5,139C 275.5,147.667 289.5,156.333 303.5,165C 311.546,165.447 314.879,161.614 313.5,153.5 Z"/></g>
<g><path style="opacity:1" fill="#04e2b0" d="M 190.5,148.5 C 190.573,150.027 189.906,151.027 188.5,151.5C 186.447,151.402 184.78,152.069 183.5,153.5C 170.833,161.833 158.167,170.167 145.5,178.5C 143.466,177.875 141.466,177.541 139.5,177.5C 153.101,168.357 166.768,159.19 180.5,150C 183.688,148.684 187.022,148.184 190.5,148.5 Z"/></g>
<g><path style="opacity:1" fill="#afa59f" d="M 380.5,170.5 C 382.471,179.105 383.138,188.105 382.5,197.5C 382.167,197.5 381.833,197.5 381.5,197.5C 381.737,196.209 381.404,195.209 380.5,194.5C 380.5,186.5 380.5,178.5 380.5,170.5 Z"/></g>
<g><path style="opacity:1" fill="#94a2a2" d="M 119.5,169.5 C 120.167,169.5 120.5,169.833 120.5,170.5C 120.5,181.167 120.5,191.833 120.5,202.5C 119.511,207.975 119.178,213.642 119.5,219.5C 119.167,219.5 118.833,219.5 118.5,219.5C 118.195,202.786 118.529,186.119 119.5,169.5 Z"/></g>
<g><path style="opacity:1" fill="#02e3a7" d="M 280.5,202.5 C 278.492,210.334 273.826,212.5 266.5,209C 261.237,205.119 255.737,201.619 250,198.5C 243.51,202.317 237.01,206.151 230.5,210C 224.927,211.858 221.26,210.025 219.5,204.5C 219.335,201.15 219.502,197.817 220,194.5C 226.902,188.966 234.068,183.799 241.5,179C 246.833,175.667 252.167,175.667 257.5,179C 263.5,183 269.5,187 275.5,191C 279.493,193.819 281.16,197.653 280.5,202.5 Z"/></g>
<g><path style="opacity:1" fill="#41c2a1" d="M 380.5,164.5 C 383.121,166.829 384.454,169.829 384.5,173.5C 383.629,183.814 383.296,194.148 383.5,204.5C 382.532,202.393 382.198,200.059 382.5,197.5C 383.138,188.105 382.471,179.105 380.5,170.5C 380.5,170.167 380.5,169.833 380.5,169.5C 380.5,167.833 380.5,166.167 380.5,164.5 Z"/></g>
<g><path style="opacity:1" fill="#05ae8c" d="M 58.5,193.5 C 65.4009,195.279 65.7343,197.279 59.5,199.5C 58.5344,197.604 58.2011,195.604 58.5,193.5 Z"/></g>
<g><path style="opacity:1" fill="#05a587" d="M 443.5,193.5 C 445.256,194.552 445.923,196.219 445.5,198.5C 443.396,198.799 441.396,198.466 439.5,197.5C 440.867,196.16 442.2,194.827 443.5,193.5 Z"/></g>
<g><path style="opacity:1" fill="#01e0ab" d="M 117.5,174.5 C 117.5,186.167 117.5,197.833 117.5,209.5C 115.996,212.998 113.33,214.998 109.5,215.5C 109.167,217.5 108.833,219.5 108.5,221.5C 106.473,221.662 104.473,221.495 102.5,221C 101.671,219.184 100.837,217.351 100,215.5C 99.5005,209.509 99.3338,203.509 99.5,197.5C 100.222,197.918 100.722,198.584 101,199.5C 101.503,204.19 102.17,208.857 103,213.5C 103.043,210.783 104.043,210.116 106,211.5C 108.717,209.609 111.551,208.943 114.5,209.5C 115.936,198.027 116.936,186.36 117.5,174.5 Z"/></g>
<g><path style="opacity:1" fill="#01e6b5" d="M 357.5,175.5 C 361.767,176.768 364.767,179.435 366.5,183.5C 366.5,198.833 366.5,214.167 366.5,229.5C 364.066,230.771 362.566,232.771 362,235.5C 361.692,234.692 361.192,234.025 360.5,233.5C 358.53,235.593 356.196,237.26 353.5,238.5C 352.995,236.231 351.662,234.897 349.5,234.5C 349.5,222.167 349.5,209.833 349.5,197.5C 352.237,193.759 355.57,190.759 359.5,188.5C 363.48,185.887 363.48,183.22 359.5,180.5C 359.5,179.5 359.5,178.5 359.5,177.5C 358.022,177.762 356.689,177.429 355.5,176.5C 355.957,175.702 356.624,175.369 357.5,175.5 Z"/></g>
<g><path style="opacity:1" fill="#00eab5" d="M 138.5,182.5 C 139.252,187.263 141.918,190.596 146.5,192.5C 148.142,193.803 149.809,195.136 151.5,196.5C 151.5,196.833 151.5,197.167 151.5,197.5C 151.666,207.172 151.5,216.839 151,226.5C 149.605,225.185 148.605,225.519 148,227.5C 144.846,227.089 142.013,227.089 139.5,227.5C 138.238,220.193 138.238,212.86 139.5,205.5C 139.167,204.5 138.833,203.5 138.5,202.5C 137.914,202.709 137.414,203.043 137,203.5C 135.835,196.528 135.502,189.528 136,182.5C 136.977,181.226 137.811,181.226 138.5,182.5 Z"/></g>
<g><path style="opacity:1" fill="#01e0b4" d="M 402.5,217.5 C 402.5,224.167 402.5,230.833 402.5,237.5C 397.316,235.754 391.982,234.421 386.5,233.5C 386.665,230.482 386.498,227.482 386,224.5C 385.329,223.748 384.496,223.414 383.5,223.5C 383.5,218.5 383.5,213.5 383.5,208.5C 384.052,203.507 384.885,198.507 386,193.5C 386.333,199.833 386.667,206.167 387,212.5C 390.511,214.828 394.344,216.495 398.5,217.5C 399.328,212.868 399.828,208.202 400,203.5C 400.333,208.5 400.667,213.5 401,218.5C 401.383,217.944 401.883,217.611 402.5,217.5 Z"/></g>
<g><path style="opacity:1" fill="#2db3a9" d="M 120.5,165.5 C 120.167,166.833 119.833,168.167 119.5,169.5C 118.529,186.119 118.195,202.786 118.5,219.5C 118.784,221.415 118.451,223.081 117.5,224.5C 117.5,219.5 117.5,214.5 117.5,209.5C 117.5,197.833 117.5,186.167 117.5,174.5C 117.138,170.919 118.138,167.919 120.5,165.5 Z"/></g>
<g><path style="opacity:1" fill="#045153" d="M 81.5,220.5 C 75.0738,219.88 69.0738,220.547 63.5,222.5C 62.596,221.791 62.2627,220.791 62.5,219.5C 69.0221,219.177 75.3554,219.51 81.5,220.5 Z"/></g>
<g><path style="opacity:1" fill="#01dcb1" d="M 103.5,153.5 C 100.858,168 99.5242,182.667 99.5,197.5C 99.3338,203.509 99.5005,209.509 100,215.5C 100.837,217.351 101.671,219.184 102.5,221C 104.473,221.495 106.473,221.662 108.5,221.5C 108.833,219.5 109.167,217.5 109.5,215.5C 113.33,214.998 115.996,212.998 117.5,209.5C 117.5,214.5 117.5,219.5 117.5,224.5C 117.5,224.833 117.5,225.167 117.5,225.5C 116.784,227.556 116.117,229.723 115.5,232C 111.961,232.282 108.461,232.782 105,233.5C 103.765,232.385 102.598,232.385 101.5,233.5C 101.062,230.705 100.062,228.372 98.5,226.5C 98.2094,204.14 98.5428,181.807 99.5,159.5C 100.325,157.19 101.658,155.19 103.5,153.5 Z"/></g>
<g><path style="opacity:1" fill="#03c9a9" d="M 81.5,220.5 C 81.5,221.167 81.5,221.833 81.5,222.5C 75.5,222.5 69.5,222.5 63.5,222.5C 69.0738,220.547 75.0738,219.88 81.5,220.5 Z"/></g>
<g><path style="opacity:1" fill="#28958a" d="M 381.5,197.5 C 381.833,197.5 382.167,197.5 382.5,197.5C 382.198,200.059 382.532,202.393 383.5,204.5C 383.5,205.833 383.5,207.167 383.5,208.5C 383.5,213.5 383.5,218.5 383.5,223.5C 383.5,224.167 383.5,224.833 383.5,225.5C 382.71,224.391 382.21,223.058 382,221.5C 381.5,213.507 381.334,205.507 381.5,197.5 Z"/></g>
<g><path style="opacity:1" fill="#04a08c" d="M 418.5,219.5 C 425.167,219.5 431.833,219.5 438.5,219.5C 438.5,220.5 438.5,221.5 438.5,222.5C 431.833,222.5 425.167,222.5 418.5,222.5C 418.5,221.5 418.5,220.5 418.5,219.5 Z"/></g>
<g><path style="opacity:1" fill="#037971" d="M 50.5,229.5 C 54.97,228.514 59.6367,228.181 64.5,228.5C 70.1667,228.5 75.8333,228.5 81.5,228.5C 81.5,229.5 81.5,230.5 81.5,231.5C 81.1667,231.5 80.8333,231.5 80.5,231.5C 70.8893,229.526 60.8893,228.859 50.5,229.5 Z"/></g>
<g><path style="opacity:1" fill="#03ccad" d="M 50.5,229.5 C 60.8893,228.859 70.8893,229.526 80.5,231.5C 70.1107,232.141 60.1107,231.474 50.5,229.5 Z"/></g>
<g><path style="opacity:1" fill="#059e9a" d="M 418.5,228.5 C 428.5,228.5 438.5,228.5 448.5,228.5C 448.5,229.5 448.5,230.5 448.5,231.5C 438.828,231.666 429.161,231.5 419.5,231C 418.748,230.329 418.414,229.496 418.5,228.5 Z"/></g>
<g><path style="opacity:1" fill="#01d6c1" d="M 383.5,223.5 C 384.496,223.414 385.329,223.748 386,224.5C 386.498,227.482 386.665,230.482 386.5,233.5C 391.982,234.421 397.316,235.754 402.5,237.5C 402.819,239.75 402.319,241.75 401,243.5C 397.736,242.991 394.236,242.324 390.5,241.5C 390.762,240.022 390.429,238.689 389.5,237.5C 388.051,243.817 386.718,243.484 385.5,236.5C 384.828,237.949 384.161,239.282 383.5,240.5C 383.5,235.5 383.5,230.5 383.5,225.5C 383.5,224.833 383.5,224.167 383.5,223.5 Z"/></g>
<g><path style="opacity:1" fill="#01d2c1" d="M 117.5,225.5 C 117.5,231.167 117.5,236.833 117.5,242.5C 116.883,242.389 116.383,242.056 116,241.5C 112.324,242.977 108.491,243.977 104.5,244.5C 102.199,244.016 100.199,243.016 98.5,241.5C 98.5,236.5 98.5,231.5 98.5,226.5C 100.062,228.372 101.062,230.705 101.5,233.5C 102.598,232.385 103.765,232.385 105,233.5C 108.461,232.782 111.961,232.282 115.5,232C 116.117,229.723 116.784,227.556 117.5,225.5 Z"/></g>
<g><path style="opacity:1" fill="#01e0b8" d="M 139.5,177.5 C 141.466,177.541 143.466,177.875 145.5,178.5C 143.15,179.861 140.816,181.194 138.5,182.5C 137.811,181.226 136.977,181.226 136,182.5C 135.502,189.528 135.835,196.528 137,203.5C 137.414,203.043 137.914,202.709 138.5,202.5C 138.833,203.5 139.167,204.5 139.5,205.5C 138.238,212.86 138.238,220.193 139.5,227.5C 142.013,227.089 144.846,227.089 148,227.5C 148.605,225.519 149.605,225.185 151,226.5C 151.5,216.839 151.666,207.172 151.5,197.5C 152.338,197.842 152.672,198.508 152.5,199.5C 152.5,215.833 152.5,232.167 152.5,248.5C 151.691,250.292 151.191,252.292 151,254.5C 150.667,250.833 150.333,247.167 150,243.5C 149.844,249.363 147.011,251.029 141.5,248.5C 140.534,246.604 140.201,244.604 140.5,242.5C 138.297,242.396 136.297,241.73 134.5,240.5C 134.333,220.831 134.5,201.164 135,181.5C 136.371,179.959 137.871,178.625 139.5,177.5 Z"/></g>
<g><path style="opacity:1" fill="#03c7af" d="M 419.5,237.5 C 432.544,236.853 445.211,237.52 457.5,239.5C 444.456,240.147 431.789,239.48 419.5,237.5 Z"/></g>
<g><path style="opacity:1" fill="#04bda4" d="M 81.5,237.5 C 81.5,238.5 81.5,239.5 81.5,240.5C 68.8333,240.5 56.1667,240.5 43.5,240.5C 43.5,239.5 43.5,238.5 43.5,237.5C 56.1667,237.5 68.8333,237.5 81.5,237.5 Z"/></g>
<g><path style="opacity:1" fill="#0e7686" d="M 118.5,219.5 C 118.833,219.5 119.167,219.5 119.5,219.5C 119.917,229.725 119.251,239.725 117.5,249.5C 117.5,247.167 117.5,244.833 117.5,242.5C 117.5,236.833 117.5,231.167 117.5,225.5C 117.5,225.167 117.5,224.833 117.5,224.5C 118.451,223.081 118.784,221.415 118.5,219.5 Z"/></g>
<g><path style="opacity:1" fill="#056460" d="M 419.5,237.5 C 431.789,239.48 444.456,240.147 457.5,239.5C 457.5,239.833 457.5,240.167 457.5,240.5C 444.5,240.5 431.5,240.5 418.5,240.5C 418.263,239.209 418.596,238.209 419.5,237.5 Z"/></g>
<g><path style="opacity:1" fill="#0e0f10" d="M 418.5,240.5 C 431.5,240.5 444.5,240.5 457.5,240.5C 459.201,240.966 460.701,240.966 462,240.5C 462.167,240.833 462.333,241.167 462.5,241.5C 461.624,242.251 460.624,242.751 459.5,243C 462.072,243.47 463.739,244.303 464.5,245.5C 449.167,245.5 433.833,245.5 418.5,245.5C 419.263,244.732 420.263,244.232 421.5,244C 419.574,243.578 418.574,242.411 418.5,240.5 Z"/></g>
<g><path style="opacity:1" fill="#01c7cd" d="M 98.5,241.5 C 100.199,243.016 102.199,244.016 104.5,244.5C 108.491,243.977 112.324,242.977 116,241.5C 116.383,242.056 116.883,242.389 117.5,242.5C 117.5,244.833 117.5,247.167 117.5,249.5C 117.5,250.167 117.5,250.833 117.5,251.5C 116.287,250.425 114.787,249.759 113,249.5C 109.386,249.638 105.72,249.971 102,250.5C 101.667,248.833 101.333,247.167 101,245.5C 100.329,246.252 99.4959,246.586 98.5,246.5C 98.5,244.833 98.5,243.167 98.5,241.5 Z"/></g>
<g><path style="opacity:1" fill="#04b6b8" d="M 402.5,165.5 C 403.167,165.5 403.5,165.833 403.5,166.5C 403.818,196.877 403.485,227.21 402.5,257.5C 400.952,257.179 400.285,256.179 400.5,254.5C 397.687,254.452 395.021,253.785 392.5,252.5C 391.522,252.977 390.689,253.643 390,254.5C 389.207,248.635 387.873,248.302 386,253.5C 385.878,251.563 385.045,250.23 383.5,249.5C 383.5,246.5 383.5,243.5 383.5,240.5C 384.161,239.282 384.828,237.949 385.5,236.5C 386.718,243.484 388.051,243.817 389.5,237.5C 390.429,238.689 390.762,240.022 390.5,241.5C 394.236,242.324 397.736,242.991 401,243.5C 402.319,241.75 402.819,239.75 402.5,237.5C 402.5,230.833 402.5,224.167 402.5,217.5C 402.5,200.167 402.5,182.833 402.5,165.5 Z"/></g>
<g><path style="opacity:1" fill="#02d6bc" d="M 464.5,246.5 C 464.5,247.167 464.5,247.833 464.5,248.5C 404.5,247.833 404.5,247.167 464.5,246.5 Z"/></g>
<g><path style="opacity:1" fill="#03d6b9" d="M 81.5,246.5 C 66.8706,248.484 51.8706,249.15 36.5,248.5C 51.1294,246.516 66.1294,245.85 81.5,246.5 Z"/></g>
<g><path style="opacity:1" fill="#074b4e" d="M 418.5,245.5 C 433.833,245.5 449.167,245.5 464.5,245.5C 464.5,245.833 464.5,246.167 464.5,246.5C 404.5,247.167 404.5,247.833 464.5,248.5C 449.342,249.496 434.009,249.83 418.5,249.5C 418.5,248.167 418.5,246.833 418.5,245.5 Z"/></g>
<g><path style="opacity:1" fill="#01bcd5" d="M 117.5,251.5 C 117.5,253.167 117.5,254.833 117.5,256.5C 116.566,255.432 116.232,254.099 116.5,252.5C 110.076,252.178 104.076,252.178 98.5,252.5C 98.5,250.5 98.5,248.5 98.5,246.5C 99.4959,246.586 100.329,246.252 101,245.5C 101.333,247.167 101.667,248.833 102,250.5C 105.72,249.971 109.386,249.638 113,249.5C 114.787,249.759 116.287,250.425 117.5,251.5 Z"/></g>
<g><path style="opacity:1" fill="#01b5d9" d="M 383.5,249.5 C 385.045,250.23 385.878,251.563 386,253.5C 387.873,248.302 389.207,248.635 390,254.5C 390.689,253.643 391.522,252.977 392.5,252.5C 395.021,253.785 397.687,254.452 400.5,254.5C 400.285,256.179 400.952,257.179 402.5,257.5C 402.5,259.833 402.5,262.167 402.5,264.5C 401.768,263.192 400.934,261.858 400,260.5C 397.91,261.791 396.576,261.124 396,258.5C 394,259.167 392,259.833 390,260.5C 389.784,258.616 389.117,256.949 388,255.5C 387.667,258.167 387.333,260.833 387,263.5C 386.027,261.608 385.36,259.608 385,257.5C 384.79,259.058 384.29,260.391 383.5,261.5C 383.5,257.5 383.5,253.5 383.5,249.5 Z"/></g>
<g><path style="opacity:1" fill="#0f1315" d="M 164.5,232.5 C 164.5,238.833 164.5,245.167 164.5,251.5C 165.5,251.5 166.5,251.5 167.5,251.5C 167.5,249.167 167.5,246.833 167.5,244.5C 170.187,244.664 172.854,244.497 175.5,244C 177.056,243.28 178.056,242.113 178.5,240.5C 179.302,239.048 179.802,237.382 180,235.5C 180.977,234.226 181.811,234.226 182.5,235.5C 182.343,236.873 182.51,238.207 183,239.5C 186.039,242.103 189.539,243.769 193.5,244.5C 194.429,245.689 194.762,247.022 194.5,248.5C 191.813,248.664 189.146,248.497 186.5,248C 185.692,246.294 184.359,245.461 182.5,245.5C 182.393,247.903 183.393,249.736 185.5,251C 190.152,252.193 194.319,251.36 198,248.5C 199.271,244.834 198.104,242.334 194.5,241C 192.5,240.667 190.5,240.333 188.5,240C 186.963,238.89 186.297,237.39 186.5,235.5C 190.415,235.247 194.081,235.913 197.5,237.5C 199.745,237.459 200.412,236.625 199.5,235C 200.448,234.517 201.448,234.351 202.5,234.5C 202.5,240.167 202.5,245.833 202.5,251.5C 207.167,251.5 211.833,251.5 216.5,251.5C 216.5,250.5 216.5,249.5 216.5,248.5C 213.167,248.5 209.833,248.5 206.5,248.5C 206.5,246.833 206.5,245.167 206.5,243.5C 209.167,243.5 211.833,243.5 214.5,243.5C 214.5,242.5 214.5,241.5 214.5,240.5C 211.833,240.5 209.167,240.5 206.5,240.5C 206.5,238.833 206.5,237.167 206.5,235.5C 209.833,235.5 213.167,235.5 216.5,235.5C 216.5,234.5 216.5,233.5 216.5,232.5C 217.268,233.263 217.768,234.263 218,235.5C 218.377,234.058 219.21,233.058 220.5,232.5C 220.334,237.179 220.501,241.845 221,246.5C 222.399,250.238 225.066,251.904 229,251.5C 232.545,251.961 235.212,250.628 237,247.5C 237.499,242.511 237.666,237.511 237.5,232.5C 236.167,232.5 234.833,232.5 233.5,232.5C 233.666,237.511 233.499,242.511 233,247.5C 230.333,248.833 227.667,248.833 225,247.5C 224.501,242.511 224.334,237.511 224.5,232.5C 224.938,232.565 225.272,232.399 225.5,232C 222.986,230.748 220.32,230.248 217.5,230.5C 217.662,228.473 217.495,226.473 217,224.5C 214.815,223.33 212.649,222.164 210.5,221C 211.308,220.692 211.975,220.192 212.5,219.5C 211.5,218.667 210.5,217.833 209.5,217C 210.894,215.261 211.561,213.261 211.5,211C 210.797,208.171 210.63,205.338 211,202.5C 212.011,201.663 213.178,201.33 214.5,201.5C 214.149,199.131 213.982,196.797 214,194.5C 214.741,195.641 215.575,195.641 216.5,194.5C 217.717,197.891 218.717,201.224 219.5,204.5C 221.26,210.025 224.927,211.858 230.5,210C 237.01,206.151 243.51,202.317 250,198.5C 255.737,201.619 261.237,205.119 266.5,209C 273.826,212.5 278.492,210.334 280.5,202.5C 283.315,201.771 285.315,200.771 286.5,199.5C 286.777,202.448 286.444,205.281 285.5,208C 287.607,210.656 288.941,213.656 289.5,217C 288.747,218.487 287.914,218.654 287,217.5C 285.875,220.89 284.375,224.057 282.5,227C 278.945,226.657 278.612,227.99 281.5,231C 281.612,233.17 281.278,235.336 280.5,237.5C 277.366,232.881 273.032,231.381 267.5,233C 261.82,237.568 260.987,243.068 265,249.5C 268.243,251.263 271.743,251.929 275.5,251.5C 277.129,253.06 278.296,252.727 279,250.5C 280.019,251.687 281.186,252.687 282.5,253.5C 284.438,250.921 286.271,250.921 288,253.5C 290.277,252.883 292.444,252.216 294.5,251.5C 296.5,250.167 298.5,250.167 300.5,251.5C 301.479,248.375 301.813,245.042 301.5,241.5C 298.615,241.194 295.948,241.527 293.5,242.5C 294.183,244.176 295.517,244.843 297.5,244.5C 297.67,245.822 297.337,246.989 296.5,248C 294.167,248.667 291.833,248.667 289.5,248C 287.571,244.744 287.071,241.244 288,237.5C 291.775,234.711 295.275,235.045 298.5,238.5C 299.209,239.404 300.209,239.737 301.5,239.5C 301.343,238.127 301.51,236.793 302,235.5C 303.016,236.634 303.683,236.301 304,234.5C 304.173,240.348 304.673,246.015 305.5,251.5C 305.833,251.5 306.167,251.5 306.5,251.5C 310.971,252.089 314.971,251.423 318.5,249.5C 315.713,248.523 312.713,248.19 309.5,248.5C 309.5,246.833 309.5,245.167 309.5,243.5C 312.059,243.802 314.393,243.468 316.5,242.5C 314.365,240.631 311.698,239.964 308.5,240.5C 308.5,238.833 308.5,237.167 308.5,235.5C 311.833,235.5 315.167,235.5 318.5,235.5C 318.5,234.5 318.5,233.5 318.5,232.5C 314.167,232.5 309.833,232.5 305.5,232.5C 310.623,230.592 315.956,230.258 321.5,231.5C 320.019,232.944 320.352,233.611 322.5,233.5C 322.177,239.69 322.51,245.69 323.5,251.5C 325.268,247.956 326.102,243.956 326,239.5C 329.053,242.887 331.72,246.553 334,250.5C 335.011,251.337 336.178,251.67 337.5,251.5C 337.898,243.813 338.898,236.147 340.5,228.5C 339.5,227.833 338.5,227.167 337.5,226.5C 340.279,225.327 340.946,223.493 339.5,221C 342.826,215.448 343.826,209.781 342.5,204C 343.045,200.987 344.211,200.821 346,203.5C 346.333,202.5 346.667,201.5 347,200.5C 347.168,227.003 347.668,253.337 348.5,279.5C 348.491,281.308 348.991,282.975 350,284.5C 354.333,288.167 358.667,291.833 363,295.5C 363.49,296.793 363.657,298.127 363.5,299.5C 361.772,301.226 359.772,302.559 357.5,303.5C 355.801,303.66 354.134,303.494 352.5,303C 352.833,302.667 353.167,302.333 353.5,302C 351.117,301.935 350.45,301.102 351.5,299.5C 349.614,298.594 347.78,297.594 346,296.5C 345.586,296.957 345.086,297.291 344.5,297.5C 344.324,295.328 344.157,292.995 344,290.5C 343.667,290.167 343.333,289.833 343,289.5C 342.517,290.448 342.351,291.448 342.5,292.5C 341.127,292.657 339.793,292.49 338.5,292C 339.337,290.989 339.67,289.822 339.5,288.5C 340.5,288.5 341.5,288.5 342.5,288.5C 341.101,282.495 338.934,277.162 336,272.5C 335.503,270.19 335.337,267.857 335.5,265.5C 334.5,265.5 333.5,265.5 332.5,265.5C 332.5,264.5 332.5,263.5 332.5,262.5C 325.49,262.668 318.49,263.001 311.5,263.5C 311.719,264.675 311.386,265.675 310.5,266.5C 309.449,265.115 308.116,264.115 306.5,263.5C 304.979,263.88 303.313,264.046 301.5,264C 300.874,264.75 300.374,265.584 300,266.5C 296.87,263.878 293.703,263.878 290.5,266.5C 289.174,265.01 287.674,263.676 286,262.5C 285.667,262.833 285.333,263.167 285,263.5C 283.812,262.437 283.312,261.103 283.5,259.5C 282.5,259.5 281.5,259.5 280.5,259.5C 279.744,261.613 279.577,263.613 280,265.5C 279.333,266.167 278.667,266.833 278,267.5C 277.23,266.402 276.397,266.402 275.5,267.5C 272.887,266.565 270.221,266.398 267.5,267C 261.736,270.964 255.902,274.797 250,278.5C 245.062,276.044 240.562,273.044 236.5,269.5C 236.435,267.304 235.768,265.304 234.5,263.5C 231.123,265.325 227.457,265.992 223.5,265.5C 222.487,261.287 221.153,260.954 219.5,264.5C 216.477,262.839 214.143,263.505 212.5,266.5C 211.646,265.478 210.646,264.645 209.5,264C 205.646,263.646 201.812,263.146 198,262.5C 193.862,263.497 189.696,263.664 185.5,263C 183.95,260.475 181.783,258.641 179,257.5C 178.517,256.552 178.351,255.552 178.5,254.5C 176.799,254.966 175.299,254.966 174,254.5C 172.456,257.905 171.289,261.405 170.5,265C 168.568,265.138 166.734,264.638 165,263.5C 164.085,264.328 163.419,265.328 163,266.5C 162.667,265.833 162.333,265.167 162,264.5C 161,264.833 160,265.167 159,265.5C 158.583,268.284 159.75,270.284 162.5,271.5C 161.551,277.857 160.385,284.19 159,290.5C 158.667,289.833 158.333,289.167 158,288.5C 157.598,289.872 157.098,291.205 156.5,292.5C 157.246,293.736 157.579,295.07 157.5,296.5C 155.5,297.167 153.5,297.833 151.5,298.5C 151.822,300.722 151.155,302.556 149.5,304C 152.028,304.669 152.028,305.502 149.5,306.5C 148.585,305.672 147.919,304.672 147.5,303.5C 144.789,302.961 142.623,301.628 141,299.5C 140.667,299.833 140.333,300.167 140,300.5C 138.204,298.598 138.037,296.598 139.5,294.5C 142.039,291.81 145.039,289.643 148.5,288C 149.956,286.255 151.289,284.422 152.5,282.5C 153.829,254.67 153.829,227.003 152.5,199.5C 152.672,198.508 152.338,197.842 151.5,197.5C 151.5,197.167 151.5,196.833 151.5,196.5C 151.369,195.761 151.536,195.094 152,194.5C 152.789,196.58 153.956,198.414 155.5,200C 157.202,204.488 159.202,208.821 161.5,213C 160.919,213.893 160.585,214.893 160.5,216C 160.969,217.887 161.969,219.387 163.5,220.5C 162.737,221.719 161.737,222.719 160.5,223.5C 161.829,227.202 163.162,230.202 164.5,232.5 Z"/></g>
<g><path style="opacity:1" fill="#718b96" d="M 316.5,242.5 C 314.393,243.468 312.059,243.802 309.5,243.5C 309.5,245.167 309.5,246.833 309.5,248.5C 312.713,248.19 315.713,248.523 318.5,249.5C 315.167,249.5 311.833,249.5 308.5,249.5C 308.5,247.167 308.5,244.833 308.5,242.5C 311.167,242.5 313.833,242.5 316.5,242.5 Z"/></g>
<g><path style="opacity:1" fill="#ebeeef" d="M 308.5,235.5 C 308.5,237.167 308.5,238.833 308.5,240.5C 311.698,239.964 314.365,240.631 316.5,242.5C 313.833,242.5 311.167,242.5 308.5,242.5C 308.5,244.833 308.5,247.167 308.5,249.5C 311.833,249.5 315.167,249.5 318.5,249.5C 314.971,251.423 310.971,252.089 306.5,251.5C 306.5,245.5 306.5,239.5 306.5,233.5C 310.182,233.335 313.848,233.501 317.5,234C 314.305,234.181 311.305,234.681 308.5,235.5 Z"/></g>
<g><path style="opacity:1" fill="#cacccd" d="M 220.5,232.5 C 221.833,232.5 223.167,232.5 224.5,232.5C 224.334,237.511 224.501,242.511 225,247.5C 227.667,248.833 230.333,248.833 233,247.5C 233.499,242.511 233.666,237.511 233.5,232.5C 234.833,232.5 236.167,232.5 237.5,232.5C 237.666,237.511 237.499,242.511 237,247.5C 235.212,250.628 232.545,251.961 229,251.5C 225.066,251.904 222.399,250.238 221,246.5C 220.501,241.845 220.334,237.179 220.5,232.5 Z"/></g>
<g><path style="opacity:1" fill="#d7d8d9" d="M 298.5,238.5 C 295.275,235.045 291.775,234.711 288,237.5C 287.071,241.244 287.571,244.744 289.5,248C 291.833,248.667 294.167,248.667 296.5,248C 297.337,246.989 297.67,245.822 297.5,244.5C 295.517,244.843 294.183,244.176 293.5,242.5C 295.833,242.5 298.167,242.5 300.5,242.5C 300.5,245.5 300.5,248.5 300.5,251.5C 298.5,250.167 296.5,250.167 294.5,251.5C 291.398,251.846 288.565,251.179 286,249.5C 282.552,244.206 282.718,239.04 286.5,234C 291.363,231.671 295.863,232.171 300,235.5C 300.725,237.157 300.225,238.157 298.5,238.5 Z"/></g>
<g><path style="opacity:1" fill="#778688" d="M 293.5,242.5 C 295.948,241.527 298.615,241.194 301.5,241.5C 301.813,245.042 301.479,248.375 300.5,251.5C 300.5,248.5 300.5,245.5 300.5,242.5C 298.167,242.5 295.833,242.5 293.5,242.5 Z"/></g>
<g><path style="opacity:1" fill="#e3e5e4" d="M 164.5,232.5 C 168.182,232.335 171.848,232.501 175.5,233C 178.041,234.848 179.041,237.348 178.5,240.5C 178.056,242.113 177.056,243.28 175.5,244C 172.854,244.497 170.187,244.664 167.5,244.5C 167.5,246.833 167.5,249.167 167.5,251.5C 166.5,251.5 165.5,251.5 164.5,251.5C 164.5,245.167 164.5,238.833 164.5,232.5 Z"/></g>
<g><path style="opacity:1" fill="#dddfe0" d="M 337.5,251.5 C 336.178,251.67 335.011,251.337 334,250.5C 331.72,246.553 329.053,242.887 326,239.5C 326.102,243.956 325.268,247.956 323.5,251.5C 322.88,245.074 323.547,239.074 325.5,233.5C 328.313,237.098 331.147,240.765 334,244.5C 334.499,240.514 334.666,236.514 334.5,232.5C 335.5,232.5 336.5,232.5 337.5,232.5C 337.5,238.833 337.5,245.167 337.5,251.5 Z"/></g>
<g><path style="opacity:1" fill="#b7bcc6" d="M 305.5,232.5 C 309.833,232.5 314.167,232.5 318.5,232.5C 318.5,233.5 318.5,234.5 318.5,235.5C 315.167,235.5 311.833,235.5 308.5,235.5C 311.305,234.681 314.305,234.181 317.5,234C 313.848,233.501 310.182,233.335 306.5,233.5C 306.5,239.5 306.5,245.5 306.5,251.5C 306.167,251.5 305.833,251.5 305.5,251.5C 305.5,245.167 305.5,238.833 305.5,232.5 Z"/></g>
<g><path style="opacity:1" fill="#dddcdd" d="M 280.5,237.5 C 281.698,243.398 280.032,248.065 275.5,251.5C 271.743,251.929 268.243,251.263 265,249.5C 260.987,243.068 261.82,237.568 267.5,233C 273.032,231.381 277.366,232.881 280.5,237.5 Z"/></g>
<g><path style="opacity:1" fill="#c4cbce" d="M 216.5,232.5 C 216.5,233.5 216.5,234.5 216.5,235.5C 213.167,235.5 209.833,235.5 206.5,235.5C 206.5,237.167 206.5,238.833 206.5,240.5C 209.167,240.5 211.833,240.5 214.5,240.5C 214.5,241.5 214.5,242.5 214.5,243.5C 211.833,243.5 209.167,243.5 206.5,243.5C 206.5,245.167 206.5,246.833 206.5,248.5C 209.833,248.5 213.167,248.5 216.5,248.5C 216.5,249.5 216.5,250.5 216.5,251.5C 211.833,251.5 207.167,251.5 202.5,251.5C 202.5,245.833 202.5,240.167 202.5,234.5C 206.715,232.564 211.381,231.897 216.5,232.5 Z"/></g>
<g><path style="opacity:1" fill="#dfdfe0" d="M 242.5,232.5 C 248.403,231.488 253.57,232.821 258,236.5C 260.345,241.595 259.512,246.095 255.5,250C 251.3,251.367 246.967,251.867 242.5,251.5C 242.5,245.167 242.5,238.833 242.5,232.5 Z"/></g>
<g><path style="opacity:1" fill="#d4d4d6" d="M 197.5,237.5 C 194.081,235.913 190.415,235.247 186.5,235.5C 186.297,237.39 186.963,238.89 188.5,240C 190.5,240.333 192.5,240.667 194.5,241C 198.104,242.334 199.271,244.834 198,248.5C 194.319,251.36 190.152,252.193 185.5,251C 183.393,249.736 182.393,247.903 182.5,245.5C 184.359,245.461 185.692,246.294 186.5,248C 189.146,248.497 191.813,248.664 194.5,248.5C 194.762,247.022 194.429,245.689 193.5,244.5C 189.539,243.769 186.039,242.103 183,239.5C 182.51,238.207 182.343,236.873 182.5,235.5C 183.962,234.542 185.295,233.376 186.5,232C 191.85,230.675 195.517,232.508 197.5,237.5 Z"/></g>
<g><path style="opacity:1" fill="#968f91" d="M 325.5,233.5 C 323.547,239.074 322.88,245.074 323.5,251.5C 322.51,245.69 322.177,239.69 322.5,233.5C 323.5,232.167 324.5,232.167 325.5,233.5 Z"/></g>
<g><path style="opacity:1" fill="#0f1111" d="M 252.5,236.5 C 253.458,236.953 254.292,237.619 255,238.5C 256.999,245.998 254.166,249.332 246.5,248.5C 246.5,244.5 246.5,240.5 246.5,236.5C 248.5,236.5 250.5,236.5 252.5,236.5 Z"/></g>
<g><path style="opacity:1" fill="#3b4e51" d="M 252.5,236.5 C 250.5,236.5 248.5,236.5 246.5,236.5C 246.5,240.5 246.5,244.5 246.5,248.5C 245.515,244.366 245.182,240.032 245.5,235.5C 248.059,235.198 250.393,235.532 252.5,236.5 Z"/></g>
<g><path style="opacity:1" fill="#131618" d="M 268.5,235.5 C 277.578,235.687 279.912,239.854 275.5,248C 269.372,250.029 266.038,247.863 265.5,241.5C 265.628,239.045 266.628,237.045 268.5,235.5 Z"/></g>
<g><path style="opacity:1" fill="#141617" d="M 167.5,235.5 C 169.857,235.337 172.19,235.503 174.5,236C 175.833,237.667 175.833,239.333 174.5,241C 172.19,241.497 169.857,241.663 167.5,241.5C 167.5,239.5 167.5,237.5 167.5,235.5 Z"/></g>
<g><path style="opacity:1" fill="#01b2de" d="M 117.5,256.5 C 117.5,256.833 117.5,257.167 117.5,257.5C 112.238,257.032 107.072,257.032 102,257.5C 100.887,258.305 99.7206,258.972 98.5,259.5C 98.5,257.167 98.5,254.833 98.5,252.5C 104.076,252.178 110.076,252.178 116.5,252.5C 116.232,254.099 116.566,255.432 117.5,256.5 Z"/></g>
<g><path style="opacity:1" fill="#01d0b2" d="M 134.5,240.5 C 136.297,241.73 138.297,242.396 140.5,242.5C 140.201,244.604 140.534,246.604 141.5,248.5C 147.011,251.029 149.844,249.363 150,243.5C 150.333,247.167 150.667,250.833 151,254.5C 151.191,252.292 151.691,250.292 152.5,248.5C 152.848,255.906 152.348,263.239 151,270.5C 150.667,268.833 150.333,267.167 150,265.5C 149.333,267.5 148.667,269.5 148,271.5C 145.657,270.873 143.49,269.873 141.5,268.5C 140.808,269.025 140.308,269.692 140,270.5C 139.667,266.5 139.333,262.5 139,258.5C 138.135,265.93 136.635,266.263 134.5,259.5C 134.5,253.167 134.5,246.833 134.5,240.5 Z"/></g>
<g><path style="opacity:1" fill="#0e181b" d="M 236.5,269.5 C 224.859,263.798 219.192,267.465 219.5,280.5C 218.732,279.737 218.232,278.737 218,277.5C 213.516,283.358 211.683,290.025 212.5,297.5C 216.157,297.12 217.157,298.453 215.5,301.5C 215.719,302.938 216.219,304.271 217,305.5C 217.368,304.09 218.201,303.09 219.5,302.5C 221.69,304.856 223.69,307.356 225.5,310C 226.5,310.333 227.5,310.667 228.5,311C 227.663,312.011 227.33,313.178 227.5,314.5C 230.487,314.998 233.487,315.498 236.5,316C 237.167,317 237.833,318 238.5,319C 241.92,319.583 245.087,320.75 248,322.5C 251.076,321.236 254.243,320.236 257.5,319.5C 258.035,317.729 258.869,317.396 260,318.5C 260.915,317.672 261.581,316.672 262,315.5C 262.333,315.833 262.667,316.167 263,316.5C 264.734,315.751 266.567,315.251 268.5,315C 269.337,313.989 269.67,312.822 269.5,311.5C 271.5,310.833 273.5,310.167 275.5,309.5C 275.117,306.538 276.117,305.538 278.5,306.5C 279.833,305.833 281.167,305.167 282.5,304.5C 284.031,297.946 285.698,291.446 287.5,285C 285.09,280.276 282.923,276.109 281,272.5C 280.817,275.365 280.317,278.031 279.5,280.5C 280.465,275.317 279.132,270.984 275.5,267.5C 276.397,266.402 277.23,266.402 278,267.5C 278.667,266.833 279.333,266.167 280,265.5C 279.577,263.613 279.744,261.613 280.5,259.5C 281.5,259.5 282.5,259.5 283.5,259.5C 283.312,261.103 283.812,262.437 285,263.5C 285.333,263.167 285.667,262.833 286,262.5C 287.674,263.676 289.174,265.01 290.5,266.5C 293.703,263.878 296.87,263.878 300,266.5C 300.374,265.584 300.874,264.75 301.5,264C 303.313,264.046 304.979,263.88 306.5,263.5C 308.116,264.115 309.449,265.115 310.5,266.5C 311.386,265.675 311.719,264.675 311.5,263.5C 318.49,263.001 325.49,262.668 332.5,262.5C 332.5,263.5 332.5,264.5 332.5,265.5C 333.5,265.5 334.5,265.5 335.5,265.5C 335.337,267.857 335.503,270.19 336,272.5C 338.934,277.162 341.101,282.495 342.5,288.5C 341.5,288.5 340.5,288.5 339.5,288.5C 339.67,289.822 339.337,290.989 338.5,292C 339.793,292.49 341.127,292.657 342.5,292.5C 342.351,291.448 342.517,290.448 343,289.5C 343.333,289.833 343.667,290.167 344,290.5C 344.157,292.995 344.324,295.328 344.5,297.5C 345.086,297.291 345.586,296.957 346,296.5C 347.78,297.594 349.614,298.594 351.5,299.5C 350.45,301.102 351.117,301.935 353.5,302C 353.167,302.333 352.833,302.667 352.5,303C 354.134,303.494 355.801,303.66 357.5,303.5C 344.041,312.735 330.375,321.735 316.5,330.5C 314.836,329.051 314.002,327.051 314,324.5C 313.292,323.619 312.458,322.953 311.5,322.5C 308.796,319.697 305.463,318.863 301.5,320C 287.5,328.667 273.5,337.333 259.5,346C 253.676,350.147 247.676,350.48 241.5,347C 227.167,338 212.833,329 198.5,320C 195.5,319.333 192.5,319.333 189.5,320C 188.619,320.708 187.953,321.542 187.5,322.5C 185.697,324.84 184.03,327.173 182.5,329.5C 167.851,320.527 153.184,311.527 138.5,302.5C 135.612,299.396 135.945,296.729 139.5,294.5C 138.037,296.598 138.204,298.598 140,300.5C 140.333,300.167 140.667,299.833 141,299.5C 142.623,301.628 144.789,302.961 147.5,303.5C 147.919,304.672 148.585,305.672 149.5,306.5C 152.028,305.502 152.028,304.669 149.5,304C 151.155,302.556 151.822,300.722 151.5,298.5C 153.5,297.833 155.5,297.167 157.5,296.5C 157.579,295.07 157.246,293.736 156.5,292.5C 157.098,291.205 157.598,289.872 158,288.5C 158.333,289.167 158.667,289.833 159,290.5C 160.385,284.19 161.551,277.857 162.5,271.5C 159.75,270.284 158.583,268.284 159,265.5C 160,265.167 161,264.833 162,264.5C 162.333,265.167 162.667,265.833 163,266.5C 163.419,265.328 164.085,264.328 165,263.5C 166.734,264.638 168.568,265.138 170.5,265C 171.289,261.405 172.456,257.905 174,254.5C 175.299,254.966 176.799,254.966 178.5,254.5C 178.351,255.552 178.517,256.552 179,257.5C 181.783,258.641 183.95,260.475 185.5,263C 189.696,263.664 193.862,263.497 198,262.5C 201.812,263.146 205.646,263.646 209.5,264C 210.646,264.645 211.646,265.478 212.5,266.5C 214.143,263.505 216.477,262.839 219.5,264.5C 221.153,260.954 222.487,261.287 223.5,265.5C 227.457,265.992 231.123,265.325 234.5,263.5C 235.768,265.304 236.435,267.304 236.5,269.5 Z"/></g>
<g><path style="opacity:1" fill="#02cdae" d="M 43.5,255.5 C 56.1842,255.168 68.8508,255.501 81.5,256.5C 75.1667,256.833 68.8333,257.167 62.5,257.5C 55.7963,257.496 49.463,256.83 43.5,255.5 Z"/></g>
<g><path style="opacity:1" fill="#01a6e1" d="M 117.5,257.5 C 117.5,259.833 117.5,262.167 117.5,264.5C 116.71,263.391 116.21,262.058 116,260.5C 110.259,261.591 104.426,262.258 98.5,262.5C 98.5,261.5 98.5,260.5 98.5,259.5C 99.7206,258.972 100.887,258.305 102,257.5C 107.072,257.032 112.238,257.032 117.5,257.5 Z"/></g>
<g><path style="opacity:1" fill="#0b5b70" d="M 380.5,194.5 C 381.404,195.209 381.737,196.209 381.5,197.5C 381.334,205.507 381.5,213.507 382,221.5C 382.21,223.058 382.71,224.391 383.5,225.5C 383.5,230.5 383.5,235.5 383.5,240.5C 383.5,243.5 383.5,246.5 383.5,249.5C 383.5,253.5 383.5,257.5 383.5,261.5C 383.5,263.833 383.5,266.167 383.5,268.5C 383.5,274.167 383.5,279.833 383.5,285.5C 383.78,294.886 383.447,304.22 382.5,313.5C 381.5,313.5 380.5,313.5 379.5,313.5C 380.488,273.876 380.822,234.209 380.5,194.5 Z"/></g>
<g><path style="opacity:1" fill="#019ae7" d="M 117.5,264.5 C 117.5,264.833 117.5,265.167 117.5,265.5C 112.103,265.812 106.437,266.478 100.5,267.5C 99.8165,267.137 99.1499,266.804 98.5,266.5C 98.5,265.167 98.5,263.833 98.5,262.5C 104.426,262.258 110.259,261.591 116,260.5C 116.21,262.058 116.71,263.391 117.5,264.5 Z"/></g>
<g><path style="opacity:1" fill="#02a0e2" d="M 402.5,264.5 C 402.5,267.5 402.5,270.5 402.5,273.5C 399.663,275.172 398.996,274.506 400.5,271.5C 397.487,270.867 394.654,269.867 392,268.5C 389.332,268.833 386.499,268.833 383.5,268.5C 383.5,266.167 383.5,263.833 383.5,261.5C 384.29,260.391 384.79,259.058 385,257.5C 385.36,259.608 386.027,261.608 387,263.5C 387.333,260.833 387.667,258.167 388,255.5C 389.117,256.949 389.784,258.616 390,260.5C 392,259.833 394,259.167 396,258.5C 396.576,261.124 397.91,261.791 400,260.5C 400.934,261.858 401.768,263.192 402.5,264.5 Z"/></g>
<g><path style="opacity:1" fill="#05ab9c" d="M 51.5,263.5 C 61.5,263.5 71.5,263.5 81.5,263.5C 81.5,264.5 81.5,265.5 81.5,266.5C 71.5,266.5 61.5,266.5 51.5,266.5C 51.5,265.5 51.5,264.5 51.5,263.5 Z"/></g>
<g><path style="opacity:1" fill="#04a69a" d="M 434.5,263.5 C 439.833,263.5 445.167,263.5 450.5,263.5C 450.737,264.791 450.404,265.791 449.5,266.5C 439.167,266.5 428.833,266.5 418.5,266.5C 418.5,265.5 418.5,264.5 418.5,263.5C 423.833,263.5 429.167,263.5 434.5,263.5 Z"/></g>
<g><path style="opacity:1" fill="#0f5269" d="M 120.5,202.5 C 120.5,234.5 120.5,266.5 120.5,298.5C 120.26,304.227 120.593,309.894 121.5,315.5C 120.833,315.833 120.167,316.167 119.5,316.5C 119.672,315.508 119.338,314.842 118.5,314.5C 118.83,297.991 118.496,281.658 117.5,265.5C 117.5,265.167 117.5,264.833 117.5,264.5C 117.5,262.167 117.5,259.833 117.5,257.5C 117.5,257.167 117.5,256.833 117.5,256.5C 117.5,254.833 117.5,253.167 117.5,251.5C 117.5,250.833 117.5,250.167 117.5,249.5C 119.251,239.725 119.917,229.725 119.5,219.5C 119.178,213.642 119.511,207.975 120.5,202.5 Z"/></g>
<g><path style="opacity:1" fill="#0f1213" d="M 418.5,275.5 C 424.5,275.5 430.5,275.5 436.5,275.5C 436.737,274.209 436.404,273.209 435.5,272.5C 430.684,271.674 425.684,271.174 420.5,271C 420.833,270 421.167,269 421.5,268C 431.009,267.83 440.342,267.33 449.5,266.5C 450.404,265.791 450.737,264.791 450.5,263.5C 445.167,263.5 439.833,263.5 434.5,263.5C 428.172,262.973 421.839,261.806 415.5,260C 416.167,259.667 416.833,259.333 417.5,259C 416.446,257.612 416.28,256.112 417,254.5C 417.232,255.737 417.732,256.737 418.5,257.5C 418.833,257.5 419.167,257.5 419.5,257.5C 431.833,257.5 444.167,257.5 456.5,257.5C 457.404,256.791 457.737,255.791 457.5,254.5C 444.5,254.5 431.5,254.5 418.5,254.5C 418.082,253.778 417.416,253.278 416.5,253C 419.19,252.665 419.857,251.499 418.5,249.5C 434.009,249.83 449.342,249.496 464.5,248.5C 466.124,246.863 467.124,247.197 467.5,249.5C 468.027,252.308 468.027,254.975 467.5,257.5C 466.224,258.645 464.891,258.645 463.5,257.5C 462.726,263.236 459.392,266.236 453.5,266.5C 452.96,267.748 452.293,268.915 451.5,270C 453.004,271.337 454.004,273.004 454.5,275C 452.953,275.333 451.62,274.833 450.5,273.5C 449.305,275.297 447.638,276.297 445.5,276.5C 445.5,277.5 445.5,278.5 445.5,279.5C 443.799,279.966 442.299,279.966 441,279.5C 437.758,282.933 433.925,285.6 429.5,287.5C 424.887,286.721 420.22,286.221 415.5,286C 415.833,285.667 416.167,285.333 416.5,285C 415.643,284.311 414.977,283.478 414.5,282.5C 414.72,279.849 416.053,277.515 418.5,275.5 Z"/></g>
<g><path style="opacity:1" fill="#05696b" d="M 418.5,254.5 C 431.5,254.5 444.5,254.5 457.5,254.5C 457.737,255.791 457.404,256.791 456.5,257.5C 450.705,256.17 444.538,255.504 438,255.5C 431.462,255.504 425.295,256.17 419.5,257.5C 419.167,257.5 418.833,257.5 418.5,257.5C 418.5,256.5 418.5,255.5 418.5,254.5 Z"/></g>
<g><path style="opacity:1" fill="#02ccac" d="M 456.5,257.5 C 444.167,257.5 431.833,257.5 419.5,257.5C 425.295,256.17 431.462,255.504 438,255.5C 444.538,255.504 450.705,256.17 456.5,257.5 Z"/></g>
<g><path style="opacity:1" fill="#0282da" d="M 117.5,265.5 C 118.496,281.658 118.83,297.991 118.5,314.5C 117.549,313.081 117.216,311.415 117.5,309.5C 117.5,302.833 117.5,296.167 117.5,289.5C 117.5,286.833 117.5,284.167 117.5,281.5C 117.736,278.171 116.903,275.171 115,272.5C 110.712,272.619 106.212,272.619 101.5,272.5C 101.532,274.619 100.532,275.952 98.5,276.5C 98.5,273.167 98.5,269.833 98.5,266.5C 99.1499,266.804 99.8165,267.137 100.5,267.5C 106.437,266.478 112.103,265.812 117.5,265.5 Z"/></g>
<g><path style="opacity:1" fill="#02e1a7" d="M 236.5,269.5 C 240.562,273.044 245.062,276.044 250,278.5C 255.902,274.797 261.736,270.964 267.5,267C 270.221,266.398 272.887,266.565 275.5,267.5C 279.132,270.984 280.465,275.317 279.5,280.5C 278.432,283.075 276.765,285.242 274.5,287C 268.663,290.418 262.996,294.084 257.5,298C 255.232,299.552 252.732,300.385 250,300.5C 244.752,299.293 239.919,297.127 235.5,294C 231.5,291.333 227.5,288.667 223.5,286C 222.035,284.226 220.702,282.392 219.5,280.5C 219.192,267.465 224.859,263.798 236.5,269.5 Z"/></g>
<g><path style="opacity:1" fill="#018aea" d="M 383.5,268.5 C 386.499,268.833 389.332,268.833 392,268.5C 394.654,269.867 397.487,270.867 400.5,271.5C 398.996,274.506 399.663,275.172 402.5,273.5C 402.5,276.167 402.5,278.833 402.5,281.5C 401.199,280.36 400.032,279.027 399,277.5C 395.963,277.652 392.963,278.652 390,280.5C 389.751,279.376 389.251,278.376 388.5,277.5C 387.284,276.998 386.117,276.665 385,276.5C 384.505,278.473 384.338,280.473 384.5,282.5C 384.737,283.791 384.404,284.791 383.5,285.5C 383.5,279.833 383.5,274.167 383.5,268.5 Z"/></g>
<g><path style="opacity:1" fill="#02a791" d="M 366.5,183.5 C 367.829,223.069 367.829,262.736 366.5,302.5C 366.167,302.5 365.833,302.5 365.5,302.5C 365.66,300.801 365.494,299.134 365,297.5C 364.722,298.416 364.222,299.082 363.5,299.5C 363.657,298.127 363.49,296.793 363,295.5C 358.667,291.833 354.333,288.167 350,284.5C 348.991,282.975 348.491,281.308 348.5,279.5C 348.169,251.995 348.502,224.662 349.5,197.5C 349.5,209.833 349.5,222.167 349.5,234.5C 349.5,239.167 349.5,243.833 349.5,248.5C 349.207,254.893 349.54,261.227 350.5,267.5C 357.158,269.881 362.325,268.214 366,262.5C 366.5,252.839 366.666,243.172 366.5,233.5C 366.5,232.167 366.5,230.833 366.5,229.5C 366.5,214.167 366.5,198.833 366.5,183.5 Z"/></g>
<g><path style="opacity:1" fill="#00cdad" d="M 366.5,233.5 C 366.666,243.172 366.5,252.839 366,262.5C 362.325,268.214 357.158,269.881 350.5,267.5C 349.54,261.227 349.207,254.893 349.5,248.5C 354.336,249.822 359.003,250.322 363.5,250C 364,249.5 364.5,249 365,248.5C 365.174,243.316 365.674,238.316 366.5,233.5 Z"/></g>
<g><path style="opacity:1" fill="#00dab3" d="M 366.5,229.5 C 366.5,230.833 366.5,232.167 366.5,233.5C 365.674,238.316 365.174,243.316 365,248.5C 364.5,249 364,249.5 363.5,250C 359.003,250.322 354.336,249.822 349.5,248.5C 349.5,243.833 349.5,239.167 349.5,234.5C 351.662,234.897 352.995,236.231 353.5,238.5C 356.196,237.26 358.53,235.593 360.5,233.5C 361.192,234.025 361.692,234.692 362,235.5C 362.566,232.771 364.066,230.771 366.5,229.5 Z"/></g>
<g><path style="opacity:1" fill="#02b692" d="M 65.5,273.5 C 70.8746,273.172 76.2079,273.505 81.5,274.5C 78.8333,274.833 76.1667,275.167 73.5,275.5C 70.4098,275.478 67.7432,274.812 65.5,273.5 Z"/></g>
<g><path style="opacity:1" fill="#049a89" d="M 435.5,272.5 C 436.404,273.209 436.737,274.209 436.5,275.5C 430.5,275.5 424.5,275.5 418.5,275.5C 418.5,274.5 418.5,273.5 418.5,272.5C 424.167,272.5 429.833,272.5 435.5,272.5 Z"/></g>
<g><path style="opacity:1" fill="#03a892" d="M 152.5,199.5 C 153.829,227.003 153.829,254.67 152.5,282.5C 151.289,284.422 149.956,286.255 148.5,288C 145.039,289.643 142.039,291.81 139.5,294.5C 135.945,296.729 135.612,299.396 138.5,302.5C 137.624,302.369 136.957,302.702 136.5,303.5C 137.193,304.518 137.859,305.518 138.5,306.5C 136.57,306.229 135.236,305.229 134.5,303.5C 134.5,288.833 134.5,274.167 134.5,259.5C 136.635,266.263 138.135,265.93 139,258.5C 139.333,262.5 139.667,266.5 140,270.5C 140.308,269.692 140.808,269.025 141.5,268.5C 143.49,269.873 145.657,270.873 148,271.5C 148.667,269.5 149.333,267.5 150,265.5C 150.333,267.167 150.667,268.833 151,270.5C 152.348,263.239 152.848,255.906 152.5,248.5C 152.5,232.167 152.5,215.833 152.5,199.5 Z"/></g>
<g><path style="opacity:1" fill="#017bf2" d="M 117.5,281.5 C 116.778,281.082 116.278,280.416 116,279.5C 113.35,279.382 110.85,280.382 108.5,282.5C 105.14,282.473 101.807,282.473 98.5,282.5C 98.5,280.5 98.5,278.5 98.5,276.5C 100.532,275.952 101.532,274.619 101.5,272.5C 106.212,272.619 110.712,272.619 115,272.5C 116.903,275.171 117.736,278.171 117.5,281.5 Z"/></g>
<g><path style="opacity:1" fill="#017bf1" d="M 402.5,281.5 C 402.5,282.833 402.5,284.167 402.5,285.5C 398.971,285.376 395.305,285.209 391.5,285C 389.291,283.856 386.957,283.023 384.5,282.5C 384.338,280.473 384.505,278.473 385,276.5C 386.117,276.665 387.284,276.998 388.5,277.5C 389.251,278.376 389.751,279.376 390,280.5C 392.963,278.652 395.963,277.652 399,277.5C 400.032,279.027 401.199,280.36 402.5,281.5 Z"/></g>
<g><path style="opacity:1" fill="#0d1112" d="M 219.5,280.5 C 220.702,282.392 222.035,284.226 223.5,286C 227.5,288.667 231.5,291.333 235.5,294C 239.919,297.127 244.752,299.293 250,300.5C 252.732,300.385 255.232,299.552 257.5,298C 262.996,294.084 268.663,290.418 274.5,287C 276.765,285.242 278.432,283.075 279.5,280.5C 280.317,278.031 280.817,275.365 281,272.5C 282.923,276.109 285.09,280.276 287.5,285C 285.698,291.446 284.031,297.946 282.5,304.5C 281.167,305.167 279.833,305.833 278.5,306.5C 276.117,305.538 275.117,306.538 275.5,309.5C 273.5,310.167 271.5,310.833 269.5,311.5C 269.67,312.822 269.337,313.989 268.5,315C 266.567,315.251 264.734,315.751 263,316.5C 262.667,316.167 262.333,315.833 262,315.5C 261.581,316.672 260.915,317.672 260,318.5C 258.869,317.396 258.035,317.729 257.5,319.5C 254.243,320.236 251.076,321.236 248,322.5C 245.087,320.75 241.92,319.583 238.5,319C 237.833,318 237.167,317 236.5,316C 233.487,315.498 230.487,314.998 227.5,314.5C 227.33,313.178 227.663,312.011 228.5,311C 227.5,310.667 226.5,310.333 225.5,310C 223.69,307.356 221.69,304.856 219.5,302.5C 218.201,303.09 217.368,304.09 217,305.5C 216.219,304.271 215.719,302.938 215.5,301.5C 217.157,298.453 216.157,297.12 212.5,297.5C 211.683,290.025 213.516,283.358 218,277.5C 218.232,278.737 218.732,279.737 219.5,280.5 Z"/></g>
<g><path style="opacity:1" fill="#006ef5" d="M 117.5,281.5 C 117.5,284.167 117.5,286.833 117.5,289.5C 116.732,288.737 116.232,287.737 116,286.5C 110.475,290.538 104.642,291.204 98.5,288.5C 98.5,286.5 98.5,284.5 98.5,282.5C 101.807,282.473 105.14,282.473 108.5,282.5C 110.85,280.382 113.35,279.382 116,279.5C 116.278,280.416 116.778,281.082 117.5,281.5 Z"/></g>
<g><path style="opacity:1" fill="#026bef" d="M 384.5,282.5 C 386.957,283.023 389.291,283.856 391.5,285C 395.305,285.209 398.971,285.376 402.5,285.5C 402.5,288.833 402.5,292.167 402.5,295.5C 401.819,293.842 400.985,292.175 400,290.5C 398.262,291.127 396.429,291.46 394.5,291.5C 391.012,291.299 387.679,290.632 384.5,289.5C 384.5,293.833 384.5,298.167 384.5,302.5C 384.5,304.167 384.5,305.833 384.5,307.5C 384.889,310.553 384.223,313.22 382.5,315.5C 382.5,314.833 382.5,314.167 382.5,313.5C 383.447,304.22 383.78,294.886 383.5,285.5C 384.404,284.791 384.737,283.791 384.5,282.5 Z"/></g>
<g><path style="opacity:1" fill="#0164f6" d="M 117.5,289.5 C 117.5,296.167 117.5,302.833 117.5,309.5C 116.532,307.393 116.198,305.059 116.5,302.5C 116.665,299.15 116.498,295.817 116,292.5C 113.349,293.238 110.349,293.904 107,294.5C 105.342,294.325 104.009,293.658 103,292.5C 102.446,295.508 100.946,296.508 98.5,295.5C 98.5,293.167 98.5,290.833 98.5,288.5C 104.642,291.204 110.475,290.538 116,286.5C 116.232,287.737 116.732,288.737 117.5,289.5 Z"/></g>
<g><path style="opacity:1" fill="#015ff7" d="M 402.5,295.5 C 402.826,304.017 402.493,312.35 401.5,320.5C 401.5,316.167 401.5,311.833 401.5,307.5C 401.665,304.482 401.498,301.482 401,298.5C 399.33,303.592 398.497,303.592 398.5,298.5C 393.205,297.688 389.038,299.355 386,303.5C 385.617,302.944 385.117,302.611 384.5,302.5C 384.5,298.167 384.5,293.833 384.5,289.5C 387.679,290.632 391.012,291.299 394.5,291.5C 396.429,291.46 398.262,291.127 400,290.5C 400.985,292.175 401.819,293.842 402.5,295.5 Z"/></g>
<g><path style="opacity:1" fill="#0056fb" d="M 116.5,302.5 C 114.741,304.919 112.575,306.919 110,308.5C 107.152,307.217 104.318,307.217 101.5,308.5C 100.808,307.975 100.308,307.308 100,306.5C 99.5012,310.486 99.3345,314.486 99.5,318.5C 98.508,311.018 98.1746,303.352 98.5,295.5C 100.946,296.508 102.446,295.508 103,292.5C 104.009,293.658 105.342,294.325 107,294.5C 110.349,293.904 113.349,293.238 116,292.5C 116.498,295.817 116.665,299.15 116.5,302.5 Z"/></g>
<g><path style="opacity:1" fill="#06bd98" d="M 60.5,297.5 C 67.3056,300.013 66.9723,301.68 59.5,302.5C 59.6287,300.784 59.962,299.117 60.5,297.5 Z"/></g>
<g><path style="opacity:1" fill="#069d85" d="M 442.5,297.5 C 443.496,297.414 444.329,297.748 445,298.5C 445.494,300.134 445.66,301.801 445.5,303.5C 442.903,303.357 440.569,302.523 438.5,301C 440.093,300.051 441.426,298.885 442.5,297.5 Z"/></g>
<g><path style="opacity:1" fill="#0056fc" d="M 401.5,307.5 C 400.732,308.263 400.232,309.263 400,310.5C 396.907,310.015 393.407,309.848 389.5,310C 387.807,309.153 386.14,308.32 384.5,307.5C 384.5,305.833 384.5,304.167 384.5,302.5C 385.117,302.611 385.617,302.944 386,303.5C 389.038,299.355 393.205,297.688 398.5,298.5C 398.497,303.592 399.33,303.592 401,298.5C 401.498,301.482 401.665,304.482 401.5,307.5 Z"/></g>
<g><path style="opacity:1" fill="#05cea9" d="M 138.5,302.5 C 153.184,311.527 167.851,320.527 182.5,329.5C 183.209,330.404 184.209,330.737 185.5,330.5C 185.5,331.833 185.5,333.167 185.5,334.5C 183.801,334.66 182.134,334.494 180.5,334C 166.264,325.058 152.264,315.892 138.5,306.5C 137.859,305.518 137.193,304.518 136.5,303.5C 136.957,302.702 137.624,302.369 138.5,302.5 Z"/></g>
<g><path style="opacity:1" fill="#0443f8" d="M 116.5,302.5 C 116.198,305.059 116.532,307.393 117.5,309.5C 117.216,311.415 117.549,313.081 118.5,314.5C 119.338,314.842 119.672,315.508 119.5,316.5C 120.405,320.976 122.405,324.976 125.5,328.5C 136.389,335.44 147.389,342.107 158.5,348.5C 185.681,366.023 213.347,382.689 241.5,398.5C 241.611,399.117 241.944,399.617 242.5,400C 247.02,400.814 251.354,400.647 255.5,399.5C 257.421,398.637 259.421,397.971 261.5,397.5C 263.967,397.245 265.967,396.245 267.5,394.5C 285.252,383.604 302.919,372.437 320.5,361C 321.448,360.517 322.448,360.351 323.5,360.5C 325.853,359.66 327.853,358.326 329.5,356.5C 332.92,353.741 336.586,351.408 340.5,349.5C 351.305,343.262 361.972,336.762 372.5,330C 375.046,328.289 377.046,326.123 378.5,323.5C 380.388,321.206 381.722,318.539 382.5,315.5C 384.223,313.22 384.889,310.553 384.5,307.5C 386.14,308.32 387.807,309.153 389.5,310C 393.407,309.848 396.907,310.015 400,310.5C 400.232,309.263 400.732,308.263 401.5,307.5C 401.5,311.833 401.5,316.167 401.5,320.5C 401.5,321.5 401.5,322.5 401.5,323.5C 399.461,324.911 398.461,326.911 398.5,329.5C 396.518,333.146 393.851,336.146 390.5,338.5C 388.246,339.124 386.579,340.457 385.5,342.5C 383.517,343.471 381.517,344.471 379.5,345.5C 376.63,346.433 374.296,348.1 372.5,350.5C 367.991,352.919 363.658,355.586 359.5,358.5C 351.325,362.417 343.659,367.083 336.5,372.5C 333.9,373.468 331.566,374.801 329.5,376.5C 322.99,380.253 316.656,384.253 310.5,388.5C 308.326,388.75 306.659,389.75 305.5,391.5C 302.151,392.169 299.484,393.836 297.5,396.5C 290.195,399.484 283.528,403.484 277.5,408.5C 274.669,409.079 272.336,410.412 270.5,412.5C 269.391,412.557 268.391,412.89 267.5,413.5C 264.911,413.461 262.911,414.461 261.5,416.5C 251.924,419.558 242.59,418.892 233.5,414.5C 228.455,410.805 223.122,407.472 217.5,404.5C 214.202,402.515 210.869,400.515 207.5,398.5C 203.337,395.584 199.004,392.917 194.5,390.5C 193.738,388.738 192.404,387.738 190.5,387.5C 184.934,385.227 179.934,382.227 175.5,378.5C 173.879,376.058 171.546,374.725 168.5,374.5C 163.833,371.833 159.167,369.167 154.5,366.5C 150.123,363.312 145.457,360.645 140.5,358.5C 135.549,354.684 130.215,351.35 124.5,348.5C 120.342,345.586 116.009,342.919 111.5,340.5C 105.482,335.784 101.482,329.784 99.5,322.5C 99.5,321.167 99.5,319.833 99.5,318.5C 99.3345,314.486 99.5012,310.486 100,306.5C 100.308,307.308 100.808,307.975 101.5,308.5C 104.318,307.217 107.152,307.217 110,308.5C 112.575,306.919 114.741,304.919 116.5,302.5 Z"/></g>
<g><path style="opacity:1" fill="#7b89a8" d="M 379.5,313.5 C 380.5,313.5 381.5,313.5 382.5,313.5C 382.5,314.167 382.5,314.833 382.5,315.5C 381.722,318.539 380.388,321.206 378.5,323.5C 379.573,321.347 379.573,319.347 378.5,317.5C 379.234,316.292 379.567,314.959 379.5,313.5 Z"/></g>
<g><path style="opacity:1" fill="#04d6ae" d="M 365.5,302.5 C 351.074,312.891 336.407,323.057 321.5,333C 318.986,334.252 316.32,334.752 313.5,334.5C 313.771,332.57 314.771,331.236 316.5,330.5C 330.375,321.735 344.041,312.735 357.5,303.5C 359.772,302.559 361.772,301.226 363.5,299.5C 364.222,299.082 364.722,298.416 365,297.5C 365.494,299.134 365.66,300.801 365.5,302.5 Z"/></g>
<g><path style="opacity:1" fill="#0440b5" d="M 401.5,323.5 C 401.008,325.819 400.008,327.819 398.5,329.5C 398.461,326.911 399.461,324.911 401.5,323.5 Z"/></g>
<g><path style="opacity:1" fill="#cec7d3" d="M 121.5,315.5 C 122.782,319.954 125.115,323.787 128.5,327C 139.564,333.858 150.564,340.692 161.5,347.5C 160.791,348.404 159.791,348.737 158.5,348.5C 147.389,342.107 136.389,335.44 125.5,328.5C 122.405,324.976 120.405,320.976 119.5,316.5C 120.167,316.167 120.833,315.833 121.5,315.5 Z"/></g>
<g><path style="opacity:1" fill="#0c0e0f" d="M 365.5,302.5 C 365.833,302.5 366.167,302.5 366.5,302.5C 367.478,302.811 368.145,303.478 368.5,304.5C 366.77,307.37 365.436,310.37 364.5,313.5C 361.361,314.193 358.361,315.36 355.5,317C 351.082,319.414 347.249,322.581 344,326.5C 342.701,326.034 341.201,326.034 339.5,326.5C 338.923,329.645 336.923,331.145 333.5,331C 333.833,331.333 334.167,331.667 334.5,332C 330.806,333.355 327.639,335.522 325,338.5C 324.667,338.167 324.333,337.833 324,337.5C 320.51,339.991 317.343,342.825 314.5,346C 313.552,346.483 312.552,346.649 311.5,346.5C 311.799,348.604 311.466,350.604 310.5,352.5C 309.808,351.975 309.308,351.308 309,350.5C 307.414,352.67 306.08,355.004 305,357.5C 304.586,357.043 304.086,356.709 303.5,356.5C 293.522,361.313 284.189,367.146 275.5,374C 270.5,376.167 265.5,378.333 260.5,380.5C 259.614,381.325 259.281,382.325 259.5,383.5C 255.09,383.74 250.923,384.073 247,384.5C 244.158,383.069 241.324,382.569 238.5,383C 232.283,379.051 226.617,374.384 221.5,369C 215.97,367.791 211.303,365.124 207.5,361C 201.723,360.588 197.056,357.755 193.5,352.5C 191.117,353.462 190.117,352.462 190.5,349.5C 187.185,349.028 184.851,347.195 183.5,344C 182.551,343.383 181.718,343.549 181,344.5C 180.333,343.167 179.667,341.833 179,340.5C 174.237,336.576 169.07,333.242 163.5,330.5C 162.914,330.709 162.414,331.043 162,331.5C 161.781,330.062 161.281,328.729 160.5,327.5C 155.509,326.268 151.175,324.102 147.5,321C 146.842,319.095 145.675,317.595 144,316.5C 143.667,316.833 143.333,317.167 143,317.5C 137.897,315.237 134.397,311.57 132.5,306.5C 132.64,304.97 133.307,303.97 134.5,303.5C 135.236,305.229 136.57,306.229 138.5,306.5C 152.264,315.892 166.264,325.058 180.5,334C 182.134,334.494 183.801,334.66 185.5,334.5C 186.492,334.328 187.158,334.662 187.5,335.5C 191.025,339.183 195.025,342.35 199.5,345C 212.057,352.775 224.724,360.275 237.5,367.5C 240.634,370.491 244.468,371.824 249,371.5C 253.01,371.497 256.844,370.664 260.5,369C 274.146,360.698 287.813,352.365 301.5,344C 305.949,341.716 309.616,338.549 312.5,334.5C 312.833,334.5 313.167,334.5 313.5,334.5C 316.32,334.752 318.986,334.252 321.5,333C 336.407,323.057 351.074,312.891 365.5,302.5 Z"/></g>
<g><path style="opacity:1" fill="#106371" d="M 311.5,322.5 C 312.458,322.953 313.292,323.619 314,324.5C 314.002,327.051 314.836,329.051 316.5,330.5C 314.771,331.236 313.771,332.57 313.5,334.5C 313.167,334.5 312.833,334.5 312.5,334.5C 294.358,346.743 275.692,358.243 256.5,369C 250.038,369.849 243.705,369.349 237.5,367.5C 221.52,355.838 204.853,345.172 187.5,335.5C 187.158,334.662 186.492,334.328 185.5,334.5C 185.5,333.167 185.5,331.833 185.5,330.5C 184.209,330.737 183.209,330.404 182.5,329.5C 184.03,327.173 185.697,324.84 187.5,322.5C 187.369,323.239 187.536,323.906 188,324.5C 190.317,321.903 193.15,321.07 196.5,322C 211.999,331.917 227.666,341.584 243.5,351C 249.394,352.037 255.061,351.371 260.5,349C 274.336,340.583 288.002,331.916 301.5,323C 304.993,321.996 308.159,322.496 311,324.5C 311.464,323.906 311.631,323.239 311.5,322.5 Z"/></g>
<g><path style="opacity:1" fill="#dedee0" d="M 311.5,322.5 C 311.631,323.239 311.464,323.906 311,324.5C 308.159,322.496 304.993,321.996 301.5,323C 288.002,331.916 274.336,340.583 260.5,349C 255.061,351.371 249.394,352.037 243.5,351C 227.666,341.584 211.999,331.917 196.5,322C 193.15,321.07 190.317,321.903 188,324.5C 187.536,323.906 187.369,323.239 187.5,322.5C 187.953,321.542 188.619,320.708 189.5,320C 192.5,319.333 195.5,319.333 198.5,320C 212.833,329 227.167,338 241.5,347C 247.676,350.48 253.676,350.147 259.5,346C 273.5,337.333 287.5,328.667 301.5,320C 305.463,318.863 308.796,319.697 311.5,322.5 Z"/></g>
<g><path style="opacity:1" fill="#0c0e0f" d="M 99.5,322.5 C 101.482,329.784 105.482,335.784 111.5,340.5C 114.942,344.398 119.275,347.065 124.5,348.5C 130.215,351.35 135.549,354.684 140.5,358.5C 144.551,362.194 149.217,364.86 154.5,366.5C 159.167,369.167 163.833,371.833 168.5,374.5C 170.566,376.199 172.9,377.532 175.5,378.5C 179.934,382.227 184.934,385.227 190.5,387.5C 191.262,389.262 192.596,390.262 194.5,390.5C 199.004,392.917 203.337,395.584 207.5,398.5C 209.807,401.996 213.14,403.996 217.5,404.5C 223.122,407.472 228.455,410.805 233.5,414.5C 237.967,418.542 243.3,420.209 249.5,419.5C 252.167,419.333 254.833,419.167 257.5,419C 260.666,418.678 263.333,417.511 265.5,415.5C 266.167,414.833 266.833,414.167 267.5,413.5C 268.391,412.89 269.391,412.557 270.5,412.5C 273.326,412.002 275.66,410.669 277.5,408.5C 283.528,403.484 290.195,399.484 297.5,396.5C 301.13,396.299 303.797,394.632 305.5,391.5C 307.848,391.408 309.514,390.408 310.5,388.5C 311.873,388.657 313.207,388.49 314.5,388C 318.464,384.679 322.798,381.846 327.5,379.5C 328.425,378.643 329.092,377.643 329.5,376.5C 331.566,374.801 333.9,373.468 336.5,372.5C 338.262,372.643 339.929,372.309 341.5,371.5C 347.621,367.159 353.621,362.825 359.5,358.5C 360.873,358.657 362.207,358.49 363.5,358C 366.839,354.155 370.839,352.321 375.5,352.5C 377.655,351.095 379.821,349.762 382,348.5C 382.617,347.551 382.451,346.718 381.5,346C 382.793,345.51 384.127,345.343 385.5,345.5C 385.5,344.5 385.5,343.5 385.5,342.5C 387.795,341.864 389.461,340.531 390.5,338.5C 394.326,337.189 397.493,334.856 400,331.5C 400.711,333.367 400.211,334.867 398.5,336C 399.899,336.595 401.232,336.428 402.5,335.5C 403.641,337.421 403.808,339.421 403,341.5C 402.667,341.167 402.333,340.833 402,340.5C 400.086,341.676 400.252,342.676 402.5,343.5C 400.493,345.008 398.826,346.842 397.5,349C 394.29,349.395 391.79,350.895 390,353.5C 389.667,353.167 389.333,352.833 389,352.5C 388.5,353.5 388,354.5 387.5,355.5C 384.934,356.279 382.934,357.779 381.5,360C 379.392,360.36 377.392,361.027 375.5,362C 373.726,364.44 371.392,366.106 368.5,367C 368.833,367.333 369.167,367.667 369.5,368C 367.112,369.861 364.446,371.194 361.5,372C 360.663,373.011 360.33,374.178 360.5,375.5C 357.513,375.998 354.513,376.498 351.5,377C 346.166,383.029 339.499,387.029 331.5,389C 330.743,390.512 329.743,391.846 328.5,393C 330.929,393.451 331.096,394.285 329,395.5C 326.4,392.633 325.234,392.799 325.5,396C 322.312,396.755 319.145,397.589 316,398.5C 314.699,399.098 313.865,400.098 313.5,401.5C 314.629,403.529 314.129,403.863 312,402.5C 309.832,403.629 309.332,405.129 310.5,407C 303.23,407.149 297.397,410.316 293,416.5C 291.284,415.448 290.284,416.114 290,418.5C 289.586,418.043 289.086,417.709 288.5,417.5C 286.149,420.402 283.316,421.069 280,419.5C 278.167,422 276.333,424.5 274.5,427C 272.802,426.503 271.135,426.67 269.5,427.5C 267.624,429.546 265.624,431.379 263.5,433C 255.798,432.989 248.298,432.489 241,431.5C 240.667,432.167 240.333,432.833 240,433.5C 236.134,430.476 231.967,427.81 227.5,425.5C 226.719,424.271 226.219,422.938 226,421.5C 225.667,421.833 225.333,422.167 225,422.5C 220.681,417.565 214.848,415.231 207.5,415.5C 204.79,410.502 200.457,407.835 194.5,407.5C 194.5,406.5 194.5,405.5 194.5,404.5C 193.448,404.649 192.448,404.483 191.5,404C 192.696,403.346 192.696,402.846 191.5,402.5C 188.853,405.18 187.52,404.513 187.5,400.5C 186.448,400.649 185.448,400.483 184.5,400C 179.559,397.183 174.892,393.85 170.5,390C 168.965,389.504 167.465,389.67 166,390.5C 164.333,388.833 162.667,387.167 161,385.5C 158.144,384.744 155.311,383.911 152.5,383C 153.167,382.333 153.833,381.667 154.5,381C 150.896,379.694 147.563,378.028 144.5,376C 141.876,374.405 139.876,372.238 138.5,369.5C 132.959,367.504 128.126,364.504 124,360.5C 121.568,361.45 119.068,361.45 116.5,360.5C 116.5,359.5 116.5,358.5 116.5,357.5C 112.106,356.275 109.106,353.441 107.5,349C 102.72,348.189 100.72,345.355 101.5,340.5C 99.0418,340.773 97.3751,339.773 96.5,337.5C 96.5453,333.765 96.5453,330.099 96.5,326.5C 97.5,326.5 98.5,326.5 99.5,326.5C 99.5,325.167 99.5,323.833 99.5,322.5 Z"/></g>
<g><path style="opacity:1" fill="#062d64" d="M 390.5,338.5 C 389.461,340.531 387.795,341.864 385.5,342.5C 386.579,340.457 388.246,339.124 390.5,338.5 Z"/></g>
<g><path style="opacity:1" fill="#0b2242" d="M 111.5,340.5 C 116.009,342.919 120.342,345.586 124.5,348.5C 119.275,347.065 114.942,344.398 111.5,340.5 Z"/></g>
<g><path style="opacity:1" fill="#d7d2db" d="M 378.5,317.5 C 379.573,319.347 379.573,321.347 378.5,323.5C 377.046,326.123 375.046,328.289 372.5,330C 361.972,336.762 351.305,343.262 340.5,349.5C 340.672,348.508 340.338,347.842 339.5,347.5C 349.932,340.442 360.599,333.608 371.5,327C 374.823,324.517 377.157,321.351 378.5,317.5 Z"/></g>
<g><path style="opacity:1" fill="#062f66" d="M 379.5,345.5 C 378.047,348.394 375.714,350.06 372.5,350.5C 374.296,348.1 376.63,346.433 379.5,345.5 Z"/></g>
<g><path style="opacity:1" fill="#0d1623" d="M 385.5,342.5 C 385.5,343.5 385.5,344.5 385.5,345.5C 384.127,345.343 382.793,345.51 381.5,346C 382.451,346.718 382.617,347.551 382,348.5C 379.821,349.762 377.655,351.095 375.5,352.5C 370.839,352.321 366.839,354.155 363.5,358C 362.207,358.49 360.873,358.657 359.5,358.5C 363.658,355.586 367.991,352.919 372.5,350.5C 375.714,350.06 378.047,348.394 379.5,345.5C 381.517,344.471 383.517,343.471 385.5,342.5 Z"/></g>
<g><path style="opacity:1" fill="#042e3e" d="M 312.5,334.5 C 309.616,338.549 305.949,341.716 301.5,344C 287.813,352.365 274.146,360.698 260.5,369C 256.844,370.664 253.01,371.497 249,371.5C 244.468,371.824 240.634,370.491 237.5,367.5C 243.705,369.349 250.038,369.849 256.5,369C 275.692,358.243 294.358,346.743 312.5,334.5 Z"/></g>
<g><path style="opacity:1" fill="#aea6b3" d="M 161.5,347.5 C 185.927,362.076 210.261,376.91 234.5,392C 245.675,398.234 256.675,397.9 267.5,391C 291.389,376.226 315.389,361.726 339.5,347.5C 340.338,347.842 340.672,348.508 340.5,349.5C 336.586,351.408 332.92,353.741 329.5,356.5C 326.802,356.845 324.802,358.178 323.5,360.5C 322.448,360.351 321.448,360.517 320.5,361C 302.919,372.437 285.252,383.604 267.5,394.5C 265.033,394.755 263.033,395.755 261.5,397.5C 259.421,397.971 257.421,398.637 255.5,399.5C 250.77,399.717 246.103,399.383 241.5,398.5C 213.347,382.689 185.681,366.023 158.5,348.5C 159.791,348.737 160.791,348.404 161.5,347.5 Z"/></g>
<g><path style="opacity:1" fill="#043245" d="M 187.5,335.5 C 204.853,345.172 221.52,355.838 237.5,367.5C 224.724,360.275 212.057,352.775 199.5,345C 195.025,342.35 191.025,339.183 187.5,335.5 Z"/></g>
<g><path style="opacity:1" fill="#4d65da" d="M 329.5,356.5 C 327.853,358.326 325.853,359.66 323.5,360.5C 324.802,358.178 326.802,356.845 329.5,356.5 Z"/></g>
<g><path style="opacity:1" fill="#062645" d="M 140.5,358.5 C 145.457,360.645 150.123,363.312 154.5,366.5C 149.217,364.86 144.551,362.194 140.5,358.5 Z"/></g>
<g><path style="opacity:1" fill="#0b2448" d="M 359.5,358.5 C 353.621,362.825 347.621,367.159 341.5,371.5C 339.929,372.309 338.262,372.643 336.5,372.5C 343.659,367.083 351.325,362.417 359.5,358.5 Z"/></g>
<g><path style="opacity:1" fill="#0340bf" d="M 168.5,374.5 C 171.546,374.725 173.879,376.058 175.5,378.5C 172.9,377.532 170.566,376.199 168.5,374.5 Z"/></g>
<g><path style="opacity:1" fill="#092547" d="M 329.5,376.5 C 329.092,377.643 328.425,378.643 327.5,379.5C 322.798,381.846 318.464,384.679 314.5,388C 313.207,388.49 311.873,388.657 310.5,388.5C 316.656,384.253 322.99,380.253 329.5,376.5 Z"/></g>
<g><path style="opacity:1" fill="#0239a1" d="M 190.5,387.5 C 192.404,387.738 193.738,388.738 194.5,390.5C 192.596,390.262 191.262,389.262 190.5,387.5 Z"/></g>
<g><path style="opacity:1" fill="#072854" d="M 310.5,388.5 C 309.514,390.408 307.848,391.408 305.5,391.5C 306.659,389.75 308.326,388.75 310.5,388.5 Z"/></g>
<g><path style="opacity:1" fill="#10244a" d="M 305.5,391.5 C 303.797,394.632 301.13,396.299 297.5,396.5C 299.484,393.836 302.151,392.169 305.5,391.5 Z"/></g>
<g><path style="opacity:1" fill="#516ae2" d="M 267.5,394.5 C 265.967,396.245 263.967,397.245 261.5,397.5C 263.033,395.755 265.033,394.755 267.5,394.5 Z"/></g>
<g><path style="opacity:1" fill="#062540" d="M 207.5,398.5 C 210.869,400.515 214.202,402.515 217.5,404.5C 213.14,403.996 209.807,401.996 207.5,398.5 Z"/></g>
<g><path style="opacity:1" fill="#4c69e2" d="M 241.5,398.5 C 246.103,399.383 250.77,399.717 255.5,399.5C 251.354,400.647 247.02,400.814 242.5,400C 241.944,399.617 241.611,399.117 241.5,398.5 Z"/></g>
<g><path style="opacity:1" fill="#062b58" d="M 277.5,408.5 C 275.66,410.669 273.326,412.002 270.5,412.5C 272.336,410.412 274.669,409.079 277.5,408.5 Z"/></g>
<g><path style="opacity:1" fill="#033db2" d="M 267.5,413.5 C 266.833,414.167 266.167,414.833 265.5,415.5C 264.167,415.833 262.833,416.167 261.5,416.5C 262.911,414.461 264.911,413.461 267.5,413.5 Z"/></g>
<g><path style="opacity:1" fill="#042440" d="M 233.5,414.5 C 242.59,418.892 251.924,419.558 261.5,416.5C 262.833,416.167 264.167,415.833 265.5,415.5C 263.333,417.511 260.666,418.678 257.5,419C 254.833,419.167 252.167,419.333 249.5,419.5C 243.3,420.209 237.967,418.542 233.5,414.5 Z"/></g>
</svg>
